<?xml version="1.0" encoding="utf-8"?>
<!-- Generator: Adobe Illustrator 15.0.0, SVG Export Plug-In . SVG Version: 6.00 Build 0)  -->
<!DOCTYPE svg PUBLIC "-//W3C//DTD SVG 1.1//EN" "http://www.w3.org/Graphics/SVG/1.1/DTD/svg11.dtd">
<svg version="1.1" id="Layer_3" xmlns="http://www.w3.org/2000/svg" xmlns:xlink="http://www.w3.org/1999/xlink" x="0px" y="0px"
	 width="612px" height="792px" viewBox="0 0 612 792" enable-background="new 0 0 612 792" xml:space="preserve">
<path fill="#79291B" d="M301.159,374.226c-1.697,6.63-6.161,29.671,9.889,41.788c0.733,0.554,1.334,1.058,1.837,1.523
	c0.148-0.082,0.295-0.171,0.43-0.279c0.613-0.492,0.996-1.216,1.059-1.998c0.096-1.202,2.22-29.543-10.084-40.601
	c-0.745-0.67-1.785-0.9-2.742-0.609C301.408,374.092,301.287,374.163,301.159,374.226z"/>
<g>
	<radialGradient id="SVGID_1_" cx="301.4028" cy="386.0908" r="6.9988" gradientUnits="userSpaceOnUse">
		<stop  offset="0.1966" style="stop-color:#CA813F"/>
		<stop  offset="0.6742" style="stop-color:#8A5036"/>
		<stop  offset="0.8989" style="stop-color:#A76D48"/>
	</radialGradient>
	<path fill="url(#SVGID_1_)" d="M301.348,391.336c0.213-0.31,0.438-0.595,0.685-0.827c-0.14-0.972-0.393-1.865-0.73-2.646
		C301.278,388.993,301.292,390.153,301.348,391.336z"/>
	<radialGradient id="SVGID_2_" cx="302.9941" cy="369.4487" r="61.1585" gradientUnits="userSpaceOnUse">
		<stop  offset="0.1966" style="stop-color:#CA813F"/>
		<stop  offset="0.6742" style="stop-color:#8A5036"/>
		<stop  offset="0.8989" style="stop-color:#A76D48"/>
	</radialGradient>
	<path fill="url(#SVGID_2_)" d="M304.021,389.623c2.369-0.023,4.319,3.328,4.359,7.486c0.003,0.27-0.003,0.535-0.019,0.798
		c-0.26-3.693-2.111-6.556-4.326-6.535c-0.979,0.009-1.875,0.582-2.588,1.537c0.611,7.616,3.17,15.852,10.096,21.873
		c0.145-2.129,1.031-17.956-3.591-29.484c-0.503-0.345-1.05-0.534-1.622-0.529c-2,0.019-3.654,2.388-4.098,5.567
		C302.775,389.888,303.379,389.628,304.021,389.623z"/>
</g>
<linearGradient id="SVGID_3_" gradientUnits="userSpaceOnUse" x1="302.0703" y1="381.2822" x2="305.4841" y2="388.406">
	<stop  offset="0.1966" style="stop-color:#FDCB8A"/>
	<stop  offset="0.6236" style="stop-color:#FFFFFF"/>
</linearGradient>
<path fill="url(#SVGID_3_)" d="M301.353,386.344c0.402,1.001,0.674,2.175,0.762,3.449c0.188-3.789,1.984-6.755,4.2-6.774
	c0.226-0.002,0.447,0.036,0.665,0.093c-1.173-2.383-2.635-4.496-4.44-6.166C302.038,379.395,301.528,382.663,301.353,386.344z"/>
</svg>
