<?xml version="1.0" encoding="UTF-8" standalone="no"?>
<!-- Generator: Adobe Illustrator 15.0.0, SVG Export Plug-In . SVG Version: 6.00 Build 0)  -->

<svg
   xmlns:dc="http://purl.org/dc/elements/1.1/"
   xmlns:cc="http://creativecommons.org/ns#"
   xmlns:rdf="http://www.w3.org/1999/02/22-rdf-syntax-ns#"
   xmlns:svg="http://www.w3.org/2000/svg"
   xmlns="http://www.w3.org/2000/svg"
   xmlns:sodipodi="http://sodipodi.sourceforge.net/DTD/sodipodi-0.dtd"
   xmlns:inkscape="http://www.inkscape.org/namespaces/inkscape"
   version="1.1"
   id="Layer_3"
   x="0px"
   y="0px"
   width="240.142"
   height="225.29401"
   viewBox="0 0 240.142 225.29401"
   enable-background="new 0 0 612 792"
   xml:space="preserve"
   inkscape:version="0.48.3.1 r9886"
   sodipodi:docname="turkey_body.svg"><metadata
   id="metadata3187"><rdf:RDF><cc:Work
       rdf:about=""><dc:format>image/svg+xml</dc:format><dc:type
         rdf:resource="http://purl.org/dc/dcmitype/StillImage" /></cc:Work></rdf:RDF></metadata><defs
   id="defs3185" /><sodipodi:namedview
   pagecolor="#ffffff"
   bordercolor="#666666"
   borderopacity="1"
   objecttolerance="10"
   gridtolerance="10"
   guidetolerance="10"
   inkscape:pageopacity="0"
   inkscape:pageshadow="2"
   inkscape:window-width="1916"
   inkscape:window-height="1177"
   id="namedview3183"
   showgrid="false"
   fit-margin-top="0"
   fit-margin-left="0"
   fit-margin-right="0"
   fit-margin-bottom="0"
   inkscape:zoom="1.260101"
   inkscape:cx="119.689"
   inkscape:cy="112.632"
   inkscape:window-x="0"
   inkscape:window-y="19"
   inkscape:window-maximized="0"
   inkscape:current-layer="Layer_3" />
<g
   id="g3133"
   transform="translate(-186.311,-283.338)">
	<path
   d="m 226.547,316.014 0,0 c -25.947,22.524 -40.236,50.924 -40.236,79.971 0,35.221 7.917,61.273 24.204,79.641 19.693,22.211 51.051,33.006 95.868,33.006 44.813,0 76.172,-10.795 95.867,-33.004 16.287,-18.371 24.203,-44.424 24.203,-79.643 0,-29.047 -14.289,-57.449 -40.236,-79.971 -23.573,-20.461 -53.419,-32.676 -79.834,-32.676 -26.417,0 -56.262,12.215 -79.836,32.676 z"
   id="path3135"
   inkscape:connector-curvature="0"
   style="fill:#79291b" />
	
		<radialGradient
   id="SVGID_1_"
   cx="303.98779"
   cy="342.09079"
   r="267.78201"
   gradientTransform="matrix(1,0,0,0.7011,0,80.5633)"
   gradientUnits="userSpaceOnUse">
		<stop
   offset="0.1966"
   style="stop-color:#CA813F"
   id="stop3138" />
		<stop
   offset="0.6742"
   style="stop-color:#8A5036"
   id="stop3140" />
		<stop
   offset="0.8989"
   style="stop-color:#A76D48"
   id="stop3142" />
	</radialGradient>
	<path
   d="m 229.688,319.633 c -24.881,21.599 -38.585,48.715 -38.585,76.352 0,33.996 7.521,59.008 22.998,76.463 18.729,21.123 48.915,31.393 92.282,31.393 43.363,0 73.55,-10.27 92.283,-31.393 15.473,-17.455 22.996,-42.467 22.996,-76.463 0,-27.637 -13.702,-54.753 -38.586,-76.352 -22.728,-19.727 -51.397,-31.504 -76.693,-31.504 -25.298,0 -53.968,11.777 -76.695,31.504 z"
   id="path3144"
   inkscape:connector-curvature="0"
   style="fill:url(#SVGID_1_)" />
	<g
   id="g3146">
		<g
   id="g3148">
			<path
   d="m 395.266,436.467 c -4.691,1.068 -9.955,-4.098 -12.234,-11.742 0.094,0.559 0.204,1.117 0.335,1.684 2.026,8.727 7.737,14.875 12.753,13.732 5.017,-1.143 7.442,-9.143 5.421,-17.871 -0.131,-0.564 -0.278,-1.115 -0.439,-1.658 1.316,7.863 -1.143,14.784 -5.836,15.855 z"
   id="path3150"
   inkscape:connector-curvature="0"
   style="fill:#79291b" />
		</g>
		<g
   id="g3152">
			<path
   d="m 386.148,423.514 c -4.607,1.389 -10.218,-3.398 -13.03,-10.869 0.134,0.553 0.283,1.105 0.452,1.66 2.637,8.564 8.762,14.301 13.687,12.812 4.925,-1.482 6.787,-9.629 4.153,-18.197 -0.171,-0.553 -0.358,-1.096 -0.555,-1.625 1.865,7.752 -0.1,14.83 -4.707,16.219 z"
   id="path3154"
   inkscape:connector-curvature="0"
   style="fill:#79291b" />
			<path
   d="m 403.882,418.164 c -4.604,1.389 -10.217,-3.402 -13.026,-10.869 0.131,0.551 0.283,1.104 0.451,1.656 2.635,8.566 8.762,14.307 13.687,12.818 4.928,-1.488 6.785,-9.633 4.153,-18.201 -0.174,-0.555 -0.358,-1.096 -0.56,-1.625 1.872,7.754 -0.096,14.83 -4.705,16.221 z"
   id="path3156"
   inkscape:connector-curvature="0"
   style="fill:#79291b" />
		</g>
	</g>
	<g
   id="g3158">
		<g
   id="g3160">
			<path
   d="m 216.557,436.467 c 4.691,1.068 9.955,-4.098 12.234,-11.742 -0.094,0.559 -0.204,1.117 -0.334,1.684 -2.026,8.727 -7.737,14.875 -12.753,13.732 -5.016,-1.143 -7.442,-9.143 -5.421,-17.871 0.131,-0.564 0.279,-1.115 0.44,-1.658 -1.318,7.863 1.141,14.784 5.834,15.855 z"
   id="path3162"
   inkscape:connector-curvature="0"
   style="fill:#79291b" />
		</g>
		<g
   id="g3164">
			<path
   d="m 225.675,423.514 c 4.606,1.389 10.217,-3.398 13.029,-10.869 -0.133,0.553 -0.283,1.105 -0.451,1.66 -2.637,8.564 -8.762,14.301 -13.687,12.812 -4.925,-1.482 -6.787,-9.629 -4.152,-18.197 0.17,-0.553 0.358,-1.096 0.554,-1.625 -1.865,7.752 0.1,14.83 4.707,16.219 z"
   id="path3166"
   inkscape:connector-curvature="0"
   style="fill:#79291b" />
			<path
   d="m 207.94,418.164 c 4.604,1.389 10.217,-3.402 13.027,-10.869 -0.131,0.551 -0.283,1.104 -0.452,1.656 -2.634,8.566 -8.762,14.307 -13.687,12.818 -4.927,-1.488 -6.785,-9.633 -4.153,-18.201 0.173,-0.555 0.358,-1.096 0.559,-1.625 -1.87,7.754 0.098,14.83 4.706,16.221 z"
   id="path3168"
   inkscape:connector-curvature="0"
   style="fill:#79291b" />
		</g>
	</g>
	<g
   id="g3170">
		<path
   d="m 343.348,504.135 2.2,-2.396 c 0,0 41.366,-19.336 30.162,-66.467 -11.202,-47.129 -37.918,-38.066 -37.918,-38.066 l -4.31,8.461 c 0,0 -5.17,-5.438 -9.479,-3.021 -4.309,2.417 -9.48,6.646 -15.513,4.23 h -1.062 c -6.032,2.416 -11.203,-1.814 -15.512,-4.23 -4.309,-2.416 -9.479,3.021 -9.479,3.021 l -4.309,-8.461 c 0,0 -26.715,-9.062 -37.918,38.066 -11.203,47.131 30.163,66.467 30.163,66.467 l 13.02,4.316 c 7.263,0.719 14.924,1.086 22.989,1.086 13.436,0 25.762,-1.01 36.966,-3.006 z"
   id="path3172"
   inkscape:connector-curvature="0"
   style="fill:#79291b" />
		<linearGradient
   id="SVGID_2_"
   gradientUnits="userSpaceOnUse"
   x1="307.95999"
   y1="495.9873"
   x2="307.95999"
   y2="336.55569">
			<stop
   offset="0.1966"
   style="stop-color:#FDCB8A"
   id="stop3175" />
			<stop
   offset="0.6236"
   style="stop-color:#FFFFFF"
   id="stop3177" />
		</linearGradient>
		<path
   d="m 343.616,500.738 c 0.116,-0.127 0.186,-0.201 0.186,-0.201 l 0.414,-0.195 c 0.354,-0.166 30.998,-15.043 30.998,-49.553 0,-4.711 -0.57,-9.785 -1.867,-15.24 -5.937,-24.975 -16.078,-33.447 -23.541,-36.158 -4.721,-1.715 -8.545,-1.217 -10.137,-0.875 -0.63,1.236 -5.527,10.848 -5.527,10.848 l -2.649,-2.764 c -0.824,-0.859 -3.092,-2.691 -4.845,-2.881 -0.432,-0.047 -0.765,0.021 -1.147,0.236 l -1.961,1.162 c -3.915,2.375 -9.232,5.535 -15.485,3.436 h -0.185 c -6.255,2.1 -11.573,-1.062 -15.488,-3.438 l -1.96,-1.16 c -0.383,-0.215 -0.715,-0.283 -1.147,-0.236 -1.754,0.189 -4.021,2.021 -4.845,2.881 l -2.648,2.76 -1.598,-3.129 c 0,0 -3.297,-6.473 -3.929,-7.713 -1.625,-0.346 -5.506,-0.844 -10.27,0.922 -7.417,2.75 -17.5,11.246 -23.41,36.109 -1.296,5.453 -1.867,10.529 -1.867,15.238 0,33.889 29.478,48.807 30.881,49.494 0.13,0.043 2.276,0.754 5.013,1.662 9.14,1.266 19.056,1.896 29.782,1.896 13.71,10e-4 26.101,-1.03 37.232,-3.101 z"
   id="path3179"
   inkscape:connector-curvature="0"
   style="fill:url(#SVGID_2_)" />
	</g>
	<path
   d="m 299.65,443.514 c 0,0 -7.593,8.283 -2.763,11.049 4.834,2.758 7.25,-0.693 7.25,-0.693 0,0 -0.002,10.699 3.796,9.662 3.795,-1.033 5.177,-7.244 5.177,-7.244 0,0 3.453,3.449 5.524,1.727 2.07,-1.727 -3.108,-9.322 -3.108,-9.322 0,0 2.073,6.904 -0.345,6.213 -2.418,-0.691 -5.177,-4.143 -5.177,-4.143 0,0 0,8.975 -2.071,7.252 -2.071,-1.727 -2.416,-8.631 -2.416,-8.631 0,0 -6.903,4.83 -6.903,1.379 0.001,-3.451 1.036,-7.249 1.036,-7.249 z"
   id="path3181"
   inkscape:connector-curvature="0"
   style="fill:#79291b" />
</g>
</svg>