<?xml version="1.0" encoding="utf-8"?>
<!-- Generator: Adobe Illustrator 15.0.0, SVG Export Plug-In . SVG Version: 6.00 Build 0)  -->
<!DOCTYPE svg PUBLIC "-//W3C//DTD SVG 1.1//EN" "http://www.w3.org/Graphics/SVG/1.1/DTD/svg11.dtd">
<svg version="1.1" id="Layer_1" xmlns="http://www.w3.org/2000/svg" xmlns:xlink="http://www.w3.org/1999/xlink" x="0px" y="0px"
	 width="612px" height="792px" viewBox="0 0 612 792" enable-background="new 0 0 612 792" xml:space="preserve">
<g>
	<g>
		<path fill="#79291C" d="M274.554,394.794c0,25.577-23.464,46.307-52.418,46.307c-28.957,0-52.418-20.73-52.418-46.307
			c0-25.574,23.461-46.308,52.418-46.308C251.09,348.486,274.554,369.221,274.554,394.794z"/>
		
			<radialGradient id="SVGID_1_" cx="167.3604" cy="348.7812" r="146.5262" gradientTransform="matrix(0.961 0 0 0.6635 11.0332 122.1885)" gradientUnits="userSpaceOnUse">
			<stop  offset="0.1966" style="stop-color:#E19C5C"/>
			<stop  offset="1" style="stop-color:#9E583F"/>
		</radialGradient>
		<path fill="url(#SVGID_1_)" d="M271.161,394.316c0,23.92-21.945,43.309-49.025,43.309c-27.084,0-49.026-19.389-49.026-43.309
			c0-23.919,21.942-43.312,49.026-43.312C249.216,351.004,271.161,370.397,271.161,394.316z"/>
	</g>
	<g>
		<path fill="#79291C" d="M212.669,441.601l0.413,3.966c1.271,12.214-0.312,25.795-4.71,40.367
			c-1.076,3.563-0.429,7.547,1.688,10.398c1.991,2.679,5.13,4.155,8.84,4.155c1.435,0,2.634-0.59,3.697-1.517
			c1.062,0.927,2.262,1.517,3.696,1.517c3.712,0,6.852-1.477,8.841-4.155c2.118-2.852,2.764-6.835,1.688-10.399
			c-4.397-14.573-5.982-28.155-4.709-40.366l0.414-3.966H212.669z"/>
		<radialGradient id="SVGID_2_" cx="221.3564" cy="468.0361" r="42.3393" gradientUnits="userSpaceOnUse">
			<stop  offset="0.1966" style="stop-color:#B80A3C"/>
			<stop  offset="0.6236" style="stop-color:#F47B20"/>
		</radialGradient>
		<path fill="url(#SVGID_2_)" d="M228.54,445.194h-11.884c1.062,10.202,0.479,24.136-4.844,41.776
			c-1.174,3.891,0.472,9.923,7.088,9.923c1.776,0,2.95-2.229,3.697-5.646c0.748,3.416,1.921,5.646,3.696,5.646
			c6.618,0,8.264-6.032,7.089-9.923C228.06,469.33,227.477,455.396,228.54,445.194z"/>
	</g>
	<path fill="#79291C" d="M212.316,364.326c-10.579-2.538-25.573,2.496-32.348,15.313l0,0c-6.968,13.18-5.534,23.613,3.938,28.624
		c9.888,5.226,22.198-0.89,28.767-13.315c5.204-9.841,8.025-20.075,5.415-25.854C216.948,366.575,215.009,364.971,212.316,364.326z"
		/>
	
		<radialGradient id="SVGID_3_" cx="202.4404" cy="328.4146" r="39.9334" gradientTransform="matrix(0.9724 0.2332 -0.2332 0.9724 79.9878 5.9336)" gradientUnits="userSpaceOnUse">
		<stop  offset="0.4045" style="stop-color:#FFFFFF"/>
		<stop  offset="0.6573" style="stop-color:#DDD1C2"/>
		<stop  offset="0.8202" style="stop-color:#E8DDD8"/>
	</radialGradient>
	<path fill="url(#SVGID_3_)" d="M210.331,367.161c-9.213-2.21-22.27,2.175-28.169,13.336l0,0
		c-6.068,11.477-4.819,20.562,3.429,24.925c8.61,4.551,19.33-0.775,25.051-11.594c4.531-8.57,6.987-17.482,4.714-22.514
		C214.363,369.121,212.674,367.724,210.331,367.161z"/>
	<g>
		<path fill="#0092C8" d="M208.756,386.894c-1.691,7.054-8.04,11.598-14.146,10.134c-6.11-1.465-9.706-8.396-8.015-15.45
			c1.692-7.054,8.041-11.599,14.15-10.132C206.852,372.911,210.448,379.84,208.756,386.894z"/>
		
			<radialGradient id="SVGID_4_" cx="369.8477" cy="340.4204" r="11.1025" gradientTransform="matrix(-0.9724 -0.2332 -0.2332 0.9724 636.7227 139.4692)" gradientUnits="userSpaceOnUse">
			<stop  offset="0.4494" style="stop-color:#B9E5FB"/>
			<stop  offset="0.9944" style="stop-color:#00AEEF"/>
		</radialGradient>
		<path fill="url(#SVGID_4_)" d="M187.768,381.86c-1.539,6.416,1.65,12.681,7.124,13.994c5.469,1.312,11.151-2.826,12.69-9.241
			c1.539-6.416-1.648-12.682-7.118-13.993C194.991,371.307,189.307,375.445,187.768,381.86z"/>
		<circle cx="198.206" cy="383.909" r="5.345"/>
		<circle fill="#FFFFFF" cx="200.299" cy="382.732" r="1.697"/>
	</g>
	<path fill="#79291C" d="M231.991,364.326c10.579-2.538,25.574,2.496,32.348,15.313l0,0c6.969,13.18,5.534,23.613-3.938,28.624
		c-9.888,5.226-22.198-0.89-28.767-13.315c-5.204-9.841-8.025-20.075-5.415-25.854C227.359,366.575,229.298,364.971,231.991,364.326
		z"/>
	
		<radialGradient id="SVGID_5_" cx="-199.0215" cy="424.708" r="39.9339" gradientTransform="matrix(-0.9724 0.2332 0.2332 0.9724 -48.5293 5.9336)" gradientUnits="userSpaceOnUse">
		<stop  offset="0.4045" style="stop-color:#FFFFFF"/>
		<stop  offset="0.6573" style="stop-color:#DDD1C2"/>
		<stop  offset="0.8202" style="stop-color:#E8DDD8"/>
	</radialGradient>
	<path fill="url(#SVGID_5_)" d="M233.977,367.161c9.213-2.21,22.27,2.175,28.169,13.336l0,0c6.068,11.477,4.819,20.562-3.429,24.925
		c-8.609,4.551-19.33-0.775-25.051-11.594c-4.531-8.57-6.987-17.482-4.714-22.514C229.944,369.121,231.633,367.724,233.977,367.161z
		"/>
	<path fill="#0092C8" d="M235.551,386.894c1.691,7.054,8.04,11.598,14.147,10.134c6.11-1.465,9.706-8.396,8.015-15.45
		c-1.692-7.054-8.041-11.599-14.151-10.132C237.455,372.911,233.859,379.84,235.551,386.894z"/>
	
		<radialGradient id="SVGID_6_" cx="771.3096" cy="436.7129" r="11.1023" gradientTransform="matrix(0.9724 -0.2332 0.2332 0.9724 -605.2637 139.4692)" gradientUnits="userSpaceOnUse">
		<stop  offset="0.4494" style="stop-color:#B9E5FB"/>
		<stop  offset="0.9944" style="stop-color:#00AEEF"/>
	</radialGradient>
	<path fill="url(#SVGID_6_)" d="M256.539,381.86c1.539,6.416-1.649,12.681-7.123,13.994c-5.469,1.312-11.152-2.826-12.691-9.241
		c-1.539-6.416,1.648-12.682,7.118-13.993C249.316,371.307,255.001,375.445,256.539,381.86z"/>
	<circle cx="246.101" cy="383.909" r="5.345"/>
	<circle fill="#FFFFFF" cx="248.012" cy="382.732" r="1.697"/>
	<path fill="#79291C" d="M181.897,431.109c0,6.85,7.047,12.421,15.708,12.421c8.661,0,15.708-5.571,15.708-12.421
		c0-6.848-7.047-12.42-15.708-12.42C188.944,418.689,181.897,424.262,181.897,431.109z"/>
	<path fill="#79291C" d="M183.095,431.109c0,6.189,6.509,11.223,14.511,11.223c8.001,0,14.51-5.033,14.51-11.223
		c0-6.188-6.509-11.222-14.51-11.222C189.604,419.888,183.095,424.922,183.095,431.109z"/>
	
		<radialGradient id="SVGID_7_" cx="184.3364" cy="449.6377" r="35.8131" gradientTransform="matrix(1.0809 0 0 0.6635 -16.4707 122.1885)" gradientUnits="userSpaceOnUse">
		<stop  offset="0.1966" style="stop-color:#E19C5C"/>
		<stop  offset="1" style="stop-color:#9E583F"/>
	</radialGradient>
	<ellipse fill="url(#SVGID_7_)" cx="196.596" cy="430.474" rx="13.477" ry="10.585"/>
	<path fill="#79291C" d="M230.831,431.109c0,6.85,7.047,12.421,15.708,12.421c8.662,0,15.708-5.571,15.708-12.421
		c0-6.848-7.047-12.42-15.708-12.42C237.877,418.689,230.831,424.262,230.831,431.109z"/>
	<path fill="#79291C" d="M232.028,431.109c0,6.189,6.51,11.223,14.51,11.223c8,0,14.51-5.033,14.51-11.223
		c0-6.188-6.51-11.222-14.51-11.222C238.539,419.888,232.028,424.922,232.028,431.109z"/>
	
		<radialGradient id="SVGID_8_" cx="256.0469" cy="451.5312" r="39.3582" gradientTransform="matrix(1.0809 0 0 0.6635 -21.333 122.1885)" gradientUnits="userSpaceOnUse">
		<stop  offset="0.1966" style="stop-color:#E19C5C"/>
		<stop  offset="1" style="stop-color:#9E583F"/>
	</radialGradient>
	<ellipse fill="url(#SVGID_8_)" cx="247.548" cy="430.474" rx="13.478" ry="10.585"/>
	<g>
		<g>
			<path fill="#79291C" d="M231.494,422.264c-0.159,0.092-3.891,2.236-8.365,2.236h-1.062c-4.476,0-8.209-2.146-8.366-2.237
				l-2.024-1.21l0,21.477c-0.003,0.54,0.019,5.497,1.879,9.91c1.826,4.332,4.689,6.53,8.512,6.53h1.062
				c3.822,0,6.686-2.198,8.513-6.53c1.903-4.52,1.88-9.732,1.879-9.952v-21.435C233.52,421.053,231.504,422.258,231.494,422.264z"/>
			<path fill="#79291C" d="M231.854,423.455c-0.04,0.023-3.971,2.339-8.726,2.339h-1.062c-4.753,0-8.686-2.315-8.725-2.339
				l-0.74-0.441l0,19.516c-0.001,0.18-0.021,5.049,1.751,9.252c1.648,3.913,4.244,5.896,7.714,5.896h1.062
				c3.47,0,6.065-1.983,7.714-5.896c1.772-4.203,1.753-9.072,1.751-9.277v-19.49L231.854,423.455z"/>
			<path fill="#FFC709" d="M223.128,427.863h-1.062c-4.03,0-7.479-1.625-8.576-2.201c0,1.574,0,16.872,0,16.877
				c0,0.211,0.021,4.312,1.506,7.817c1.476,3.485,3.855,5.253,7.07,5.253h1.062c3.216,0,5.594-1.768,7.069-5.253
				c1.486-3.508,1.507-7.614,1.507-7.808c0-0.004,0-15.312,0-16.887C230.607,426.238,227.159,427.863,223.128,427.863z"/>
			<g>
				<path fill="#FFC709" d="M217.869,435.1c2.034,0,7.424,0,9.457,0c1.811,0,3.243-0.592,4.379-1.566v-7.871
					c-1.098,0.576-4.546,2.201-8.576,2.201h-1.062c-4.03,0-7.479-1.625-8.576-2.201v7.871
					C214.625,434.508,216.059,435.1,217.869,435.1z"/>
				<path fill="#FFC60A" d="M217.869,435.063c2.034,0,7.424,0,9.457,0c1.811,0,3.243-0.592,4.378-1.566v-7.835
					c-1.098,0.576-4.546,2.201-8.576,2.201h-1.062c-4.03,0-7.479-1.625-8.576-2.201v7.835
					C214.625,434.472,216.059,435.063,217.869,435.063z"/>
				<path fill="#FFC50A" d="M217.869,435.028c2.034,0,7.424,0,9.457,0c1.811,0,3.243-0.592,4.379-1.566v-7.8
					c-1.098,0.576-4.546,2.201-8.576,2.201h-1.062c-4.03,0-7.479-1.625-8.576-2.201v7.8
					C214.625,434.437,216.059,435.028,217.869,435.028z"/>
				<path fill="#FEC40B" d="M217.87,434.992c2.033,0,7.423,0,9.457,0c1.811,0,3.242-0.591,4.379-1.565v-7.765
					c-1.098,0.576-4.546,2.201-8.577,2.201h-1.062c-4.031,0-7.479-1.625-8.576-2.201v7.765
					C214.625,434.401,216.059,434.992,217.87,434.992z"/>
				<path fill="#FDC30C" d="M217.869,434.957c2.033,0,7.424,0,9.456,0c1.812,0,3.243-0.592,4.379-1.566v-7.729
					c-1.098,0.576-4.546,2.201-8.576,2.201h-1.062c-4.03,0-7.479-1.625-8.576-2.201v7.729
					C214.625,434.365,216.059,434.957,217.869,434.957z"/>
				<path fill="#FDC20C" d="M217.869,434.921c2.034,0,7.424,0,9.457,0c1.811,0,3.243-0.592,4.379-1.565v-7.693
					c-1.098,0.576-4.546,2.201-8.577,2.201h-1.062c-4.031,0-7.479-1.625-8.576-2.201v7.693
					C214.625,434.329,216.059,434.921,217.869,434.921z"/>
				<path fill="#FCC10D" d="M217.869,434.886c2.034,0,7.424,0,9.457,0c1.811,0,3.243-0.592,4.379-1.566v-7.657
					c-1.098,0.576-4.546,2.201-8.576,2.201h-1.062c-4.03,0-7.479-1.625-8.576-2.201v7.657
					C214.625,434.294,216.059,434.886,217.869,434.886z"/>
				<path fill="#FCC00E" d="M217.869,434.851c2.034,0,7.424,0,9.457,0c1.811,0,3.242-0.592,4.378-1.566v-7.622
					c-1.098,0.576-4.546,2.201-8.576,2.201h-1.062c-4.03,0-7.479-1.625-8.576-2.201v7.622
					C214.625,434.259,216.059,434.851,217.869,434.851z"/>
				<path fill="#FBBF0E" d="M217.87,434.814c2.033,0,7.424,0,9.457,0c1.811,0,3.243-0.592,4.378-1.565v-7.587
					c-1.097,0.576-4.545,2.201-8.576,2.201h-1.062c-4.03,0-7.479-1.625-8.576-2.201v7.587
					C214.626,434.223,216.059,434.814,217.87,434.814z"/>
				<path fill="#FBBE0F" d="M217.869,434.778c2.033,0,7.424,0,9.456,0c1.812,0,3.243-0.591,4.379-1.565v-7.551
					c-1.098,0.576-4.546,2.201-8.577,2.201h-1.062c-4.03,0-7.479-1.625-8.576-2.201v7.551
					C214.625,434.188,216.059,434.778,217.869,434.778z"/>
				<path fill="#FBBD0F" d="M217.869,434.743c2.034,0,7.424,0,9.457,0c1.811,0,3.243-0.592,4.379-1.566v-7.515
					c-1.098,0.576-4.546,2.201-8.576,2.201h-1.062c-4.03,0-7.479-1.625-8.576-2.201v7.515
					C214.625,434.151,216.059,434.743,217.869,434.743z"/>
				<path fill="#FABD0F" d="M217.869,434.708c2.034,0,7.424,0,9.457,0c1.811,0,3.243-0.592,4.379-1.566v-7.479
					c-1.097,0.576-4.545,2.201-8.576,2.201h-1.062c-4.03,0-7.479-1.625-8.576-2.201v7.479
					C214.626,434.116,216.059,434.708,217.869,434.708z"/>
				<path fill="#FABC10" d="M217.869,434.672c2.034,0,7.424,0,9.457,0c1.812,0,3.243-0.592,4.379-1.566v-7.443
					c-1.098,0.576-4.546,2.201-8.576,2.201h-1.062c-4.031,0-7.479-1.625-8.576-2.201v7.443
					C214.625,434.08,216.059,434.672,217.869,434.672z"/>
				<path fill="#F9BB10" d="M217.869,434.637c2.033,0,7.424,0,9.457,0c1.811,0,3.243-0.592,4.378-1.566v-7.408
					c-1.097,0.576-4.546,2.201-8.576,2.201h-1.062c-4.03,0-7.479-1.625-8.576-2.201v7.408
					C214.625,434.045,216.059,434.637,217.869,434.637z"/>
				<path fill="#F9BA11" d="M217.869,434.601c2.034,0,7.424,0,9.457,0c1.811,0,3.242-0.592,4.379-1.566v-7.372
					c-1.098,0.576-4.546,2.201-8.576,2.201h-1.062c-4.03,0-7.479-1.625-8.576-2.201v7.372
					C214.625,434.009,216.059,434.601,217.869,434.601z"/>
				<path fill="#F8B911" d="M217.869,434.565c2.034,0,7.424,0,9.457,0c1.811,0,3.243-0.592,4.379-1.566v-7.337
					c-1.098,0.576-4.546,2.201-8.577,2.201h-1.062c-4.03,0-7.479-1.625-8.576-2.201v7.337
					C214.625,433.974,216.059,434.565,217.869,434.565z"/>
				<path fill="#F8B811" d="M217.869,434.53c2.034,0,7.424,0,9.457,0c1.811,0,3.242-0.593,4.379-1.566v-7.302
					c-1.098,0.576-4.546,2.201-8.576,2.201h-1.062c-4.03,0-7.479-1.625-8.576-2.201v7.302
					C214.625,433.938,216.059,434.53,217.869,434.53z"/>
				<path fill="#F8B712" d="M217.869,434.494c2.033,0,7.424,0,9.457,0c1.811,0,3.243-0.592,4.379-1.566v-7.266
					c-1.098,0.576-4.546,2.201-8.576,2.201h-1.062c-4.03,0-7.479-1.625-8.576-2.201v7.266
					C214.625,433.902,216.059,434.494,217.869,434.494z"/>
				<path fill="#F7B612" d="M217.869,434.458c2.033,0,7.423,0,9.456,0c1.812,0,3.243-0.591,4.379-1.566v-7.229
					c-1.098,0.576-4.546,2.201-8.576,2.201h-1.062c-4.03,0-7.479-1.625-8.576-2.201v7.229
					C214.625,433.867,216.059,434.458,217.869,434.458z"/>
				<path fill="#F7B513" d="M217.869,434.423c2.033,0,7.424,0,9.457,0c1.811,0,3.242-0.592,4.378-1.566v-7.194
					c-1.098,0.576-4.546,2.201-8.576,2.201h-1.062c-4.03,0-7.479-1.625-8.576-2.201v7.194
					C214.625,433.831,216.059,434.423,217.869,434.423z"/>
				<path fill="#F7B413" d="M217.869,434.388c2.034,0,7.424,0,9.457,0c1.811,0,3.243-0.592,4.379-1.566v-7.159
					c-1.098,0.576-4.546,2.201-8.577,2.201h-1.062c-4.03,0-7.479-1.625-8.576-2.201v7.159
					C214.626,433.796,216.059,434.388,217.869,434.388z"/>
				<path fill="#F6B413" d="M217.869,434.352c2.033,0,7.424,0,9.456,0c1.812,0,3.243-0.592,4.379-1.566v-7.123
					c-1.098,0.576-4.546,2.201-8.576,2.201h-1.062c-4.03,0-7.479-1.625-8.576-2.201v7.123
					C214.625,433.76,216.059,434.352,217.869,434.352z"/>
				<path fill="#F6B313" d="M217.869,434.315c2.034,0,7.424,0,9.457,0c1.812,0,3.243-0.591,4.379-1.565v-7.088
					c-1.097,0.576-4.545,2.201-8.576,2.201h-1.062c-4.03,0-7.479-1.625-8.576-2.201v7.088
					C214.625,433.725,216.059,434.315,217.869,434.315z"/>
				<path fill="#F6B214" d="M217.869,434.28c2.033,0,7.424,0,9.457,0c1.811,0,3.243-0.591,4.379-1.566v-7.052
					c-1.098,0.576-4.546,2.201-8.576,2.201h-1.062c-4.03,0-7.479-1.625-8.576-2.201v7.052
					C214.625,433.689,216.059,434.28,217.869,434.28z"/>
				<path fill="#F5B114" d="M217.87,434.245c2.033,0,7.423,0,9.457,0c1.811,0,3.242-0.592,4.378-1.566v-7.017
					c-1.097,0.576-4.545,2.201-8.576,2.201h-1.062c-4.03,0-7.479-1.625-8.576-2.201v7.017
					C214.626,433.653,216.059,434.245,217.87,434.245z"/>
				<path fill="#F5B014" d="M217.869,434.209c2.033,0,7.424,0,9.457,0c1.811,0,3.242-0.592,4.378-1.566v-6.98
					c-1.097,0.576-4.545,2.201-8.576,2.201h-1.062c-4.03,0-7.479-1.625-8.576-2.201v6.98
					C214.626,433.617,216.059,434.209,217.869,434.209z"/>
				<path fill="#F4AF15" d="M217.869,434.174c2.033,0,7.424,0,9.456,0c1.812,0,3.243-0.592,4.379-1.566v-6.945
					c-1.098,0.576-4.546,2.201-8.577,2.201h-1.062c-4.03,0-7.479-1.625-8.576-2.201v6.945
					C214.625,433.582,216.059,434.174,217.869,434.174z"/>
				<path fill="#F4AE15" d="M217.869,434.138c2.034,0,7.424,0,9.456,0c1.812,0,3.243-0.591,4.379-1.566v-6.909
					c-1.098,0.576-4.546,2.201-8.576,2.201h-1.062c-4.03,0-7.479-1.625-8.576-2.201v6.909
					C214.625,433.547,216.059,434.138,217.869,434.138z"/>
				<path fill="#F4AD15" d="M217.869,434.103c2.034,0,7.424,0,9.457,0c1.811,0,3.242-0.592,4.379-1.566v-6.874
					c-1.098,0.576-4.546,2.201-8.576,2.201h-1.062c-4.03,0-7.479-1.625-8.576-2.201v6.874
					C214.626,433.511,216.059,434.103,217.869,434.103z"/>
				<path fill="#F3AD15" d="M217.869,434.066c2.034,0,7.424,0,9.457,0c1.811,0,3.243-0.592,4.379-1.565v-6.839
					c-1.097,0.576-4.546,2.201-8.576,2.201h-1.062c-4.03,0-7.479-1.625-8.576-2.201v6.839
					C214.625,433.475,216.059,434.066,217.869,434.066z"/>
				<path fill="#F3AC16" d="M217.869,434.03c2.034,0,7.424,0,9.456,0c1.812,0,3.243-0.591,4.379-1.565v-6.803
					c-1.098,0.576-4.546,2.201-8.576,2.201h-1.062c-4.031,0-7.479-1.625-8.576-2.201v6.803
					C214.625,433.439,216.059,434.03,217.869,434.03z"/>
				<path fill="#F3AB16" d="M217.869,433.995c2.034,0,7.424,0,9.457,0c1.811,0,3.243-0.591,4.379-1.565v-6.768
					c-1.098,0.576-4.546,2.201-8.576,2.201h-1.062c-4.03,0-7.479-1.625-8.576-2.201v6.768
					C214.625,433.404,216.059,433.995,217.869,433.995z"/>
				<path fill="#F2AA16" d="M217.869,433.96c2.033,0,7.424,0,9.457,0c1.811,0,3.242-0.592,4.378-1.566v-6.731
					c-1.097,0.576-4.545,2.201-8.576,2.201h-1.062c-4.03,0-7.479-1.625-8.576-2.201v6.731
					C214.625,433.368,216.059,433.96,217.869,433.96z"/>
				<path fill="#F2A916" d="M217.869,433.924c2.033,0,7.424,0,9.457,0c1.811,0,3.243-0.592,4.379-1.565v-6.696
					c-1.097,0.576-4.545,2.201-8.577,2.201h-1.062c-4.03,0-7.479-1.625-8.576-2.201v6.696
					C214.626,433.332,216.059,433.924,217.869,433.924z"/>
				<path fill="#F2A817" d="M217.869,433.889c2.033,0,7.424,0,9.457,0c1.811,0,3.243-0.592,4.379-1.566v-6.66
					c-1.098,0.576-4.546,2.201-8.576,2.201h-1.062c-4.03,0-7.479-1.625-8.576-2.201v6.66
					C214.625,433.297,216.059,433.889,217.869,433.889z"/>
				<path fill="#F1A817" d="M217.869,433.853c2.033,0,7.424,0,9.457,0c1.811,0,3.243-0.591,4.379-1.565v-6.625
					c-1.098,0.576-4.546,2.201-8.576,2.201h-1.062c-4.03,0-7.479-1.625-8.576-2.201v6.625
					C214.625,433.262,216.059,433.853,217.869,433.853z"/>
				<path fill="#F1A717" d="M217.869,433.817c2.033,0,7.424,0,9.456,0c1.812,0,3.243-0.592,4.38-1.566v-6.589
					c-1.099,0.576-4.546,2.201-8.577,2.201h-1.062c-4.03,0-7.479-1.625-8.576-2.201v6.589
					C214.626,433.226,216.059,433.817,217.869,433.817z"/>
				<path fill="#F1A617" d="M217.869,433.781c2.033,0,7.424,0,9.457,0c1.811,0,3.242-0.592,4.378-1.565v-6.554
					c-1.097,0.576-4.546,2.201-8.575,2.201h-1.062c-4.03,0-7.479-1.625-8.576-2.201v6.554
					C214.625,433.189,216.059,433.781,217.869,433.781z"/>
				<path fill="#F0A517" d="M217.869,433.746c2.033,0,7.424,0,9.457,0c1.811,0,3.242-0.592,4.378-1.566v-6.518
					c-1.098,0.576-4.546,2.201-8.576,2.201h-1.062c-4.03,0-7.479-1.625-8.576-2.201v6.518
					C214.625,433.154,216.059,433.746,217.869,433.746z"/>
				<path fill="#F0A418" d="M217.869,433.71c2.033,0,7.424,0,9.457,0c1.811,0,3.243-0.591,4.379-1.565v-6.482
					c-1.098,0.576-4.545,2.201-8.576,2.201h-1.062c-4.03,0-7.479-1.625-8.576-2.201v6.482
					C214.626,433.119,216.059,433.71,217.869,433.71z"/>
				<path fill="#F0A318" d="M217.869,433.675c2.033,0,7.424,0,9.457,0c1.811,0,3.243-0.592,4.379-1.565v-6.447
					c-1.097,0.576-4.546,2.201-8.576,2.201h-1.062c-4.03,0-7.479-1.625-8.576-2.201v6.447
					C214.625,433.083,216.059,433.675,217.869,433.675z"/>
				<path fill="#F0A318" d="M217.869,433.639c2.033,0,7.424,0,9.457,0c1.811,0,3.243-0.591,4.379-1.566v-6.41
					c-1.098,0.576-4.546,2.201-8.577,2.201h-1.062c-4.03,0-7.479-1.625-8.576-2.201v6.41
					C214.625,433.048,216.059,433.639,217.869,433.639z"/>
				<path fill="#EFA218" d="M217.869,433.604c2.033,0,7.424,0,9.456,0c1.812,0,3.243-0.592,4.38-1.566v-6.375
					c-1.098,0.576-4.546,2.201-8.577,2.201h-1.062c-4.03,0-7.479-1.625-8.576-2.201v6.375
					C214.626,433.012,216.059,433.604,217.869,433.604z"/>
				<path fill="#EFA118" d="M217.869,433.568c2.033,0,7.424,0,9.457,0c1.811,0,3.242-0.592,4.378-1.566v-6.34
					c-1.097,0.576-4.546,2.201-8.576,2.201h-1.062c-4.03,0-7.479-1.625-8.576-2.201v6.34
					C214.625,432.977,216.059,433.568,217.869,433.568z"/>
				<path fill="#EFA018" d="M217.869,433.532c2.034,0,7.424,0,9.457,0c1.811,0,3.243-0.592,4.379-1.565v-6.305
					c-1.098,0.576-4.546,2.201-8.577,2.201h-1.062c-4.03,0-7.479-1.625-8.576-2.201v6.305
					C214.625,432.94,216.059,433.532,217.869,433.532z"/>
				<path fill="#EE9F19" d="M217.869,433.496c2.034,0,7.424,0,9.457,0c1.811,0,3.243-0.591,4.379-1.565v-6.269
					c-1.098,0.576-4.545,2.201-8.576,2.201h-1.062c-4.03,0-7.479-1.625-8.576-2.201v6.269
					C214.626,432.905,216.059,433.496,217.869,433.496z"/>
				<path fill="#EE9F19" d="M217.869,433.461c2.034,0,7.424,0,9.457,0c1.811,0,3.243-0.591,4.379-1.565v-6.233
					c-1.098,0.576-4.546,2.201-8.577,2.201h-1.062c-4.03,0-7.479-1.625-8.576-2.201v6.233
					C214.625,432.87,216.059,433.461,217.869,433.461z"/>
				<path fill="#EE9E19" d="M217.869,433.425c2.034,0,7.424,0,9.457,0c1.811,0,3.243-0.591,4.379-1.565v-6.197
					c-1.098,0.576-4.546,2.201-8.576,2.201h-1.062c-4.03,0-7.479-1.625-8.576-2.201v6.197
					C214.625,432.834,216.059,433.425,217.869,433.425z"/>
				<path fill="#ED9D19" d="M217.869,433.39c2.034,0,7.424,0,9.456,0c1.812,0,3.243-0.591,4.379-1.566v-6.161
					c-1.097,0.576-4.545,2.201-8.575,2.201h-1.062c-4.03,0-7.479-1.625-8.576-2.201v6.161
					C214.625,432.799,216.059,433.39,217.869,433.39z"/>
				<path fill="#ED9C19" d="M217.869,433.354c2.034,0,7.424,0,9.457,0c1.811,0,3.243-0.591,4.379-1.565v-6.126
					c-1.098,0.576-4.546,2.201-8.576,2.201h-1.062c-4.03,0-7.479-1.625-8.576-2.201v6.126
					C214.625,432.763,216.059,433.354,217.869,433.354z"/>
				<path fill="#ED9B19" d="M217.869,433.318c2.034,0,7.424,0,9.457,0c1.811,0,3.243-0.591,4.379-1.565v-6.091
					c-1.098,0.576-4.546,2.201-8.576,2.201h-1.062c-4.03,0-7.479-1.625-8.576-2.201v6.091
					C214.625,432.728,216.059,433.318,217.869,433.318z"/>
				<path fill="#ED9B19" d="M217.869,433.282c2.034,0,7.424,0,9.457,0c1.811,0,3.243-0.591,4.379-1.565v-6.055
					c-1.098,0.576-4.546,2.201-8.576,2.201h-1.062c-4.03,0-7.479-1.625-8.576-2.201v6.055
					C214.625,432.691,216.059,433.282,217.869,433.282z"/>
				<path fill="#EC9A19" d="M217.869,433.247c2.034,0,7.424,0,9.457,0c1.811,0,3.243-0.591,4.379-1.565v-6.02
					c-1.098,0.576-4.546,2.201-8.576,2.201h-1.062c-4.03,0-7.479-1.625-8.576-2.201v6.02
					C214.625,432.656,216.059,433.247,217.869,433.247z"/>
				<path fill="#EC991A" d="M217.869,433.211c2.034,0,7.424,0,9.456,0c1.812,0,3.243-0.591,4.38-1.565v-5.983
					c-1.098,0.576-4.546,2.201-8.577,2.201h-1.062c-4.03,0-7.479-1.625-8.576-2.201v5.983
					C214.625,432.62,216.059,433.211,217.869,433.211z"/>
				<path fill="#EC981A" d="M217.869,433.176c2.034,0,7.424,0,9.457,0c1.811,0,3.242-0.591,4.378-1.565v-5.948
					c-1.098,0.576-4.545,2.201-8.576,2.201h-1.062c-4.03,0-7.479-1.625-8.576-2.201v5.948
					C214.625,432.585,216.059,433.176,217.869,433.176z"/>
				<path fill="#EB971A" d="M217.869,433.14c2.034,0,7.424,0,9.457,0c1.811,0,3.243-0.591,4.379-1.565v-5.912
					c-1.098,0.576-4.546,2.201-8.576,2.201h-1.062c-4.03,0-7.479-1.625-8.576-2.201v5.912
					C214.625,432.549,216.059,433.14,217.869,433.14z"/>
				<path fill="#EB971A" d="M217.869,433.104c2.034,0,7.424,0,9.457,0c1.811,0,3.243-0.591,4.379-1.565v-5.877
					c-1.098,0.576-4.546,2.201-8.576,2.201h-1.062c-4.03,0-7.479-1.625-8.576-2.201v5.877
					C214.625,432.514,216.059,433.104,217.869,433.104z"/>
				<path fill="#EB961A" d="M217.869,433.068c2.034,0,7.424,0,9.457,0c1.811,0,3.243-0.591,4.379-1.565v-5.841
					c-1.098,0.576-4.546,2.201-8.576,2.201h-1.062c-4.03,0-7.479-1.625-8.576-2.201v5.841
					C214.625,432.478,216.059,433.068,217.869,433.068z"/>
				<path fill="#EA951A" d="M217.869,433.033c2.034,0,7.424,0,9.457,0c1.811,0,3.243-0.591,4.379-1.565v-5.806
					c-1.098,0.576-4.546,2.201-8.576,2.201h-1.062c-4.03,0-7.479-1.625-8.576-2.201v5.806
					C214.625,432.442,216.059,433.033,217.869,433.033z"/>
				<path fill="#EA941A" d="M217.869,432.997c2.034,0,7.424,0,9.457,0c1.811,0,3.243-0.591,4.379-1.565v-5.77
					c-1.098,0.576-4.546,2.201-8.577,2.201h-1.062c-4.03,0-7.479-1.625-8.576-2.201v5.77
					C214.625,432.406,216.059,432.997,217.869,432.997z"/>
				<path fill="#EA931A" d="M217.869,432.962c2.034,0,7.424,0,9.457,0c1.811,0,3.243-0.591,4.379-1.565v-5.734
					c-1.098,0.576-4.546,2.201-8.576,2.201h-1.062c-4.03,0-7.479-1.625-8.576-2.201v5.734
					C214.625,432.371,216.059,432.962,217.869,432.962z"/>
				<path fill="#EA931A" d="M217.869,432.926c2.034,0,7.424,0,9.457,0c1.811,0,3.243-0.591,4.379-1.565v-5.698
					c-1.098,0.576-4.546,2.201-8.576,2.201h-1.062c-4.03,0-7.479-1.625-8.576-2.201v5.698
					C214.625,432.335,216.059,432.926,217.869,432.926z"/>
				<path fill="#E9921A" d="M222.066,427.863c-4.03,0-7.479-1.625-8.576-2.201v5.663c1.135,0.975,2.568,1.565,4.379,1.565
					c2.034,0,7.424,0,9.457,0c1.811,0,3.243-0.591,4.379-1.565v-5.663c-1.098,0.576-4.546,2.201-8.576,2.201H222.066z"/>
			</g>
		</g>
		<g>
			<path fill="#79291C" d="M222.009,390.748c-1.911,0-15.263,14.633-15.263,23.87c0,10.359,1.333,15.619,8.617,15.619h14.472
				c7.286,0,8.614-5.26,8.614-15.619c0-9.236-13.351-23.87-15.262-23.87H222.009z"/>
			
				<radialGradient id="SVGID_9_" cx="197.666" cy="385.8721" r="30.6694" gradientTransform="matrix(0.7476 0 0 1.3966 73.4355 -153.1328)" gradientUnits="userSpaceOnUse">
				<stop  offset="0.1348" style="stop-color:#FFE079"/>
				<stop  offset="0.2047" style="stop-color:#FFDE72"/>
				<stop  offset="0.3167" style="stop-color:#FFD85B"/>
				<stop  offset="0.4561" style="stop-color:#FFCE30"/>
				<stop  offset="0.5337" style="stop-color:#FFC709"/>
				<stop  offset="0.6053" style="stop-color:#F5BA0F"/>
				<stop  offset="0.7198" style="stop-color:#E19E15"/>
				<stop  offset="0.7247" style="stop-color:#E09D15"/>
				<stop  offset="0.9719" style="stop-color:#FFC709"/>
			</radialGradient>
			<path fill="url(#SVGID_9_)" d="M222.017,393.981c-1.71,0.229-13.886,13.407-13.886,20.269c0,8.628,0.684,12.41,7.232,12.41
				h14.472c6.546,0,7.232-3.782,7.232-12.41c0-6.846-12.18-20.039-13.888-20.27C223.179,393.98,222.032,393.981,222.017,393.981z"/>
		</g>
		<g>
			<path fill="#79291C" d="M216.978,404.421c0,0.829,0.651,2.855,1.504,2.855c0.854,0,1.505-2.026,1.505-2.855
				c0-1.278-0.375-1.874-1.505-1.874C217.732,402.547,216.978,403.143,216.978,404.421z"/>
			<path fill="#79291C" d="M225.208,404.421c0,0.829,0.652,2.855,1.504,2.855c0.854,0,1.504-2.026,1.504-2.855
				c0-1.278-0.375-1.874-1.504-1.874C225.962,402.547,225.208,403.143,225.208,404.421z"/>
		</g>
	</g>
</g>
</svg>
