<?xml version="1.0" encoding="utf-8"?>
<!-- Generator: Adobe Illustrator 15.0.0, SVG Export Plug-In . SVG Version: 6.00 Build 0)  -->
<!DOCTYPE svg PUBLIC "-//W3C//DTD SVG 1.1//EN" "http://www.w3.org/Graphics/SVG/1.1/DTD/svg11.dtd">
<svg version="1.1" id="Layer_3" xmlns="http://www.w3.org/2000/svg" xmlns:xlink="http://www.w3.org/1999/xlink" x="0px" y="0px"
	 width="612px" height="792px" viewBox="0 0 612 792" enable-background="new 0 0 612 792" xml:space="preserve">
<g>
	<path fill="#79291B" d="M226.547,316.014L226.547,316.014c-25.947,22.524-40.236,50.924-40.236,79.971
		c0,35.221,7.917,61.273,24.204,79.641c19.693,22.211,51.051,33.006,95.868,33.006c44.813,0,76.172-10.795,95.867-33.004
		c16.287-18.371,24.203-44.424,24.203-79.643c0-29.047-14.289-57.449-40.236-79.971c-23.573-20.461-53.419-32.676-79.834-32.676
		C279.966,283.338,250.121,295.553,226.547,316.014z"/>
	
		<radialGradient id="SVGID_1_" cx="303.9878" cy="342.0908" r="267.782" gradientTransform="matrix(1 0 0 0.7011 0 80.5633)" gradientUnits="userSpaceOnUse">
		<stop  offset="0.1966" style="stop-color:#CA813F"/>
		<stop  offset="0.6742" style="stop-color:#8A5036"/>
		<stop  offset="0.8989" style="stop-color:#A76D48"/>
	</radialGradient>
	<path fill="url(#SVGID_1_)" d="M229.688,319.633c-24.881,21.599-38.585,48.715-38.585,76.352c0,33.996,7.521,59.008,22.998,76.463
		c18.729,21.123,48.915,31.393,92.282,31.393c43.363,0,73.55-10.27,92.283-31.393c15.473-17.455,22.996-42.467,22.996-76.463
		c0-27.637-13.702-54.753-38.586-76.352c-22.728-19.727-51.397-31.504-76.693-31.504
		C281.085,288.129,252.415,299.906,229.688,319.633z"/>
	<g>
		<g>
			<path fill="#79291B" d="M395.266,436.467c-4.691,1.068-9.955-4.098-12.234-11.742c0.094,0.559,0.204,1.117,0.335,1.684
				c2.026,8.727,7.737,14.875,12.753,13.732c5.017-1.143,7.442-9.143,5.421-17.871c-0.131-0.564-0.278-1.115-0.439-1.658
				C402.418,428.475,399.959,435.396,395.266,436.467z"/>
		</g>
		<g>
			<path fill="#79291B" d="M386.148,423.514c-4.607,1.389-10.218-3.398-13.03-10.869c0.134,0.553,0.283,1.105,0.452,1.66
				c2.637,8.564,8.762,14.301,13.687,12.812c4.925-1.482,6.787-9.629,4.153-18.197c-0.171-0.553-0.358-1.096-0.555-1.625
				C392.72,415.047,390.755,422.125,386.148,423.514z"/>
			<path fill="#79291B" d="M403.882,418.164c-4.604,1.389-10.217-3.402-13.026-10.869c0.131,0.551,0.283,1.104,0.451,1.656
				c2.635,8.566,8.762,14.307,13.687,12.818c4.928-1.488,6.785-9.633,4.153-18.201c-0.174-0.555-0.358-1.096-0.56-1.625
				C410.459,409.697,408.491,416.773,403.882,418.164z"/>
		</g>
	</g>
	<g>
		<g>
			<path fill="#79291B" d="M216.557,436.467c4.691,1.068,9.955-4.098,12.234-11.742c-0.094,0.559-0.204,1.117-0.334,1.684
				c-2.026,8.727-7.737,14.875-12.753,13.732s-7.442-9.143-5.421-17.871c0.131-0.564,0.279-1.115,0.44-1.658
				C209.405,428.475,211.864,435.396,216.557,436.467z"/>
		</g>
		<g>
			<path fill="#79291B" d="M225.675,423.514c4.606,1.389,10.217-3.398,13.029-10.869c-0.133,0.553-0.283,1.105-0.451,1.66
				c-2.637,8.564-8.762,14.301-13.687,12.812c-4.925-1.482-6.787-9.629-4.152-18.197c0.17-0.553,0.358-1.096,0.554-1.625
				C219.103,415.047,221.068,422.125,225.675,423.514z"/>
			<path fill="#79291B" d="M207.94,418.164c4.604,1.389,10.217-3.402,13.027-10.869c-0.131,0.551-0.283,1.104-0.452,1.656
				c-2.634,8.566-8.762,14.307-13.687,12.818c-4.927-1.488-6.785-9.633-4.153-18.201c0.173-0.555,0.358-1.096,0.559-1.625
				C201.364,409.697,203.332,416.773,207.94,418.164z"/>
		</g>
	</g>
	<g>
		<path fill="#79291B" d="M343.348,504.135l2.2-2.396c0,0,41.366-19.336,30.162-66.467c-11.202-47.129-37.918-38.066-37.918-38.066
			l-4.31,8.461c0,0-5.17-5.438-9.479-3.021s-9.48,6.646-15.513,4.23h-1.062c-6.032,2.416-11.203-1.814-15.512-4.23
			c-4.309-2.416-9.479,3.021-9.479,3.021l-4.309-8.461c0,0-26.715-9.062-37.918,38.066c-11.203,47.131,30.163,66.467,30.163,66.467
			l13.02,4.316c7.263,0.719,14.924,1.086,22.989,1.086C319.818,507.141,332.144,506.131,343.348,504.135z"/>
		<linearGradient id="SVGID_2_" gradientUnits="userSpaceOnUse" x1="307.96" y1="495.9873" x2="307.96" y2="336.5557">
			<stop  offset="0.1966" style="stop-color:#FDCB8A"/>
			<stop  offset="0.6236" style="stop-color:#FFFFFF"/>
		</linearGradient>
		<path fill="url(#SVGID_2_)" d="M343.616,500.738c0.116-0.127,0.186-0.201,0.186-0.201l0.414-0.195
			c0.354-0.166,30.998-15.043,30.998-49.553c0-4.711-0.57-9.785-1.867-15.24c-5.937-24.975-16.078-33.447-23.541-36.158
			c-4.721-1.715-8.545-1.217-10.137-0.875c-0.63,1.236-5.527,10.848-5.527,10.848l-2.649-2.764
			c-0.824-0.859-3.092-2.691-4.845-2.881c-0.432-0.047-0.765,0.021-1.147,0.236l-1.961,1.162c-3.915,2.375-9.232,5.535-15.485,3.436
			h-0.185c-6.255,2.1-11.573-1.062-15.488-3.438l-1.96-1.16c-0.383-0.215-0.715-0.283-1.147-0.236
			c-1.754,0.189-4.021,2.021-4.845,2.881l-2.648,2.76l-1.598-3.129c0,0-3.297-6.473-3.929-7.713
			c-1.625-0.346-5.506-0.844-10.27,0.922c-7.417,2.75-17.5,11.246-23.41,36.109c-1.296,5.453-1.867,10.529-1.867,15.238
			c0,33.889,29.478,48.807,30.881,49.494c0.13,0.043,2.276,0.754,5.013,1.662c9.14,1.266,19.056,1.896,29.782,1.896
			C320.094,503.84,332.485,502.809,343.616,500.738z"/>
	</g>
	<path fill="#79291B" d="M299.65,443.514c0,0-7.593,8.283-2.763,11.049c4.834,2.758,7.25-0.693,7.25-0.693
		s-0.002,10.699,3.796,9.662c3.795-1.033,5.177-7.244,5.177-7.244s3.453,3.449,5.524,1.727c2.07-1.727-3.108-9.322-3.108-9.322
		s2.073,6.904-0.345,6.213s-5.177-4.143-5.177-4.143s0,8.975-2.071,7.252c-2.071-1.727-2.416-8.631-2.416-8.631
		s-6.903,4.83-6.903,1.379C298.615,447.312,299.65,443.514,299.65,443.514z"/>
</g>
</svg>
