<?xml version="1.0" encoding="UTF-8" standalone="no"?>
<!-- Generator: Adobe Illustrator 15.0.0, SVG Export Plug-In . SVG Version: 6.00 Build 0)  -->

<svg
   xmlns:dc="http://purl.org/dc/elements/1.1/"
   xmlns:cc="http://creativecommons.org/ns#"
   xmlns:rdf="http://www.w3.org/1999/02/22-rdf-syntax-ns#"
   xmlns:svg="http://www.w3.org/2000/svg"
   xmlns="http://www.w3.org/2000/svg"
   xmlns:sodipodi="http://sodipodi.sourceforge.net/DTD/sodipodi-0.dtd"
   xmlns:inkscape="http://www.inkscape.org/namespaces/inkscape"
   version="1.1"
   id="Layer_3"
   x="0px"
   y="0px"
   width="37.333"
   height="59.250954"
   viewBox="0 0 37.333 59.250954"
   enable-background="new 0 0 612 792"
   xml:space="preserve"
   inkscape:version="0.48.3.1 r9886"
   sodipodi:docname="turkey_leg_left.svg"><metadata
   id="metadata4692"><rdf:RDF><cc:Work
       rdf:about=""><dc:format>image/svg+xml</dc:format><dc:type
         rdf:resource="http://purl.org/dc/dcmitype/StillImage" /></cc:Work></rdf:RDF></metadata><defs
   id="defs4690" /><sodipodi:namedview
   pagecolor="#ffffff"
   bordercolor="#666666"
   borderopacity="1"
   objecttolerance="10"
   gridtolerance="10"
   guidetolerance="10"
   inkscape:pageopacity="0"
   inkscape:pageshadow="2"
   inkscape:window-width="1916"
   inkscape:window-height="1177"
   id="namedview4688"
   showgrid="false"
   fit-margin-top="0"
   fit-margin-left="0"
   fit-margin-right="0"
   fit-margin-bottom="0"
   inkscape:zoom="0.2979798"
   inkscape:cx="132.268"
   inkscape:cy="-162.87683"
   inkscape:window-x="0"
   inkscape:window-y="19"
   inkscape:window-maximized="0"
   inkscape:current-layer="Layer_3" />
<g
   id="g4661"
   transform="translate(-173.732,-173.87221)">
	<path
   d="m 206.016,173.879 -0.24,0.012 c -8.264,0.449 -19.58,1.062 -20.353,1.072 -1.287,0.016 -2.534,0.555 -3.419,1.48 -0.864,0.902 -1.338,2.08 -1.338,3.314 0,0.027 0.001,0.131 0.002,0.156 0.133,3.959 0.986,12.713 1.453,17.301 -2.318,0.908 -4.849,2.801 -6.518,6.674 -1.242,2.879 -1.871,6.59 -1.871,11.025 0,2.455 0.2,4.357 0.261,4.881 0.58,4.037 1.975,7.076 4.271,9.355 9.041,8.969 25.583,0.354 30.437,-2.502 1.458,-0.855 2.364,-2.439 2.364,-4.131 v -43.855 c 0,-1.309 -0.545,-2.576 -1.495,-3.477 -0.951,-0.901 -2.246,-1.375 -3.554,-1.305 z"
   id="path4663"
   inkscape:connector-curvature="0"
   style="fill:#79291b" />
	<linearGradient
   id="SVGID_1_"
   gradientUnits="userSpaceOnUse"
   x1="192.3989"
   y1="236.32761"
   x2="192.3989"
   y2="169.5116">
		<stop
   offset="0.1348"
   style="stop-color:#FFE079"
   id="stop4666" />
		<stop
   offset="0.1965"
   style="stop-color:#FFDE70"
   id="stop4668" />
		<stop
   offset="0.2954"
   style="stop-color:#FFD959"
   id="stop4670" />
		<stop
   offset="0.4185"
   style="stop-color:#FFD033"
   id="stop4672" />
		<stop
   offset="0.5337"
   style="stop-color:#FFC609"
   id="stop4674" />
		<stop
   offset="0.594"
   style="stop-color:#F8BD0B"
   id="stop4676" />
		<stop
   offset="0.6903"
   style="stop-color:#E7A612"
   id="stop4678" />
		<stop
   offset="0.7247"
   style="stop-color:#DF9C15"
   id="stop4680" />
		<stop
   offset="0.9719"
   style="stop-color:#FFC609"
   id="stop4682" />
	</linearGradient>
	<path
   d="m 206.274,178.662 c -10.184,0.553 -20.146,1.094 -20.816,1.094 0.174,5.207 1.722,19.793 1.734,19.896 l 0.185,1.533 h -0.856 c -3.009,0 -5.201,1.549 -6.517,4.6 -1.196,2.775 -1.479,6.355 -1.479,9.129 0,2.473 0.226,4.301 0.23,4.34 0.411,2.844 1.356,4.979 2.887,6.498 6.906,6.85 22.708,-2.102 24.633,-3.234 v -7.213 -33.059 -3.584 z"
   id="path4684"
   inkscape:connector-curvature="0"
   style="fill:url(#SVGID_1_)" />
	<path
   d="m 190.593,228.768 c 0,0 -3.379,-0.496 -3.725,-7.922 -0.348,-7.432 0.866,-10.896 0.866,-10.896 0,0 -2.858,3.961 -2.167,12.627 0.693,8.668 2.513,7.926 2.513,7.926 l 2.513,-1.735 z"
   id="path4686"
   inkscape:connector-curvature="0"
   style="fill:#79291b" />
</g>
</svg>