<?xml version="1.0" encoding="UTF-8" standalone="no"?>
<!-- Generator: Adobe Illustrator 15.0.0, SVG Export Plug-In . SVG Version: 6.00 Build 0)  -->

<svg
   xmlns:dc="http://purl.org/dc/elements/1.1/"
   xmlns:cc="http://creativecommons.org/ns#"
   xmlns:rdf="http://www.w3.org/1999/02/22-rdf-syntax-ns#"
   xmlns:svg="http://www.w3.org/2000/svg"
   xmlns="http://www.w3.org/2000/svg"
   xmlns:sodipodi="http://sodipodi.sourceforge.net/DTD/sodipodi-0.dtd"
   xmlns:inkscape="http://www.inkscape.org/namespaces/inkscape"
   version="1.1"
   id="Layer_2"
   x="0px"
   y="0px"
   width="122.54604"
   height="168.38501"
   viewBox="0 0 122.54604 168.38501"
   enable-background="new 0 0 612 792"
   xml:space="preserve"
   inkscape:version="0.48.3.1 r9886"
   sodipodi:docname="turkey_head_eyes-bulge.svg"><metadata
   id="metadata3826"><rdf:RDF><cc:Work
       rdf:about=""><dc:format>image/svg+xml</dc:format><dc:type
         rdf:resource="http://purl.org/dc/dcmitype/StillImage" /></cc:Work></rdf:RDF></metadata><defs
   id="defs3824" /><sodipodi:namedview
   pagecolor="#ffffff"
   bordercolor="#666666"
   borderopacity="1"
   objecttolerance="10"
   gridtolerance="10"
   guidetolerance="10"
   inkscape:pageopacity="0"
   inkscape:pageshadow="2"
   inkscape:window-width="956"
   inkscape:window-height="1177"
   id="namedview3822"
   showgrid="false"
   fit-margin-top="0"
   fit-margin-left="0"
   fit-margin-right="0"
   fit-margin-bottom="0"
   inkscape:zoom="0.2979798"
   inkscape:cx="145.675"
   inkscape:cy="112.48701"
   inkscape:window-x="960"
   inkscape:window-y="19"
   inkscape:window-maximized="0"
   inkscape:current-layer="Layer_2" />
<g
   id="g3551"
   transform="translate(-160.325,-340.102)">
	<path
   d="m 255.88,370.798 c 0,16.954 -15.553,30.696 -34.746,30.696 -19.194,0 -34.746,-13.742 -34.746,-30.696 0,-16.952 15.552,-30.696 34.746,-30.696 19.193,0 34.746,13.744 34.746,30.696 z"
   id="path3553"
   inkscape:connector-curvature="0"
   style="fill:#79291c" />
	
		<radialGradient
   id="SVGID_1_"
   cx="186.5293"
   cy="333.43161"
   r="89.904999"
   gradientTransform="matrix(0.961,0,0,0.6635,11.0332,122.1885)"
   gradientUnits="userSpaceOnUse">
		<stop
   offset="0.1966"
   style="stop-color:#E19C5C"
   id="stop3556" />
		<stop
   offset="1"
   style="stop-color:#9E583F"
   id="stop3558" />
	</radialGradient>
	<path
   d="m 251.215,368.4 c 0,14.677 -13.465,26.574 -30.081,26.574 -16.618,0 -30.081,-11.896 -30.081,-26.574 0,-14.676 13.463,-26.575 30.081,-26.575 16.616,0 30.081,11.899 30.081,26.575 z"
   id="path3560"
   inkscape:connector-curvature="0"
   style="fill:url(#SVGID_1_)" />
	<g
   id="g3562">
		<g
   id="g3564">
			<path
   d="m 211.669,449.601 0.413,3.966 c 1.271,12.214 -0.312,25.795 -4.71,40.367 -1.075,3.563 -0.429,7.547 1.688,10.398 1.99,2.679 5.13,4.155 8.84,4.155 1.435,0 2.635,-0.59 3.697,-1.517 1.062,0.927 2.263,1.517 3.696,1.517 3.712,0 6.852,-1.477 8.842,-4.155 2.117,-2.852 2.764,-6.835 1.688,-10.399 -4.396,-14.573 -5.981,-28.155 -4.709,-40.366 l 0.414,-3.966 h -19.859 z"
   id="path3566"
   inkscape:connector-curvature="0"
   style="fill:#79291c" />
			<radialGradient
   id="SVGID_2_"
   cx="220.3569"
   cy="476.0361"
   r="42.339298"
   gradientUnits="userSpaceOnUse">
				<stop
   offset="0.1966"
   style="stop-color:#B80A3C"
   id="stop3569" />
				<stop
   offset="0.6236"
   style="stop-color:#F47B20"
   id="stop3571" />
			</radialGradient>
			<path
   d="m 227.54,453.194 h -11.884 c 1.062,10.202 0.479,24.136 -4.844,41.776 -1.174,3.891 0.473,9.923 7.088,9.923 1.776,0 2.95,-2.229 3.697,-5.646 0.748,3.416 1.921,5.646 3.696,5.646 6.618,0 8.264,-6.032 7.09,-9.923 -5.323,-17.64 -5.906,-31.574 -4.843,-41.776 z"
   id="path3573"
   inkscape:connector-curvature="0"
   style="fill:url(#SVGID_2_)" />
		</g>
		<g
   id="g3575">
			<g
   id="g3577">
				<g
   id="g3579">
					<path
   d="m 280.815,389.011 c -5.865,-22.542 -27.021,-34.706 -43.948,-34.706 -5.358,0 -9.93,2.204 -13.213,6.375 -0.775,0.982 -1.44,2.068 -2.047,3.198 -0.606,-1.13 -1.271,-2.216 -2.046,-3.198 -3.286,-4.172 -7.854,-6.375 -13.216,-6.375 -16.928,0 -38.082,12.164 -43.946,34.706 -1.394,5.348 -2.074,10.334 -2.074,14.884 0,14.688 7.096,24.87 20.302,28.204 16.513,4.169 34.059,-7.354 40.98,-26.112 6.92,18.759 24.466,30.281 40.979,26.112 7.204,-1.82 12.62,-5.678 16.103,-11.477 4.728,-7.862 5.462,-18.794 2.126,-31.611 z"
   id="path3581"
   inkscape:connector-curvature="0"
   style="fill:#79291c" />
					<radialGradient
   id="SVGID_3_"
   cx="192.459"
   cy="370.06689"
   r="64.777397"
   gradientUnits="userSpaceOnUse">
						<stop
   offset="0.4045"
   style="stop-color:#FFFFFF"
   id="stop3584" />
						<stop
   offset="0.6573"
   style="stop-color:#DDD1C2"
   id="stop3586" />
						<stop
   offset="0.8202"
   style="stop-color:#E8DDD8"
   id="stop3588" />
					</radialGradient>
					<path
   d="m 206.346,357.817 c -15.368,0 -34.306,11.854 -39.389,31.694 l 0,0 c -5.229,20.398 0.179,34.259 14.84,38.019 15.304,3.921 30.198,-8.535 35.128,-27.767 3.904,-15.233 4.408,-30.22 -1.081,-37.297 -2.395,-3.084 -5.588,-4.649 -9.498,-4.649 z"
   id="path3590"
   inkscape:connector-curvature="0"
   style="fill:url(#SVGID_3_)" />
					<radialGradient
   id="SVGID_4_"
   cx="246.98489"
   cy="373.53961"
   r="53.853699"
   gradientUnits="userSpaceOnUse">
						<stop
   offset="0.4045"
   style="stop-color:#FFFFFF"
   id="stop3593" />
						<stop
   offset="0.6573"
   style="stop-color:#DDD1C2"
   id="stop3595" />
						<stop
   offset="0.8202"
   style="stop-color:#E8DDD8"
   id="stop3597" />
					</radialGradient>
					<path
   d="m 236.867,357.817 c 15.371,0 34.304,11.854 39.39,31.694 l 0,0 c 5.229,20.398 -0.178,34.259 -14.838,38.019 -15.305,3.921 -30.198,-8.535 -35.129,-27.767 -3.904,-15.233 -4.409,-30.22 1.079,-37.297 2.395,-3.084 5.591,-4.649 9.498,-4.649 z"
   id="path3599"
   inkscape:connector-curvature="0"
   style="fill:url(#SVGID_4_)" />
				</g>
				<g
   id="g3601">
					<path
   d="m 210.884,394.231 c 0,10.914 -7.692,19.791 -17.14,19.791 -9.453,0 -17.146,-8.877 -17.146,-19.791 0,-10.915 7.693,-19.789 17.146,-19.789 9.447,0 17.14,8.874 17.14,19.789 z"
   id="path3603"
   inkscape:connector-curvature="0"
   style="fill:#0092c8" />
					
						<radialGradient
   id="SVGID_5_"
   cx="378.78519"
   cy="394.2305"
   r="16.7024"
   gradientTransform="matrix(-1,0,0,1,572.5254,0)"
   gradientUnits="userSpaceOnUse">
						<stop
   offset="0.4494"
   style="stop-color:#B9E5FB"
   id="stop3606" />
						<stop
   offset="0.9944"
   style="stop-color:#00AEEF"
   id="stop3608" />
					</radialGradient>
					<path
   d="m 178.413,394.231 c 0,9.924 6.863,17.972 15.331,17.972 8.461,0 15.323,-8.048 15.323,-17.972 0,-9.925 -6.862,-17.973 -15.323,-17.973 -8.468,0 -15.331,8.048 -15.331,17.973 z"
   id="path3610"
   inkscape:connector-curvature="0"
   style="fill:url(#SVGID_5_)" />
					<path
   d="m 186.361,393.566 c 0,4.445 3.603,8.043 8.041,8.043 4.44,0 8.041,-3.598 8.041,-8.043 0,-4.438 -3.601,-8.039 -8.041,-8.039 -4.438,0 -8.041,3.601 -8.041,8.039 z"
   id="path3612"
   inkscape:connector-curvature="0" />
					<circle
   cx="197.05099"
   cy="391.10999"
   r="2.5539999"
   id="circle3614"
   sodipodi:cx="197.05099"
   sodipodi:cy="391.10999"
   sodipodi:rx="2.5539999"
   sodipodi:ry="2.5539999"
   style="fill:#ffffff"
   d="m 199.60499,391.10999 c 0,1.41053 -1.14346,2.554 -2.554,2.554 -1.41053,0 -2.554,-1.14347 -2.554,-2.554 0,-1.41054 1.14347,-2.554 2.554,-2.554 1.41054,0 2.554,1.14346 2.554,2.554 z" />
				</g>
				<g
   id="g3616">
					<path
   d="m 266.145,394.231 c 0,10.914 -7.69,19.791 -17.139,19.791 -9.453,0 -17.146,-8.877 -17.146,-19.791 0,-10.915 7.692,-19.789 17.146,-19.789 9.448,0 17.139,8.874 17.139,19.789 z"
   id="path3618"
   inkscape:connector-curvature="0"
   style="fill:#0092c8" />
					
						<radialGradient
   id="SVGID_6_"
   cx="323.52249"
   cy="394.2305"
   r="16.7019"
   gradientTransform="matrix(-1,0,0,1,572.5254,0)"
   gradientUnits="userSpaceOnUse">
						<stop
   offset="0.4494"
   style="stop-color:#B9E5FB"
   id="stop3621" />
						<stop
   offset="0.9944"
   style="stop-color:#00AEEF"
   id="stop3623" />
					</radialGradient>
					<ellipse
   cx="249.00301"
   cy="394.23099"
   rx="15.326"
   ry="17.972"
   id="ellipse3625"
   sodipodi:cx="249.00301"
   sodipodi:cy="394.23099"
   sodipodi:rx="15.326"
   sodipodi:ry="17.972"
   style="fill:url(#SVGID_6_)"
   d="m 264.32901,394.23099 c 0,9.92566 -6.86169,17.972 -15.326,17.972 -8.46432,0 -15.326,-8.04634 -15.326,-17.972 0,-9.92566 6.86168,-17.972 15.326,-17.972 8.46431,0 15.326,8.04634 15.326,17.972 z" />
					<path
   d="m 241.625,393.566 c 0,4.445 3.601,8.043 8.04,8.043 4.441,0 8.043,-3.598 8.043,-8.043 0,-4.438 -3.602,-8.039 -8.043,-8.039 -4.439,0 -8.04,3.601 -8.04,8.039 z"
   id="path3627"
   inkscape:connector-curvature="0" />
					<path
   d="m 249.762,391.11 c 0,1.413 1.142,2.555 2.552,2.555 1.414,0 2.556,-1.142 2.556,-2.555 0,-1.409 -1.142,-2.555 -2.556,-2.555 -1.411,0 -2.552,1.146 -2.552,2.555 z"
   id="path3629"
   inkscape:connector-curvature="0"
   style="fill:#ffffff" />
				</g>
			</g>
			<path
   d="m 180.897,439.109 c 0,6.85 7.047,12.421 15.708,12.421 8.661,0 15.708,-5.571 15.708,-12.421 0,-6.848 -7.047,-12.42 -15.708,-12.42 -8.661,0 -15.708,5.573 -15.708,12.42 z"
   id="path3631"
   inkscape:connector-curvature="0"
   style="fill:#79291c" />
			<path
   d="m 182.095,439.109 c 0,6.189 6.51,11.223 14.511,11.223 8.001,0 14.511,-5.033 14.511,-11.223 0,-6.188 -6.51,-11.222 -14.511,-11.222 -8.001,0 -14.511,5.035 -14.511,11.222 z"
   id="path3633"
   inkscape:connector-curvature="0"
   style="fill:#79291c" />
			
				<radialGradient
   id="SVGID_7_"
   cx="183.41161"
   cy="461.69431"
   r="35.813099"
   gradientTransform="matrix(1.0809,0,0,0.6635,-16.4707,122.1885)"
   gradientUnits="userSpaceOnUse">
				<stop
   offset="0.1966"
   style="stop-color:#E19C5C"
   id="stop3636" />
				<stop
   offset="1"
   style="stop-color:#9E583F"
   id="stop3638" />
			</radialGradient>
			<ellipse
   cx="195.597"
   cy="438.474"
   rx="13.478"
   ry="10.585"
   id="ellipse3640"
   sodipodi:cx="195.597"
   sodipodi:cy="438.474"
   sodipodi:rx="13.478"
   sodipodi:ry="10.585"
   style="fill:url(#SVGID_7_)"
   d="m 209.075,438.474 c 0,5.84593 -6.03431,10.585 -13.478,10.585 -7.44369,0 -13.478,-4.73907 -13.478,-10.585 0,-5.84594 6.03431,-10.585 13.478,-10.585 7.44369,0 13.478,4.73906 13.478,10.585 z" />
			<path
   d="m 229.831,439.109 c 0,6.85 7.047,12.421 15.708,12.421 8.661,0 15.708,-5.571 15.708,-12.421 0,-6.848 -7.047,-12.42 -15.708,-12.42 -8.661,0 -15.708,5.573 -15.708,12.42 z"
   id="path3642"
   inkscape:connector-curvature="0"
   style="fill:#79291c" />
			<path
   d="m 231.028,439.109 c 0,6.189 6.511,11.223 14.511,11.223 8,0 14.51,-5.033 14.51,-11.223 0,-6.188 -6.51,-11.222 -14.51,-11.222 -8,0 -14.511,5.035 -14.511,11.222 z"
   id="path3644"
   inkscape:connector-curvature="0"
   style="fill:#79291c" />
			
				<radialGradient
   id="SVGID_8_"
   cx="255.12109"
   cy="463.58789"
   r="39.358299"
   gradientTransform="matrix(1.0809,0,0,0.6635,-21.333,122.1885)"
   gradientUnits="userSpaceOnUse">
				<stop
   offset="0.1966"
   style="stop-color:#E19C5C"
   id="stop3647" />
				<stop
   offset="1"
   style="stop-color:#9E583F"
   id="stop3649" />
			</radialGradient>
			<ellipse
   cx="246.548"
   cy="438.474"
   rx="13.478"
   ry="10.585"
   id="ellipse3651"
   sodipodi:cx="246.548"
   sodipodi:cy="438.474"
   sodipodi:rx="13.478"
   sodipodi:ry="10.585"
   style="fill:url(#SVGID_8_)"
   d="m 260.026,438.474 c 0,5.84593 -6.0343,10.585 -13.478,10.585 -7.44369,0 -13.478,-4.73907 -13.478,-10.585 0,-5.84594 6.03431,-10.585 13.478,-10.585 7.4437,0 13.478,4.73906 13.478,10.585 z" />
			<g
   id="g3653">
				<g
   id="g3655">
					<path
   d="m 230.494,430.264 c -0.159,0.092 -3.891,2.236 -8.365,2.236 h -1.062 c -4.476,0 -8.209,-2.146 -8.366,-2.237 l -2.024,-1.21 v 21.477 c -0.004,0.54 0.019,5.497 1.879,9.91 1.826,4.332 4.689,6.53 8.512,6.53 h 1.062 c 3.821,0 6.686,-2.198 8.513,-6.53 1.903,-4.52 1.88,-9.732 1.879,-9.952 v -21.435 c -0.001,0 -2.017,1.205 -2.028,1.211 z"
   id="path3657"
   inkscape:connector-curvature="0"
   style="fill:#79291c" />
					<path
   d="m 230.854,431.455 c -0.04,0.023 -3.972,2.339 -8.726,2.339 h -1.062 c -4.753,0 -8.686,-2.315 -8.725,-2.339 l -0.74,-0.441 v 19.516 c -0.001,0.18 -0.021,5.049 1.751,9.252 1.648,3.913 4.244,5.896 7.714,5.896 h 1.062 c 3.47,0 6.065,-1.983 7.714,-5.896 1.772,-4.203 1.753,-9.072 1.751,-9.277 v -19.49 l -0.739,0.44 z"
   id="path3659"
   inkscape:connector-curvature="0"
   style="fill:#79291c" />
					<path
   d="m 222.129,435.863 h -1.062 c -4.03,0 -7.479,-1.625 -8.576,-2.201 0,1.574 0,16.872 0,16.877 0,0.211 0.021,4.312 1.506,7.817 1.476,3.485 3.855,5.253 7.07,5.253 h 1.062 c 3.216,0 5.594,-1.768 7.069,-5.253 1.485,-3.508 1.507,-7.614 1.507,-7.808 0,-0.004 0,-15.312 0,-16.887 -1.098,0.577 -4.546,2.202 -8.576,2.202 z"
   id="path3661"
   inkscape:connector-curvature="0"
   style="fill:#ffc709" />
					<g
   id="g3663">
						<path
   d="m 216.869,443.1 c 2.034,0 7.424,0 9.457,0 1.811,0 3.242,-0.592 4.379,-1.566 v -7.871 c -1.098,0.576 -4.546,2.201 -8.576,2.201 h -1.062 c -4.03,0 -7.479,-1.625 -8.576,-2.201 v 7.871 c 1.135,0.974 2.568,1.566 4.378,1.566 z"
   id="path3665"
   inkscape:connector-curvature="0"
   style="fill:#ffc709" />
						<path
   d="m 216.869,443.063 c 2.035,0 7.424,0 9.458,0 1.811,0 3.242,-0.591 4.378,-1.566 v -7.835 c -1.098,0.576 -4.546,2.201 -8.576,2.201 h -1.062 c -4.03,0 -7.479,-1.625 -8.576,-2.201 v 7.835 c 1.134,0.976 2.568,1.566 4.378,1.566 z"
   id="path3667"
   inkscape:connector-curvature="0"
   style="fill:#ffc60a" />
						<path
   d="m 216.869,443.028 c 2.034,0 7.424,0 9.457,0 1.811,0 3.242,-0.592 4.379,-1.566 v -7.8 c -1.098,0.576 -4.546,2.201 -8.576,2.201 h -1.062 c -4.03,0 -7.479,-1.625 -8.576,-2.201 v 7.8 c 1.135,0.975 2.568,1.566 4.378,1.566 z"
   id="path3669"
   inkscape:connector-curvature="0"
   style="fill:#ffc50a" />
						<path
   d="m 216.869,442.993 c 2.034,0 7.424,0 9.458,0 1.81,0 3.242,-0.592 4.379,-1.566 v -7.765 c -1.098,0.576 -4.546,2.201 -8.577,2.201 h -1.062 c -4.03,0 -7.479,-1.625 -8.576,-2.201 v 7.765 c 1.135,0.974 2.568,1.566 4.378,1.566 z"
   id="path3671"
   inkscape:connector-curvature="0"
   style="fill:#fec40b" />
						<path
   d="m 216.869,442.957 c 2.034,0 7.424,0 9.457,0 1.811,0 3.243,-0.592 4.379,-1.566 v -7.729 c -1.098,0.576 -4.546,2.201 -8.576,2.201 h -1.063 c -4.03,0 -7.478,-1.625 -8.576,-2.201 v 7.729 c 1.135,0.974 2.568,1.566 4.379,1.566 z"
   id="path3673"
   inkscape:connector-curvature="0"
   style="fill:#fdc30c" />
						<path
   d="m 216.869,442.921 c 2.034,0 7.424,0 9.457,0 1.811,0 3.242,-0.591 4.379,-1.565 v -7.693 c -1.098,0.576 -4.546,2.201 -8.577,2.201 h -1.062 c -4.03,0 -7.479,-1.625 -8.577,-2.201 v 7.693 c 1.137,0.974 2.57,1.565 4.38,1.565 z"
   id="path3675"
   inkscape:connector-curvature="0"
   style="fill:#fdc20c" />
						<path
   d="m 216.869,442.886 c 2.034,0 7.424,0 9.457,0 1.811,0 3.242,-0.592 4.379,-1.566 v -7.657 c -1.098,0.576 -4.546,2.201 -8.576,2.201 h -1.062 c -4.03,0 -7.479,-1.625 -8.576,-2.201 v 7.657 c 1.135,0.974 2.568,1.566 4.378,1.566 z"
   id="path3677"
   inkscape:connector-curvature="0"
   style="fill:#fcc10d" />
						<path
   d="m 216.87,442.851 c 2.034,0 7.423,0 9.457,0 1.811,0 3.242,-0.592 4.379,-1.566 v -7.622 c -1.098,0.576 -4.545,2.201 -8.576,2.201 h -1.062 c -4.03,0 -7.479,-1.625 -8.576,-2.201 v 7.622 c 1.134,0.974 2.567,1.566 4.378,1.566 z"
   id="path3679"
   inkscape:connector-curvature="0"
   style="fill:#fcc00e" />
						<path
   d="m 216.87,442.814 c 2.034,0 7.423,0 9.457,0 1.81,0 3.242,-0.592 4.379,-1.565 v -7.587 c -1.098,0.576 -4.546,2.201 -8.577,2.201 h -1.062 c -4.03,0 -7.479,-1.625 -8.577,-2.201 v 7.587 c 1.136,0.974 2.569,1.565 4.38,1.565 z"
   id="path3681"
   inkscape:connector-curvature="0"
   style="fill:#fbbf0e" />
						<path
   d="m 216.869,442.779 c 2.034,0 7.424,0 9.457,0 1.811,0 3.242,-0.592 4.379,-1.566 v -7.551 c -1.098,0.576 -4.546,2.201 -8.577,2.201 h -1.062 c -4.031,0 -7.479,-1.625 -8.576,-2.201 v 7.551 c 1.136,0.975 2.569,1.566 4.379,1.566 z"
   id="path3683"
   inkscape:connector-curvature="0"
   style="fill:#fbbe0f" />
						<path
   d="m 216.869,442.743 c 2.034,0 7.424,0 9.457,0 1.811,0 3.242,-0.591 4.379,-1.565 v -7.516 c -1.098,0.576 -4.546,2.201 -8.576,2.201 h -1.062 c -4.03,0 -7.479,-1.625 -8.576,-2.201 v 7.516 c 1.135,0.974 2.568,1.565 4.378,1.565 z"
   id="path3685"
   inkscape:connector-curvature="0"
   style="fill:#fbbd0f" />
						<path
   d="m 216.87,442.708 c 2.034,0 7.423,0 9.457,0 1.811,0 3.242,-0.592 4.379,-1.566 v -7.479 c -1.098,0.576 -4.546,2.201 -8.576,2.201 h -1.062 c -4.03,0 -7.479,-1.625 -8.576,-2.201 v 7.479 c 1.134,0.974 2.567,1.566 4.378,1.566 z"
   id="path3687"
   inkscape:connector-curvature="0"
   style="fill:#fabd0f" />
						<path
   d="m 216.869,442.672 c 2.034,0 7.424,0 9.457,0 1.81,0 3.242,-0.592 4.378,-1.566 v -7.443 c -1.098,0.576 -4.546,2.201 -8.576,2.201 h -1.062 c -4.03,0 -7.479,-1.625 -8.576,-2.201 v 7.443 c 1.135,0.974 2.568,1.566 4.379,1.566 z"
   id="path3689"
   inkscape:connector-curvature="0"
   style="fill:#fabc10" />
						<path
   d="m 216.869,442.637 c 2.034,0 7.424,0 9.457,0 1.81,0 3.242,-0.592 4.379,-1.566 v -7.408 c -1.098,0.576 -4.546,2.201 -8.576,2.201 h -1.062 c -4.03,0 -7.479,-1.625 -8.576,-2.201 v 7.408 c 1.135,0.974 2.567,1.566 4.378,1.566 z"
   id="path3691"
   inkscape:connector-curvature="0"
   style="fill:#f9bb10" />
						<path
   d="m 216.869,442.601 c 2.034,0 7.424,0 9.457,0 1.811,0 3.242,-0.591 4.379,-1.565 v -7.373 c -1.098,0.576 -4.546,2.201 -8.576,2.201 h -1.062 c -4.03,0 -7.479,-1.625 -8.576,-2.201 v 7.373 c 1.135,0.974 2.568,1.565 4.378,1.565 z"
   id="path3693"
   inkscape:connector-curvature="0"
   style="fill:#f9ba11" />
						<path
   d="m 216.869,442.565 c 2.035,0 7.424,0 9.458,0 1.811,0 3.242,-0.592 4.378,-1.566 v -7.337 c -1.098,0.576 -4.546,2.201 -8.576,2.201 h -1.062 c -4.03,0 -7.479,-1.625 -8.576,-2.201 v 7.337 c 1.135,0.975 2.568,1.566 4.378,1.566 z"
   id="path3695"
   inkscape:connector-curvature="0"
   style="fill:#f8b911" />
						<path
   d="m 216.87,442.53 c 2.034,0 7.423,0 9.457,0 1.811,0 3.242,-0.593 4.379,-1.567 v -7.301 c -1.098,0.576 -4.545,2.201 -8.576,2.201 h -1.062 c -4.03,0 -7.479,-1.625 -8.576,-2.201 v 7.301 c 1.134,0.975 2.567,1.567 4.378,1.567 z"
   id="path3697"
   inkscape:connector-curvature="0"
   style="fill:#f8b811" />
						<path
   d="m 216.869,442.494 c 2.034,0 7.424,0 9.457,0 1.811,0 3.242,-0.592 4.379,-1.566 v -7.266 c -1.098,0.576 -4.546,2.201 -8.576,2.201 h -1.062 c -4.03,0 -7.479,-1.625 -8.576,-2.201 v 7.266 c 1.135,0.974 2.568,1.566 4.378,1.566 z"
   id="path3699"
   inkscape:connector-curvature="0"
   style="fill:#f8b712" />
						<path
   d="m 216.869,442.458 c 2.034,0 7.424,0 9.457,0 1.811,0 3.242,-0.591 4.379,-1.566 v -7.229 c -1.098,0.576 -4.546,2.201 -8.576,2.201 h -1.062 c -4.03,0 -7.479,-1.625 -8.576,-2.201 v 7.229 c 1.134,0.975 2.568,1.566 4.378,1.566 z"
   id="path3701"
   inkscape:connector-curvature="0"
   style="fill:#f7b612" />
						<path
   d="m 216.869,442.423 c 2.034,0 7.424,0 9.457,0 1.811,0 3.242,-0.592 4.379,-1.566 v -7.194 c -1.098,0.576 -4.546,2.201 -8.576,2.201 h -1.062 c -4.03,0 -7.479,-1.625 -8.576,-2.201 v 7.194 c 1.135,0.974 2.568,1.566 4.378,1.566 z"
   id="path3703"
   inkscape:connector-curvature="0"
   style="fill:#f7b513" />
						<path
   d="m 216.87,442.387 c 2.034,0 7.423,0 9.457,0 1.811,0 3.242,-0.591 4.379,-1.565 v -7.159 c -1.098,0.576 -4.546,2.201 -8.576,2.201 h -1.062 c -4.031,0 -7.479,-1.625 -8.577,-2.201 v 7.159 c 1.135,0.974 2.568,1.565 4.379,1.565 z"
   id="path3705"
   inkscape:connector-curvature="0"
   style="fill:#f7b413" />
						<path
   d="m 216.869,442.352 c 2.034,0 7.424,0 9.457,0 1.811,0 3.242,-0.592 4.379,-1.566 v -7.123 c -1.098,0.576 -4.546,2.201 -8.576,2.201 h -1.062 c -4.03,0 -7.479,-1.625 -8.576,-2.201 v 7.123 c 1.135,0.974 2.568,1.566 4.378,1.566 z"
   id="path3707"
   inkscape:connector-curvature="0"
   style="fill:#f6b413" />
						<path
   d="m 216.869,442.315 c 2.034,0 7.424,0 9.457,0 1.811,0 3.242,-0.591 4.378,-1.566 v -7.087 c -1.097,0.576 -4.545,2.201 -8.576,2.201 h -1.062 c -4.03,0 -7.479,-1.625 -8.576,-2.201 v 7.087 c 1.136,0.976 2.569,1.566 4.379,1.566 z"
   id="path3709"
   inkscape:connector-curvature="0"
   style="fill:#f6b313" />
						<path
   d="m 216.869,442.28 c 2.034,0 7.424,0 9.457,0 1.811,0 3.242,-0.592 4.379,-1.566 v -7.052 c -1.098,0.576 -4.546,2.201 -8.576,2.201 h -1.062 c -4.03,0 -7.479,-1.625 -8.576,-2.201 v 7.052 c 1.135,0.974 2.568,1.566 4.378,1.566 z"
   id="path3711"
   inkscape:connector-curvature="0"
   style="fill:#f6b214" />
						<path
   d="m 216.869,442.244 c 2.034,0 7.424,0 9.457,0 1.811,0 3.242,-0.591 4.379,-1.565 v -7.017 c -1.098,0.576 -4.546,2.201 -8.576,2.201 h -1.063 c -4.03,0 -7.479,-1.625 -8.576,-2.201 v 7.017 c 1.136,0.974 2.569,1.565 4.379,1.565 z"
   id="path3713"
   inkscape:connector-curvature="0"
   style="fill:#f5b114" />
						<path
   d="m 216.869,442.209 c 2.034,0 7.424,0 9.457,0 1.811,0 3.242,-0.592 4.379,-1.566 v -6.98 c -1.098,0.576 -4.546,2.201 -8.576,2.201 h -1.062 c -4.03,0 -7.479,-1.625 -8.576,-2.201 v 6.98 c 1.135,0.974 2.568,1.566 4.378,1.566 z"
   id="path3715"
   inkscape:connector-curvature="0"
   style="fill:#f5b014" />
						<path
   d="m 216.869,442.173 c 2.034,0 7.424,0 9.457,0 1.811,0 3.242,-0.591 4.379,-1.565 v -6.945 c -1.098,0.576 -4.546,2.201 -8.576,2.201 h -1.062 c -4.03,0 -7.479,-1.625 -8.576,-2.201 v 6.945 c 1.134,0.974 2.568,1.565 4.378,1.565 z"
   id="path3717"
   inkscape:connector-curvature="0"
   style="fill:#f4af15" />
						<path
   d="m 216.869,442.138 c 2.034,0 7.424,0 9.457,0 1.811,0 3.242,-0.591 4.379,-1.566 v -6.909 c -1.098,0.576 -4.546,2.201 -8.576,2.201 h -1.062 c -4.03,0 -7.479,-1.625 -8.576,-2.201 v 6.909 c 1.135,0.975 2.568,1.566 4.378,1.566 z"
   id="path3719"
   inkscape:connector-curvature="0"
   style="fill:#f4ae15" />
						<path
   d="m 216.869,442.102 c 2.034,0 7.424,0 9.458,0 1.81,0 3.242,-0.591 4.378,-1.565 v -6.874 c -1.097,0.576 -4.546,2.201 -8.576,2.201 h -1.063 c -4.03,0 -7.479,-1.625 -8.576,-2.201 v 6.874 c 1.136,0.974 2.569,1.565 4.379,1.565 z"
   id="path3721"
   inkscape:connector-curvature="0"
   style="fill:#f4ad15" />
						<path
   d="m 216.869,442.066 c 2.034,0 7.424,0 9.457,0 1.811,0 3.242,-0.592 4.379,-1.566 v -6.838 c -1.098,0.576 -4.546,2.201 -8.576,2.201 h -1.062 c -4.03,0 -7.479,-1.625 -8.576,-2.201 v 6.838 c 1.135,0.975 2.568,1.566 4.378,1.566 z"
   id="path3723"
   inkscape:connector-curvature="0"
   style="fill:#f3ad15" />
						<path
   d="m 216.869,442.03 c 2.034,0 7.424,0 9.457,0 1.811,0 3.242,-0.591 4.379,-1.565 v -6.803 c -1.098,0.576 -4.546,2.201 -8.576,2.201 h -1.062 c -4.031,0 -7.479,-1.625 -8.576,-2.201 v 6.803 c 1.135,0.974 2.568,1.565 4.378,1.565 z"
   id="path3725"
   inkscape:connector-curvature="0"
   style="fill:#f3ac16" />
						<path
   d="m 216.869,441.995 c 2.034,0 7.424,0 9.457,0 1.811,0 3.242,-0.591 4.379,-1.565 v -6.768 c -1.098,0.576 -4.546,2.201 -8.576,2.201 h -1.062 c -4.03,0 -7.479,-1.625 -8.576,-2.201 v 6.768 c 1.135,0.974 2.568,1.565 4.378,1.565 z"
   id="path3727"
   inkscape:connector-curvature="0"
   style="fill:#f3ab16" />
						<path
   d="m 216.869,441.959 c 2.034,0 7.424,0 9.457,0 1.811,0 3.242,-0.591 4.379,-1.565 v -6.731 c -1.098,0.576 -4.546,2.201 -8.576,2.201 h -1.062 c -4.03,0 -7.479,-1.625 -8.576,-2.201 v 6.731 c 1.135,0.974 2.568,1.565 4.378,1.565 z"
   id="path3729"
   inkscape:connector-curvature="0"
   style="fill:#f2aa16" />
						<path
   d="m 216.869,441.924 c 2.034,0 7.424,0 9.457,0 1.811,0 3.242,-0.591 4.379,-1.566 v -6.695 c -1.098,0.576 -4.546,2.201 -8.576,2.201 h -1.062 c -4.03,0 -7.479,-1.625 -8.576,-2.201 v 6.695 c 1.135,0.975 2.568,1.566 4.378,1.566 z"
   id="path3731"
   inkscape:connector-curvature="0"
   style="fill:#f2a916" />
						<path
   d="m 216.869,441.888 c 2.034,0 7.424,0 9.457,0 1.811,0 3.242,-0.591 4.379,-1.565 v -6.66 c -1.098,0.576 -4.546,2.201 -8.576,2.201 h -1.062 c -4.03,0 -7.479,-1.625 -8.576,-2.201 v 6.66 c 1.135,0.974 2.568,1.565 4.378,1.565 z"
   id="path3733"
   inkscape:connector-curvature="0"
   style="fill:#f2a817" />
						<path
   d="m 216.869,441.853 c 2.034,0 7.424,0 9.457,0 1.811,0 3.242,-0.591 4.379,-1.565 v -6.625 c -1.098,0.576 -4.546,2.201 -8.576,2.201 h -1.062 c -4.03,0 -7.479,-1.625 -8.576,-2.201 v 6.625 c 1.135,0.974 2.568,1.565 4.378,1.565 z"
   id="path3735"
   inkscape:connector-curvature="0"
   style="fill:#f1a817" />
						<path
   d="m 216.869,441.816 c 2.034,0 7.424,0 9.457,0 1.811,0 3.242,-0.591 4.379,-1.564 v -6.59 c -1.098,0.576 -4.546,2.201 -8.576,2.201 h -1.062 c -4.03,0 -7.479,-1.625 -8.576,-2.201 v 6.59 c 1.135,0.974 2.568,1.564 4.378,1.564 z"
   id="path3737"
   inkscape:connector-curvature="0"
   style="fill:#f1a717" />
						<path
   d="m 216.869,441.781 c 2.034,0 7.424,0 9.457,0 1.811,0 3.242,-0.591 4.379,-1.565 v -6.554 c -1.098,0.576 -4.546,2.201 -8.576,2.201 h -1.062 c -4.03,0 -7.479,-1.625 -8.576,-2.201 v 6.554 c 1.135,0.974 2.568,1.565 4.378,1.565 z"
   id="path3739"
   inkscape:connector-curvature="0"
   style="fill:#f1a617" />
						<path
   d="m 216.869,441.746 c 2.034,0 7.424,0 9.457,0 1.811,0 3.242,-0.592 4.379,-1.566 v -6.518 c -1.098,0.576 -4.546,2.201 -8.576,2.201 h -1.062 c -4.03,0 -7.479,-1.625 -8.576,-2.201 v 6.518 c 1.135,0.974 2.568,1.566 4.378,1.566 z"
   id="path3741"
   inkscape:connector-curvature="0"
   style="fill:#f0a517" />
						<path
   d="m 216.869,441.71 c 2.034,0 7.424,0 9.457,0 1.811,0 3.242,-0.591 4.379,-1.565 v -6.482 c -1.098,0.576 -4.546,2.201 -8.576,2.201 h -1.062 c -4.03,0 -7.479,-1.625 -8.576,-2.201 v 6.482 c 1.135,0.974 2.568,1.565 4.378,1.565 z"
   id="path3743"
   inkscape:connector-curvature="0"
   style="fill:#f0a418" />
						<path
   d="m 216.869,441.674 c 2.034,0 7.424,0 9.457,0 1.811,0 3.242,-0.59 4.379,-1.565 v -6.446 c -1.098,0.576 -4.546,2.201 -8.576,2.201 h -1.062 c -4.03,0 -7.479,-1.625 -8.576,-2.201 v 6.446 c 1.135,0.975 2.568,1.565 4.378,1.565 z"
   id="path3745"
   inkscape:connector-curvature="0"
   style="fill:#f0a318" />
						<path
   d="m 216.869,441.639 c 2.034,0 7.424,0 9.457,0 1.811,0 3.242,-0.591 4.379,-1.565 v -6.411 c -1.098,0.576 -4.546,2.201 -8.576,2.201 h -1.062 c -4.03,0 -7.479,-1.625 -8.576,-2.201 v 6.411 c 1.135,0.974 2.568,1.565 4.378,1.565 z"
   id="path3747"
   inkscape:connector-curvature="0"
   style="fill:#f0a318" />
						<path
   d="m 216.869,441.604 c 2.034,0 7.424,0 9.457,0 1.811,0 3.242,-0.592 4.379,-1.566 v -6.375 c -1.098,0.576 -4.546,2.201 -8.576,2.201 h -1.062 c -4.03,0 -7.479,-1.625 -8.576,-2.201 v 6.375 c 1.135,0.974 2.568,1.566 4.378,1.566 z"
   id="path3749"
   inkscape:connector-curvature="0"
   style="fill:#efa218" />
						<path
   d="m 216.869,441.567 c 2.034,0 7.424,0 9.457,0 1.811,0 3.242,-0.591 4.379,-1.565 v -6.34 c -1.098,0.576 -4.546,2.201 -8.576,2.201 h -1.062 c -4.03,0 -7.479,-1.625 -8.576,-2.201 v 6.34 c 1.135,0.975 2.568,1.565 4.378,1.565 z"
   id="path3751"
   inkscape:connector-curvature="0"
   style="fill:#efa118" />
						<path
   d="m 216.869,441.532 c 2.034,0 7.424,0 9.457,0 1.811,0 3.242,-0.591 4.379,-1.566 v -6.304 c -1.098,0.576 -4.546,2.201 -8.576,2.201 h -1.062 c -4.03,0 -7.479,-1.625 -8.576,-2.201 v 6.304 c 1.135,0.975 2.568,1.566 4.378,1.566 z"
   id="path3753"
   inkscape:connector-curvature="0"
   style="fill:#efa018" />
						<path
   d="m 216.869,441.496 c 2.034,0 7.424,0 9.457,0 1.811,0 3.242,-0.591 4.379,-1.565 v -6.269 c -1.098,0.576 -4.546,2.201 -8.576,2.201 h -1.062 c -4.03,0 -7.479,-1.625 -8.576,-2.201 v 6.269 c 1.135,0.974 2.568,1.565 4.378,1.565 z"
   id="path3755"
   inkscape:connector-curvature="0"
   style="fill:#ee9f19" />
						<path
   d="m 216.869,441.461 c 2.034,0 7.424,0 9.457,0 1.811,0 3.242,-0.592 4.379,-1.566 v -6.232 c -1.098,0.576 -4.546,2.201 -8.576,2.201 h -1.062 c -4.03,0 -7.479,-1.625 -8.576,-2.201 v 6.232 c 1.135,0.974 2.568,1.566 4.378,1.566 z"
   id="path3757"
   inkscape:connector-curvature="0"
   style="fill:#ee9f19" />
						<path
   d="m 216.869,441.425 c 2.034,0 7.424,0 9.457,0 1.811,0 3.242,-0.591 4.379,-1.565 v -6.197 c -1.098,0.576 -4.546,2.201 -8.576,2.201 h -1.062 c -4.03,0 -7.479,-1.625 -8.576,-2.201 v 6.197 c 1.135,0.974 2.568,1.565 4.378,1.565 z"
   id="path3759"
   inkscape:connector-curvature="0"
   style="fill:#ee9e19" />
						<path
   d="m 216.869,441.39 c 2.034,0 7.424,0 9.457,0 1.811,0 3.242,-0.591 4.379,-1.565 v -6.162 c -1.098,0.576 -4.546,2.201 -8.576,2.201 h -1.062 c -4.03,0 -7.479,-1.625 -8.576,-2.201 v 6.162 c 1.135,0.974 2.568,1.565 4.378,1.565 z"
   id="path3761"
   inkscape:connector-curvature="0"
   style="fill:#ed9d19" />
						<path
   d="m 216.869,441.354 c 2.034,0 7.424,0 9.457,0 1.811,0 3.242,-0.591 4.379,-1.565 v -6.126 c -1.098,0.576 -4.546,2.201 -8.576,2.201 h -1.062 c -4.03,0 -7.479,-1.625 -8.576,-2.201 v 6.126 c 1.135,0.974 2.568,1.565 4.378,1.565 z"
   id="path3763"
   inkscape:connector-curvature="0"
   style="fill:#ed9c19" />
						<path
   d="m 216.869,441.318 c 2.034,0 7.424,0 9.457,0 1.811,0 3.242,-0.591 4.379,-1.565 v -6.091 c -1.098,0.576 -4.546,2.201 -8.576,2.201 h -1.062 c -4.03,0 -7.479,-1.625 -8.576,-2.201 v 6.091 c 1.135,0.975 2.568,1.565 4.378,1.565 z"
   id="path3765"
   inkscape:connector-curvature="0"
   style="fill:#ed9b19" />
						<path
   d="m 216.869,441.282 c 2.034,0 7.424,0 9.457,0 1.811,0 3.242,-0.591 4.379,-1.565 v -6.055 c -1.098,0.576 -4.546,2.201 -8.576,2.201 h -1.062 c -4.03,0 -7.479,-1.625 -8.576,-2.201 v 6.055 c 1.135,0.974 2.568,1.565 4.378,1.565 z"
   id="path3767"
   inkscape:connector-curvature="0"
   style="fill:#ed9b19" />
						<path
   d="m 216.869,441.247 c 2.034,0 7.424,0 9.457,0 1.811,0 3.242,-0.591 4.379,-1.565 v -6.02 c -1.098,0.576 -4.546,2.201 -8.576,2.201 h -1.062 c -4.03,0 -7.479,-1.625 -8.576,-2.201 v 6.02 c 1.135,0.974 2.568,1.565 4.378,1.565 z"
   id="path3769"
   inkscape:connector-curvature="0"
   style="fill:#ec9a19" />
						<path
   d="m 216.869,441.211 c 2.034,0 7.424,0 9.457,0 1.811,0 3.242,-0.591 4.379,-1.565 v -5.983 c -1.098,0.576 -4.546,2.201 -8.576,2.201 h -1.062 c -4.03,0 -7.479,-1.625 -8.576,-2.201 v 5.983 c 1.135,0.974 2.568,1.565 4.378,1.565 z"
   id="path3771"
   inkscape:connector-curvature="0"
   style="fill:#ec991a" />
						<path
   d="m 216.869,441.176 c 2.034,0 7.424,0 9.457,0 1.811,0 3.242,-0.591 4.379,-1.565 v -5.948 c -1.098,0.576 -4.546,2.201 -8.576,2.201 h -1.062 c -4.03,0 -7.479,-1.625 -8.576,-2.201 v 5.948 c 1.135,0.974 2.568,1.565 4.378,1.565 z"
   id="path3773"
   inkscape:connector-curvature="0"
   style="fill:#ec981a" />
						<path
   d="m 216.869,441.14 c 2.034,0 7.424,0 9.457,0 1.811,0 3.242,-0.591 4.379,-1.565 v -5.912 c -1.098,0.576 -4.546,2.201 -8.576,2.201 h -1.062 c -4.03,0 -7.479,-1.625 -8.576,-2.201 v 5.912 c 1.135,0.974 2.568,1.565 4.378,1.565 z"
   id="path3775"
   inkscape:connector-curvature="0"
   style="fill:#eb971a" />
						<path
   d="m 216.869,441.104 c 2.034,0 7.424,0 9.457,0 1.811,0 3.242,-0.591 4.379,-1.565 v -5.877 c -1.098,0.576 -4.546,2.201 -8.576,2.201 h -1.062 c -4.03,0 -7.479,-1.625 -8.576,-2.201 v 5.877 c 1.135,0.975 2.568,1.565 4.378,1.565 z"
   id="path3777"
   inkscape:connector-curvature="0"
   style="fill:#eb971a" />
						<path
   d="m 216.869,441.068 c 2.034,0 7.424,0 9.457,0 1.811,0 3.242,-0.59 4.379,-1.564 v -5.842 c -1.098,0.576 -4.546,2.201 -8.576,2.201 h -1.062 c -4.03,0 -7.479,-1.625 -8.576,-2.201 v 5.842 c 1.135,0.975 2.568,1.564 4.378,1.564 z"
   id="path3779"
   inkscape:connector-curvature="0"
   style="fill:#eb961a" />
						<path
   d="m 216.869,441.033 c 2.034,0 7.424,0 9.457,0 1.811,0 3.242,-0.591 4.379,-1.565 v -5.806 c -1.098,0.576 -4.546,2.201 -8.576,2.201 h -1.062 c -4.03,0 -7.479,-1.625 -8.576,-2.201 v 5.806 c 1.135,0.974 2.568,1.565 4.378,1.565 z"
   id="path3781"
   inkscape:connector-curvature="0"
   style="fill:#ea951a" />
						<path
   d="m 216.869,440.998 c 2.034,0 7.424,0 9.457,0 1.811,0 3.242,-0.592 4.379,-1.565 v -5.771 c -1.098,0.576 -4.546,2.201 -8.576,2.201 h -1.062 c -4.03,0 -7.479,-1.625 -8.576,-2.201 v 5.771 c 1.135,0.973 2.568,1.565 4.378,1.565 z"
   id="path3783"
   inkscape:connector-curvature="0"
   style="fill:#ea941a" />
						<path
   d="m 216.869,440.962 c 2.034,0 7.424,0 9.457,0 1.811,0 3.242,-0.591 4.379,-1.565 v -5.734 c -1.098,0.576 -4.546,2.201 -8.576,2.201 h -1.062 c -4.03,0 -7.479,-1.625 -8.576,-2.201 v 5.734 c 1.135,0.974 2.568,1.565 4.378,1.565 z"
   id="path3785"
   inkscape:connector-curvature="0"
   style="fill:#ea931a" />
						<path
   d="m 216.869,440.926 c 2.034,0 7.424,0 9.457,0 1.811,0 3.242,-0.59 4.379,-1.564 v -5.699 c -1.098,0.576 -4.546,2.201 -8.576,2.201 h -1.062 c -4.03,0 -7.479,-1.625 -8.576,-2.201 v 5.699 c 1.135,0.974 2.568,1.564 4.378,1.564 z"
   id="path3787"
   inkscape:connector-curvature="0"
   style="fill:#ea931a" />
						<path
   d="m 221.066,435.863 c -4.03,0 -7.479,-1.625 -8.576,-2.201 v 5.663 c 1.136,0.975 2.568,1.565 4.379,1.565 2.034,0 7.424,0 9.457,0 1.811,0 3.242,-0.591 4.379,-1.565 v -5.663 c -1.098,0.576 -4.546,2.201 -8.576,2.201 h -1.063 z"
   id="path3789"
   inkscape:connector-curvature="0"
   style="fill:#e9921a" />
					</g>
				</g>
				<g
   id="g3791">
					<path
   d="m 221.01,398.748 c -1.911,0 -15.264,14.633 -15.264,23.869 0,10.359 1.333,15.619 8.617,15.619 h 14.472 c 7.286,0 8.614,-5.26 8.614,-15.619 0,-9.236 -13.351,-23.869 -15.262,-23.869 h -1.177 z"
   id="path3793"
   inkscape:connector-curvature="0"
   style="fill:#79291c" />
					
						<radialGradient
   id="SVGID_9_"
   cx="196.3291"
   cy="391.60059"
   r="30.669399"
   gradientTransform="matrix(0.7476,0,0,1.3966,73.4355,-153.1328)"
   gradientUnits="userSpaceOnUse">
						<stop
   offset="0.1348"
   style="stop-color:#FFE079"
   id="stop3796" />
						<stop
   offset="0.2047"
   style="stop-color:#FFDE72"
   id="stop3798" />
						<stop
   offset="0.3167"
   style="stop-color:#FFD85B"
   id="stop3800" />
						<stop
   offset="0.4561"
   style="stop-color:#FFCE30"
   id="stop3802" />
						<stop
   offset="0.5337"
   style="stop-color:#FFC709"
   id="stop3804" />
						<stop
   offset="0.6053"
   style="stop-color:#F5BA0F"
   id="stop3806" />
						<stop
   offset="0.7198"
   style="stop-color:#E19E15"
   id="stop3808" />
						<stop
   offset="0.7247"
   style="stop-color:#E09D15"
   id="stop3810" />
						<stop
   offset="0.9719"
   style="stop-color:#FFC709"
   id="stop3812" />
					</radialGradient>
					<path
   d="m 221.017,401.981 c -1.71,0.229 -13.886,13.407 -13.886,20.269 0,8.628 0.685,12.41 7.232,12.41 h 14.472 c 6.547,0 7.232,-3.782 7.232,-12.41 0,-6.846 -12.181,-20.039 -13.889,-20.27 0.001,0 -1.146,10e-4 -1.161,10e-4 z"
   id="path3814"
   inkscape:connector-curvature="0"
   style="fill:url(#SVGID_9_)" />
				</g>
				<g
   id="g3816">
					<path
   d="m 215.979,412.421 c 0,0.829 0.651,2.855 1.504,2.855 0.854,0 1.505,-2.026 1.505,-2.855 0,-1.278 -0.375,-1.874 -1.505,-1.874 -0.751,0 -1.504,0.596 -1.504,1.874 z"
   id="path3818"
   inkscape:connector-curvature="0"
   style="fill:#79291c" />
					<path
   d="m 224.209,412.421 c 0,0.829 0.651,2.855 1.504,2.855 0.854,0 1.505,-2.026 1.505,-2.855 0,-1.278 -0.375,-1.874 -1.505,-1.874 -0.751,0 -1.504,0.596 -1.504,1.874 z"
   id="path3820"
   inkscape:connector-curvature="0"
   style="fill:#79291c" />
				</g>
			</g>
		</g>
	</g>
</g>
</svg>