<?xml version="1.0" encoding="utf-8"?>
<!-- Generator: Adobe Illustrator 15.0.0, SVG Export Plug-In . SVG Version: 6.00 Build 0)  -->
<!DOCTYPE svg PUBLIC "-//W3C//DTD SVG 1.1//EN" "http://www.w3.org/Graphics/SVG/1.1/DTD/svg11.dtd">
<svg version="1.1" id="Layer_2" xmlns="http://www.w3.org/2000/svg" xmlns:xlink="http://www.w3.org/1999/xlink" x="0px" y="0px"
	 width="612px" height="792px" viewBox="0 0 612 792" enable-background="new 0 0 612 792" xml:space="preserve">
<g>
	<path fill="#79291C" d="M255.88,370.798c0,16.954-15.553,30.696-34.746,30.696c-19.194,0-34.746-13.742-34.746-30.696
		c0-16.952,15.552-30.696,34.746-30.696C240.327,340.102,255.88,353.846,255.88,370.798z"/>
	
		<radialGradient id="SVGID_1_" cx="186.5293" cy="333.4316" r="89.905" gradientTransform="matrix(0.961 0 0 0.6635 11.0332 122.1885)" gradientUnits="userSpaceOnUse">
		<stop  offset="0.1966" style="stop-color:#E19C5C"/>
		<stop  offset="1" style="stop-color:#9E583F"/>
	</radialGradient>
	<path fill="url(#SVGID_1_)" d="M251.215,368.4c0,14.677-13.465,26.574-30.081,26.574c-16.618,0-30.081-11.896-30.081-26.574
		c0-14.676,13.463-26.575,30.081-26.575C237.75,341.825,251.215,353.724,251.215,368.4z"/>
	<g>
		<g>
			<path fill="#79291C" d="M211.669,449.601l0.413,3.966c1.271,12.214-0.312,25.795-4.71,40.367
				c-1.075,3.563-0.429,7.547,1.688,10.398c1.99,2.679,5.13,4.155,8.84,4.155c1.435,0,2.635-0.59,3.697-1.517
				c1.062,0.927,2.263,1.517,3.696,1.517c3.712,0,6.852-1.477,8.842-4.155c2.117-2.852,2.764-6.835,1.688-10.399
				c-4.396-14.573-5.981-28.155-4.709-40.366l0.414-3.966H211.669z"/>
			<radialGradient id="SVGID_2_" cx="220.3569" cy="476.0361" r="42.3393" gradientUnits="userSpaceOnUse">
				<stop  offset="0.1966" style="stop-color:#B80A3C"/>
				<stop  offset="0.6236" style="stop-color:#F47B20"/>
			</radialGradient>
			<path fill="url(#SVGID_2_)" d="M227.54,453.194h-11.884c1.062,10.202,0.479,24.136-4.844,41.776
				c-1.174,3.891,0.473,9.923,7.088,9.923c1.776,0,2.95-2.229,3.697-5.646c0.748,3.416,1.921,5.646,3.696,5.646
				c6.618,0,8.264-6.032,7.09-9.923C227.06,477.33,226.477,463.396,227.54,453.194z"/>
		</g>
		<g>
			<g>
				<g>
					<path fill="#79291C" d="M280.815,389.011c-5.865-22.542-27.021-34.706-43.948-34.706c-5.358,0-9.93,2.204-13.213,6.375
						c-0.775,0.982-1.44,2.068-2.047,3.198c-0.606-1.13-1.271-2.216-2.046-3.198c-3.286-4.172-7.854-6.375-13.216-6.375
						c-16.928,0-38.082,12.164-43.946,34.706c-1.394,5.348-2.074,10.334-2.074,14.884c0,14.688,7.096,24.87,20.302,28.204
						c16.513,4.169,34.059-7.354,40.98-26.112c6.92,18.759,24.466,30.281,40.979,26.112c7.204-1.82,12.62-5.678,16.103-11.477
						C283.417,412.76,284.151,401.828,280.815,389.011z"/>
					<radialGradient id="SVGID_3_" cx="192.459" cy="370.0669" r="64.7774" gradientUnits="userSpaceOnUse">
						<stop  offset="0.4045" style="stop-color:#FFFFFF"/>
						<stop  offset="0.6573" style="stop-color:#DDD1C2"/>
						<stop  offset="0.8202" style="stop-color:#E8DDD8"/>
					</radialGradient>
					<path fill="url(#SVGID_3_)" d="M206.346,357.817c-15.368,0-34.306,11.854-39.389,31.694l0,0
						c-5.229,20.398,0.179,34.259,14.84,38.019c15.304,3.921,30.198-8.535,35.128-27.767c3.904-15.233,4.408-30.22-1.081-37.297
						C213.449,359.382,210.256,357.817,206.346,357.817z"/>
					<radialGradient id="SVGID_4_" cx="246.9849" cy="373.5396" r="53.8537" gradientUnits="userSpaceOnUse">
						<stop  offset="0.4045" style="stop-color:#FFFFFF"/>
						<stop  offset="0.6573" style="stop-color:#DDD1C2"/>
						<stop  offset="0.8202" style="stop-color:#E8DDD8"/>
					</radialGradient>
					<path fill="url(#SVGID_4_)" d="M236.867,357.817c15.371,0,34.304,11.854,39.39,31.694l0,0
						c5.229,20.398-0.178,34.259-14.838,38.019c-15.305,3.921-30.198-8.535-35.129-27.767c-3.904-15.233-4.409-30.22,1.079-37.297
						C229.764,359.382,232.96,357.817,236.867,357.817z"/>
				</g>
				<g>
					<path fill="#0092C8" d="M210.884,394.231c0,10.914-7.692,19.791-17.14,19.791c-9.453,0-17.146-8.877-17.146-19.791
						c0-10.915,7.693-19.789,17.146-19.789C203.191,374.442,210.884,383.316,210.884,394.231z"/>
					
						<radialGradient id="SVGID_5_" cx="378.7852" cy="394.2305" r="16.7024" gradientTransform="matrix(-1 0 0 1 572.5254 0)" gradientUnits="userSpaceOnUse">
						<stop  offset="0.4494" style="stop-color:#B9E5FB"/>
						<stop  offset="0.9944" style="stop-color:#00AEEF"/>
					</radialGradient>
					<path fill="url(#SVGID_5_)" d="M178.413,394.231c0,9.924,6.863,17.972,15.331,17.972c8.461,0,15.323-8.048,15.323-17.972
						c0-9.925-6.862-17.973-15.323-17.973C185.276,376.258,178.413,384.306,178.413,394.231z"/>
					<path d="M186.361,393.566c0,4.445,3.603,8.043,8.041,8.043c4.44,0,8.041-3.598,8.041-8.043c0-4.438-3.601-8.039-8.041-8.039
						C189.964,385.527,186.361,389.128,186.361,393.566z"/>
					<circle fill="#FFFFFF" cx="197.051" cy="391.11" r="2.554"/>
				</g>
				<g>
					<path fill="#0092C8" d="M266.145,394.231c0,10.914-7.69,19.791-17.139,19.791c-9.453,0-17.146-8.877-17.146-19.791
						c0-10.915,7.692-19.789,17.146-19.789C258.454,374.442,266.145,383.316,266.145,394.231z"/>
					
						<radialGradient id="SVGID_6_" cx="323.5225" cy="394.2305" r="16.7019" gradientTransform="matrix(-1 0 0 1 572.5254 0)" gradientUnits="userSpaceOnUse">
						<stop  offset="0.4494" style="stop-color:#B9E5FB"/>
						<stop  offset="0.9944" style="stop-color:#00AEEF"/>
					</radialGradient>
					<ellipse fill="url(#SVGID_6_)" cx="249.003" cy="394.231" rx="15.326" ry="17.972"/>
					<path d="M241.625,393.566c0,4.445,3.601,8.043,8.04,8.043c4.441,0,8.043-3.598,8.043-8.043c0-4.438-3.602-8.039-8.043-8.039
						C245.226,385.527,241.625,389.128,241.625,393.566z"/>
					<path fill="#FFFFFF" d="M249.762,391.11c0,1.413,1.142,2.555,2.552,2.555c1.414,0,2.556-1.142,2.556-2.555
						c0-1.409-1.142-2.555-2.556-2.555C250.903,388.555,249.762,389.701,249.762,391.11z"/>
				</g>
			</g>
			<path fill="#79291C" d="M180.897,439.109c0,6.85,7.047,12.421,15.708,12.421s15.708-5.571,15.708-12.421
				c0-6.848-7.047-12.42-15.708-12.42S180.897,432.262,180.897,439.109z"/>
			<path fill="#79291C" d="M182.095,439.109c0,6.189,6.51,11.223,14.511,11.223s14.511-5.033,14.511-11.223
				c0-6.188-6.51-11.222-14.511-11.222S182.095,432.922,182.095,439.109z"/>
			
				<radialGradient id="SVGID_7_" cx="183.4116" cy="461.6943" r="35.8131" gradientTransform="matrix(1.0809 0 0 0.6635 -16.4707 122.1885)" gradientUnits="userSpaceOnUse">
				<stop  offset="0.1966" style="stop-color:#E19C5C"/>
				<stop  offset="1" style="stop-color:#9E583F"/>
			</radialGradient>
			<ellipse fill="url(#SVGID_7_)" cx="195.597" cy="438.474" rx="13.478" ry="10.585"/>
			<path fill="#79291C" d="M229.831,439.109c0,6.85,7.047,12.421,15.708,12.421s15.708-5.571,15.708-12.421
				c0-6.848-7.047-12.42-15.708-12.42S229.831,432.262,229.831,439.109z"/>
			<path fill="#79291C" d="M231.028,439.109c0,6.189,6.511,11.223,14.511,11.223s14.51-5.033,14.51-11.223
				c0-6.188-6.51-11.222-14.51-11.222S231.028,432.922,231.028,439.109z"/>
			
				<radialGradient id="SVGID_8_" cx="255.1211" cy="463.5879" r="39.3583" gradientTransform="matrix(1.0809 0 0 0.6635 -21.333 122.1885)" gradientUnits="userSpaceOnUse">
				<stop  offset="0.1966" style="stop-color:#E19C5C"/>
				<stop  offset="1" style="stop-color:#9E583F"/>
			</radialGradient>
			<ellipse fill="url(#SVGID_8_)" cx="246.548" cy="438.474" rx="13.478" ry="10.585"/>
			<g>
				<g>
					<path fill="#79291C" d="M230.494,430.264c-0.159,0.092-3.891,2.236-8.365,2.236h-1.062c-4.476,0-8.209-2.146-8.366-2.237
						l-2.024-1.21v21.477c-0.004,0.54,0.019,5.497,1.879,9.91c1.826,4.332,4.689,6.53,8.512,6.53h1.062
						c3.821,0,6.686-2.198,8.513-6.53c1.903-4.52,1.88-9.732,1.879-9.952v-21.435C232.521,429.053,230.505,430.258,230.494,430.264z
						"/>
					<path fill="#79291C" d="M230.854,431.455c-0.04,0.023-3.972,2.339-8.726,2.339h-1.062c-4.753,0-8.686-2.315-8.725-2.339
						l-0.74-0.441v19.516c-0.001,0.18-0.021,5.049,1.751,9.252c1.648,3.913,4.244,5.896,7.714,5.896h1.062
						c3.47,0,6.065-1.983,7.714-5.896c1.772-4.203,1.753-9.072,1.751-9.277v-19.49L230.854,431.455z"/>
					<path fill="#FFC709" d="M222.129,435.863h-1.062c-4.03,0-7.479-1.625-8.576-2.201c0,1.574,0,16.872,0,16.877
						c0,0.211,0.021,4.312,1.506,7.817c1.476,3.485,3.855,5.253,7.07,5.253h1.062c3.216,0,5.594-1.768,7.069-5.253
						c1.485-3.508,1.507-7.614,1.507-7.808c0-0.004,0-15.312,0-16.887C229.607,434.238,226.159,435.863,222.129,435.863z"/>
					<g>
						<path fill="#FFC709" d="M216.869,443.1c2.034,0,7.424,0,9.457,0c1.811,0,3.242-0.592,4.379-1.566v-7.871
							c-1.098,0.576-4.546,2.201-8.576,2.201h-1.062c-4.03,0-7.479-1.625-8.576-2.201v7.871
							C213.626,442.508,215.059,443.1,216.869,443.1z"/>
						<path fill="#FFC60A" d="M216.869,443.063c2.035,0,7.424,0,9.458,0c1.811,0,3.242-0.591,4.378-1.566v-7.835
							c-1.098,0.576-4.546,2.201-8.576,2.201h-1.062c-4.03,0-7.479-1.625-8.576-2.201v7.835
							C213.625,442.473,215.059,443.063,216.869,443.063z"/>
						<path fill="#FFC50A" d="M216.869,443.028c2.034,0,7.424,0,9.457,0c1.811,0,3.242-0.592,4.379-1.566v-7.8
							c-1.098,0.576-4.546,2.201-8.576,2.201h-1.062c-4.03,0-7.479-1.625-8.576-2.201v7.8
							C213.626,442.437,215.059,443.028,216.869,443.028z"/>
						<path fill="#FEC40B" d="M216.869,442.993c2.034,0,7.424,0,9.458,0c1.81,0,3.242-0.592,4.379-1.566v-7.765
							c-1.098,0.576-4.546,2.201-8.577,2.201h-1.062c-4.03,0-7.479-1.625-8.576-2.201v7.765
							C213.626,442.401,215.059,442.993,216.869,442.993z"/>
						<path fill="#FDC30C" d="M216.869,442.957c2.034,0,7.424,0,9.457,0c1.811,0,3.243-0.592,4.379-1.566v-7.729
							c-1.098,0.576-4.546,2.201-8.576,2.201h-1.063c-4.03,0-7.478-1.625-8.576-2.201v7.729
							C213.625,442.365,215.058,442.957,216.869,442.957z"/>
						<path fill="#FDC20C" d="M216.869,442.921c2.034,0,7.424,0,9.457,0c1.811,0,3.242-0.591,4.379-1.565v-7.693
							c-1.098,0.576-4.546,2.201-8.577,2.201h-1.062c-4.03,0-7.479-1.625-8.577-2.201v7.693
							C213.626,442.33,215.059,442.921,216.869,442.921z"/>
						<path fill="#FCC10D" d="M216.869,442.886c2.034,0,7.424,0,9.457,0c1.811,0,3.242-0.592,4.379-1.566v-7.657
							c-1.098,0.576-4.546,2.201-8.576,2.201h-1.062c-4.03,0-7.479-1.625-8.576-2.201v7.657
							C213.626,442.294,215.059,442.886,216.869,442.886z"/>
						<path fill="#FCC00E" d="M216.87,442.851c2.034,0,7.423,0,9.457,0c1.811,0,3.242-0.592,4.379-1.566v-7.622
							c-1.098,0.576-4.545,2.201-8.576,2.201h-1.062c-4.03,0-7.479-1.625-8.576-2.201v7.622
							C213.626,442.259,215.059,442.851,216.87,442.851z"/>
						<path fill="#FBBF0E" d="M216.87,442.814c2.034,0,7.423,0,9.457,0c1.81,0,3.242-0.592,4.379-1.565v-7.587
							c-1.098,0.576-4.546,2.201-8.577,2.201h-1.062c-4.03,0-7.479-1.625-8.577-2.201v7.587
							C213.626,442.223,215.059,442.814,216.87,442.814z"/>
						<path fill="#FBBE0F" d="M216.869,442.779c2.034,0,7.424,0,9.457,0c1.811,0,3.242-0.592,4.379-1.566v-7.551
							c-1.098,0.576-4.546,2.201-8.577,2.201h-1.062c-4.031,0-7.479-1.625-8.576-2.201v7.551
							C213.626,442.188,215.059,442.779,216.869,442.779z"/>
						<path fill="#FBBD0F" d="M216.869,442.743c2.034,0,7.424,0,9.457,0c1.811,0,3.242-0.591,4.379-1.565v-7.516
							c-1.098,0.576-4.546,2.201-8.576,2.201h-1.062c-4.03,0-7.479-1.625-8.576-2.201v7.516
							C213.626,442.152,215.059,442.743,216.869,442.743z"/>
						<path fill="#FABD0F" d="M216.87,442.708c2.034,0,7.423,0,9.457,0c1.811,0,3.242-0.592,4.379-1.566v-7.479
							c-1.098,0.576-4.546,2.201-8.576,2.201h-1.062c-4.03,0-7.479-1.625-8.576-2.201v7.479
							C213.626,442.116,215.059,442.708,216.87,442.708z"/>
						<path fill="#FABC10" d="M216.869,442.672c2.034,0,7.424,0,9.457,0c1.81,0,3.242-0.592,4.378-1.566v-7.443
							c-1.098,0.576-4.546,2.201-8.576,2.201h-1.062c-4.03,0-7.479-1.625-8.576-2.201v7.443
							C213.625,442.08,215.058,442.672,216.869,442.672z"/>
						<path fill="#F9BB10" d="M216.869,442.637c2.034,0,7.424,0,9.457,0c1.81,0,3.242-0.592,4.379-1.566v-7.408
							c-1.098,0.576-4.546,2.201-8.576,2.201h-1.062c-4.03,0-7.479-1.625-8.576-2.201v7.408
							C213.626,442.045,215.058,442.637,216.869,442.637z"/>
						<path fill="#F9BA11" d="M216.869,442.601c2.034,0,7.424,0,9.457,0c1.811,0,3.242-0.591,4.379-1.565v-7.373
							c-1.098,0.576-4.546,2.201-8.576,2.201h-1.062c-4.03,0-7.479-1.625-8.576-2.201v7.373
							C213.626,442.01,215.059,442.601,216.869,442.601z"/>
						<path fill="#F8B911" d="M216.869,442.565c2.035,0,7.424,0,9.458,0c1.811,0,3.242-0.592,4.378-1.566v-7.337
							c-1.098,0.576-4.546,2.201-8.576,2.201h-1.062c-4.03,0-7.479-1.625-8.576-2.201v7.337
							C213.626,441.974,215.059,442.565,216.869,442.565z"/>
						<path fill="#F8B811" d="M216.87,442.53c2.034,0,7.423,0,9.457,0c1.811,0,3.242-0.593,4.379-1.567v-7.301
							c-1.098,0.576-4.545,2.201-8.576,2.201h-1.062c-4.03,0-7.479-1.625-8.576-2.201v7.301
							C213.626,441.938,215.059,442.53,216.87,442.53z"/>
						<path fill="#F8B712" d="M216.869,442.494c2.034,0,7.424,0,9.457,0c1.811,0,3.242-0.592,4.379-1.566v-7.266
							c-1.098,0.576-4.546,2.201-8.576,2.201h-1.062c-4.03,0-7.479-1.625-8.576-2.201v7.266
							C213.626,441.902,215.059,442.494,216.869,442.494z"/>
						<path fill="#F7B612" d="M216.869,442.458c2.034,0,7.424,0,9.457,0c1.811,0,3.242-0.591,4.379-1.566v-7.229
							c-1.098,0.576-4.546,2.201-8.576,2.201h-1.062c-4.03,0-7.479-1.625-8.576-2.201v7.229
							C213.625,441.867,215.059,442.458,216.869,442.458z"/>
						<path fill="#F7B513" d="M216.869,442.423c2.034,0,7.424,0,9.457,0c1.811,0,3.242-0.592,4.379-1.566v-7.194
							c-1.098,0.576-4.546,2.201-8.576,2.201h-1.062c-4.03,0-7.479-1.625-8.576-2.201v7.194
							C213.626,441.831,215.059,442.423,216.869,442.423z"/>
						<path fill="#F7B413" d="M216.87,442.387c2.034,0,7.423,0,9.457,0c1.811,0,3.242-0.591,4.379-1.565v-7.159
							c-1.098,0.576-4.546,2.201-8.576,2.201h-1.062c-4.031,0-7.479-1.625-8.577-2.201v7.159
							C213.626,441.796,215.059,442.387,216.87,442.387z"/>
						<path fill="#F6B413" d="M216.869,442.352c2.034,0,7.424,0,9.457,0c1.811,0,3.242-0.592,4.379-1.566v-7.123
							c-1.098,0.576-4.546,2.201-8.576,2.201h-1.062c-4.03,0-7.479-1.625-8.576-2.201v7.123
							C213.626,441.76,215.059,442.352,216.869,442.352z"/>
						<path fill="#F6B313" d="M216.869,442.315c2.034,0,7.424,0,9.457,0c1.811,0,3.242-0.591,4.378-1.566v-7.087
							c-1.097,0.576-4.545,2.201-8.576,2.201h-1.062c-4.03,0-7.479-1.625-8.576-2.201v7.087
							C213.626,441.725,215.059,442.315,216.869,442.315z"/>
						<path fill="#F6B214" d="M216.869,442.28c2.034,0,7.424,0,9.457,0c1.811,0,3.242-0.592,4.379-1.566v-7.052
							c-1.098,0.576-4.546,2.201-8.576,2.201h-1.062c-4.03,0-7.479-1.625-8.576-2.201v7.052
							C213.626,441.688,215.059,442.28,216.869,442.28z"/>
						<path fill="#F5B114" d="M216.869,442.244c2.034,0,7.424,0,9.457,0c1.811,0,3.242-0.591,4.379-1.565v-7.017
							c-1.098,0.576-4.546,2.201-8.576,2.201h-1.063c-4.03,0-7.479-1.625-8.576-2.201v7.017
							C213.626,441.653,215.059,442.244,216.869,442.244z"/>
						<path fill="#F5B014" d="M216.869,442.209c2.034,0,7.424,0,9.457,0c1.811,0,3.242-0.592,4.379-1.566v-6.98
							c-1.098,0.576-4.546,2.201-8.576,2.201h-1.062c-4.03,0-7.479-1.625-8.576-2.201v6.98
							C213.626,441.617,215.059,442.209,216.869,442.209z"/>
						<path fill="#F4AF15" d="M216.869,442.173c2.034,0,7.424,0,9.457,0c1.811,0,3.242-0.591,4.379-1.565v-6.945
							c-1.098,0.576-4.546,2.201-8.576,2.201h-1.062c-4.03,0-7.479-1.625-8.576-2.201v6.945
							C213.625,441.582,215.059,442.173,216.869,442.173z"/>
						<path fill="#F4AE15" d="M216.869,442.138c2.034,0,7.424,0,9.457,0c1.811,0,3.242-0.591,4.379-1.566v-6.909
							c-1.098,0.576-4.546,2.201-8.576,2.201h-1.062c-4.03,0-7.479-1.625-8.576-2.201v6.909
							C213.626,441.547,215.059,442.138,216.869,442.138z"/>
						<path fill="#F4AD15" d="M216.869,442.102c2.034,0,7.424,0,9.458,0c1.81,0,3.242-0.591,4.378-1.565v-6.874
							c-1.097,0.576-4.546,2.201-8.576,2.201h-1.063c-4.03,0-7.479-1.625-8.576-2.201v6.874
							C213.626,441.511,215.059,442.102,216.869,442.102z"/>
						<path fill="#F3AD15" d="M216.869,442.066c2.034,0,7.424,0,9.457,0c1.811,0,3.242-0.592,4.379-1.566v-6.838
							c-1.098,0.576-4.546,2.201-8.576,2.201h-1.062c-4.03,0-7.479-1.625-8.576-2.201v6.838
							C213.626,441.475,215.059,442.066,216.869,442.066z"/>
						<path fill="#F3AC16" d="M216.869,442.03c2.034,0,7.424,0,9.457,0c1.811,0,3.242-0.591,4.379-1.565v-6.803
							c-1.098,0.576-4.546,2.201-8.576,2.201h-1.062c-4.031,0-7.479-1.625-8.576-2.201v6.803
							C213.626,441.439,215.059,442.03,216.869,442.03z"/>
						<path fill="#F3AB16" d="M216.869,441.995c2.034,0,7.424,0,9.457,0c1.811,0,3.242-0.591,4.379-1.565v-6.768
							c-1.098,0.576-4.546,2.201-8.576,2.201h-1.062c-4.03,0-7.479-1.625-8.576-2.201v6.768
							C213.626,441.404,215.059,441.995,216.869,441.995z"/>
						<path fill="#F2AA16" d="M216.869,441.959c2.034,0,7.424,0,9.457,0c1.811,0,3.242-0.591,4.379-1.565v-6.731
							c-1.098,0.576-4.546,2.201-8.576,2.201h-1.062c-4.03,0-7.479-1.625-8.576-2.201v6.731
							C213.626,441.368,215.059,441.959,216.869,441.959z"/>
						<path fill="#F2A916" d="M216.869,441.924c2.034,0,7.424,0,9.457,0c1.811,0,3.242-0.591,4.379-1.566v-6.695
							c-1.098,0.576-4.546,2.201-8.576,2.201h-1.062c-4.03,0-7.479-1.625-8.576-2.201v6.695
							C213.626,441.333,215.059,441.924,216.869,441.924z"/>
						<path fill="#F2A817" d="M216.869,441.888c2.034,0,7.424,0,9.457,0c1.811,0,3.242-0.591,4.379-1.565v-6.66
							c-1.098,0.576-4.546,2.201-8.576,2.201h-1.062c-4.03,0-7.479-1.625-8.576-2.201v6.66
							C213.626,441.297,215.059,441.888,216.869,441.888z"/>
						<path fill="#F1A817" d="M216.869,441.853c2.034,0,7.424,0,9.457,0c1.811,0,3.242-0.591,4.379-1.565v-6.625
							c-1.098,0.576-4.546,2.201-8.576,2.201h-1.062c-4.03,0-7.479-1.625-8.576-2.201v6.625
							C213.626,441.262,215.059,441.853,216.869,441.853z"/>
						<path fill="#F1A717" d="M216.869,441.816c2.034,0,7.424,0,9.457,0c1.811,0,3.242-0.591,4.379-1.564v-6.59
							c-1.098,0.576-4.546,2.201-8.576,2.201h-1.062c-4.03,0-7.479-1.625-8.576-2.201v6.59
							C213.626,441.226,215.059,441.816,216.869,441.816z"/>
						<path fill="#F1A617" d="M216.869,441.781c2.034,0,7.424,0,9.457,0c1.811,0,3.242-0.591,4.379-1.565v-6.554
							c-1.098,0.576-4.546,2.201-8.576,2.201h-1.062c-4.03,0-7.479-1.625-8.576-2.201v6.554
							C213.626,441.19,215.059,441.781,216.869,441.781z"/>
						<path fill="#F0A517" d="M216.869,441.746c2.034,0,7.424,0,9.457,0c1.811,0,3.242-0.592,4.379-1.566v-6.518
							c-1.098,0.576-4.546,2.201-8.576,2.201h-1.062c-4.03,0-7.479-1.625-8.576-2.201v6.518
							C213.626,441.154,215.059,441.746,216.869,441.746z"/>
						<path fill="#F0A418" d="M216.869,441.71c2.034,0,7.424,0,9.457,0c1.811,0,3.242-0.591,4.379-1.565v-6.482
							c-1.098,0.576-4.546,2.201-8.576,2.201h-1.062c-4.03,0-7.479-1.625-8.576-2.201v6.482
							C213.626,441.119,215.059,441.71,216.869,441.71z"/>
						<path fill="#F0A318" d="M216.869,441.674c2.034,0,7.424,0,9.457,0c1.811,0,3.242-0.59,4.379-1.565v-6.446
							c-1.098,0.576-4.546,2.201-8.576,2.201h-1.062c-4.03,0-7.479-1.625-8.576-2.201v6.446
							C213.626,441.084,215.059,441.674,216.869,441.674z"/>
						<path fill="#F0A318" d="M216.869,441.639c2.034,0,7.424,0,9.457,0c1.811,0,3.242-0.591,4.379-1.565v-6.411
							c-1.098,0.576-4.546,2.201-8.576,2.201h-1.062c-4.03,0-7.479-1.625-8.576-2.201v6.411
							C213.626,441.048,215.059,441.639,216.869,441.639z"/>
						<path fill="#EFA218" d="M216.869,441.604c2.034,0,7.424,0,9.457,0c1.811,0,3.242-0.592,4.379-1.566v-6.375
							c-1.098,0.576-4.546,2.201-8.576,2.201h-1.062c-4.03,0-7.479-1.625-8.576-2.201v6.375
							C213.626,441.012,215.059,441.604,216.869,441.604z"/>
						<path fill="#EFA118" d="M216.869,441.567c2.034,0,7.424,0,9.457,0c1.811,0,3.242-0.591,4.379-1.565v-6.34
							c-1.098,0.576-4.546,2.201-8.576,2.201h-1.062c-4.03,0-7.479-1.625-8.576-2.201v6.34
							C213.626,440.977,215.059,441.567,216.869,441.567z"/>
						<path fill="#EFA018" d="M216.869,441.532c2.034,0,7.424,0,9.457,0c1.811,0,3.242-0.591,4.379-1.566v-6.304
							c-1.098,0.576-4.546,2.201-8.576,2.201h-1.062c-4.03,0-7.479-1.625-8.576-2.201v6.304
							C213.626,440.941,215.059,441.532,216.869,441.532z"/>
						<path fill="#EE9F19" d="M216.869,441.496c2.034,0,7.424,0,9.457,0c1.811,0,3.242-0.591,4.379-1.565v-6.269
							c-1.098,0.576-4.546,2.201-8.576,2.201h-1.062c-4.03,0-7.479-1.625-8.576-2.201v6.269
							C213.626,440.905,215.059,441.496,216.869,441.496z"/>
						<path fill="#EE9F19" d="M216.869,441.461c2.034,0,7.424,0,9.457,0c1.811,0,3.242-0.592,4.379-1.566v-6.232
							c-1.098,0.576-4.546,2.201-8.576,2.201h-1.062c-4.03,0-7.479-1.625-8.576-2.201v6.232
							C213.626,440.869,215.059,441.461,216.869,441.461z"/>
						<path fill="#EE9E19" d="M216.869,441.425c2.034,0,7.424,0,9.457,0c1.811,0,3.242-0.591,4.379-1.565v-6.197
							c-1.098,0.576-4.546,2.201-8.576,2.201h-1.062c-4.03,0-7.479-1.625-8.576-2.201v6.197
							C213.626,440.834,215.059,441.425,216.869,441.425z"/>
						<path fill="#ED9D19" d="M216.869,441.39c2.034,0,7.424,0,9.457,0c1.811,0,3.242-0.591,4.379-1.565v-6.162
							c-1.098,0.576-4.546,2.201-8.576,2.201h-1.062c-4.03,0-7.479-1.625-8.576-2.201v6.162
							C213.626,440.799,215.059,441.39,216.869,441.39z"/>
						<path fill="#ED9C19" d="M216.869,441.354c2.034,0,7.424,0,9.457,0c1.811,0,3.242-0.591,4.379-1.565v-6.126
							c-1.098,0.576-4.546,2.201-8.576,2.201h-1.062c-4.03,0-7.479-1.625-8.576-2.201v6.126
							C213.626,440.763,215.059,441.354,216.869,441.354z"/>
						<path fill="#ED9B19" d="M216.869,441.318c2.034,0,7.424,0,9.457,0c1.811,0,3.242-0.591,4.379-1.565v-6.091
							c-1.098,0.576-4.546,2.201-8.576,2.201h-1.062c-4.03,0-7.479-1.625-8.576-2.201v6.091
							C213.626,440.728,215.059,441.318,216.869,441.318z"/>
						<path fill="#ED9B19" d="M216.869,441.282c2.034,0,7.424,0,9.457,0c1.811,0,3.242-0.591,4.379-1.565v-6.055
							c-1.098,0.576-4.546,2.201-8.576,2.201h-1.062c-4.03,0-7.479-1.625-8.576-2.201v6.055
							C213.626,440.691,215.059,441.282,216.869,441.282z"/>
						<path fill="#EC9A19" d="M216.869,441.247c2.034,0,7.424,0,9.457,0c1.811,0,3.242-0.591,4.379-1.565v-6.02
							c-1.098,0.576-4.546,2.201-8.576,2.201h-1.062c-4.03,0-7.479-1.625-8.576-2.201v6.02
							C213.626,440.656,215.059,441.247,216.869,441.247z"/>
						<path fill="#EC991A" d="M216.869,441.211c2.034,0,7.424,0,9.457,0c1.811,0,3.242-0.591,4.379-1.565v-5.983
							c-1.098,0.576-4.546,2.201-8.576,2.201h-1.062c-4.03,0-7.479-1.625-8.576-2.201v5.983
							C213.626,440.62,215.059,441.211,216.869,441.211z"/>
						<path fill="#EC981A" d="M216.869,441.176c2.034,0,7.424,0,9.457,0c1.811,0,3.242-0.591,4.379-1.565v-5.948
							c-1.098,0.576-4.546,2.201-8.576,2.201h-1.062c-4.03,0-7.479-1.625-8.576-2.201v5.948
							C213.626,440.585,215.059,441.176,216.869,441.176z"/>
						<path fill="#EB971A" d="M216.869,441.14c2.034,0,7.424,0,9.457,0c1.811,0,3.242-0.591,4.379-1.565v-5.912
							c-1.098,0.576-4.546,2.201-8.576,2.201h-1.062c-4.03,0-7.479-1.625-8.576-2.201v5.912
							C213.626,440.549,215.059,441.14,216.869,441.14z"/>
						<path fill="#EB971A" d="M216.869,441.104c2.034,0,7.424,0,9.457,0c1.811,0,3.242-0.591,4.379-1.565v-5.877
							c-1.098,0.576-4.546,2.201-8.576,2.201h-1.062c-4.03,0-7.479-1.625-8.576-2.201v5.877
							C213.626,440.514,215.059,441.104,216.869,441.104z"/>
						<path fill="#EB961A" d="M216.869,441.068c2.034,0,7.424,0,9.457,0c1.811,0,3.242-0.59,4.379-1.564v-5.842
							c-1.098,0.576-4.546,2.201-8.576,2.201h-1.062c-4.03,0-7.479-1.625-8.576-2.201v5.842
							C213.626,440.479,215.059,441.068,216.869,441.068z"/>
						<path fill="#EA951A" d="M216.869,441.033c2.034,0,7.424,0,9.457,0c1.811,0,3.242-0.591,4.379-1.565v-5.806
							c-1.098,0.576-4.546,2.201-8.576,2.201h-1.062c-4.03,0-7.479-1.625-8.576-2.201v5.806
							C213.626,440.442,215.059,441.033,216.869,441.033z"/>
						<path fill="#EA941A" d="M216.869,440.998c2.034,0,7.424,0,9.457,0c1.811,0,3.242-0.592,4.379-1.565v-5.771
							c-1.098,0.576-4.546,2.201-8.576,2.201h-1.062c-4.03,0-7.479-1.625-8.576-2.201v5.771
							C213.626,440.406,215.059,440.998,216.869,440.998z"/>
						<path fill="#EA931A" d="M216.869,440.962c2.034,0,7.424,0,9.457,0c1.811,0,3.242-0.591,4.379-1.565v-5.734
							c-1.098,0.576-4.546,2.201-8.576,2.201h-1.062c-4.03,0-7.479-1.625-8.576-2.201v5.734
							C213.626,440.371,215.059,440.962,216.869,440.962z"/>
						<path fill="#EA931A" d="M216.869,440.926c2.034,0,7.424,0,9.457,0c1.811,0,3.242-0.59,4.379-1.564v-5.699
							c-1.098,0.576-4.546,2.201-8.576,2.201h-1.062c-4.03,0-7.479-1.625-8.576-2.201v5.699
							C213.626,440.336,215.059,440.926,216.869,440.926z"/>
						<path fill="#E9921A" d="M221.066,435.863c-4.03,0-7.479-1.625-8.576-2.201v5.663c1.136,0.975,2.568,1.565,4.379,1.565
							c2.034,0,7.424,0,9.457,0c1.811,0,3.242-0.591,4.379-1.565v-5.663c-1.098,0.576-4.546,2.201-8.576,2.201H221.066z"/>
					</g>
				</g>
				<g>
					<path fill="#79291C" d="M221.01,398.748c-1.911,0-15.264,14.633-15.264,23.869c0,10.359,1.333,15.619,8.617,15.619h14.472
						c7.286,0,8.614-5.26,8.614-15.619c0-9.236-13.351-23.869-15.262-23.869H221.01z"/>
					
						<radialGradient id="SVGID_9_" cx="196.3291" cy="391.6006" r="30.6694" gradientTransform="matrix(0.7476 0 0 1.3966 73.4355 -153.1328)" gradientUnits="userSpaceOnUse">
						<stop  offset="0.1348" style="stop-color:#FFE079"/>
						<stop  offset="0.2047" style="stop-color:#FFDE72"/>
						<stop  offset="0.3167" style="stop-color:#FFD85B"/>
						<stop  offset="0.4561" style="stop-color:#FFCE30"/>
						<stop  offset="0.5337" style="stop-color:#FFC709"/>
						<stop  offset="0.6053" style="stop-color:#F5BA0F"/>
						<stop  offset="0.7198" style="stop-color:#E19E15"/>
						<stop  offset="0.7247" style="stop-color:#E09D15"/>
						<stop  offset="0.9719" style="stop-color:#FFC709"/>
					</radialGradient>
					<path fill="url(#SVGID_9_)" d="M221.017,401.981c-1.71,0.229-13.886,13.407-13.886,20.269c0,8.628,0.685,12.41,7.232,12.41
						h14.472c6.547,0,7.232-3.782,7.232-12.41c0-6.846-12.181-20.039-13.889-20.27C222.179,401.98,221.032,401.981,221.017,401.981z
						"/>
				</g>
				<g>
					<path fill="#79291C" d="M215.979,412.421c0,0.829,0.651,2.855,1.504,2.855c0.854,0,1.505-2.026,1.505-2.855
						c0-1.278-0.375-1.874-1.505-1.874C216.732,410.547,215.979,411.143,215.979,412.421z"/>
					<path fill="#79291C" d="M224.209,412.421c0,0.829,0.651,2.855,1.504,2.855c0.854,0,1.505-2.026,1.505-2.855
						c0-1.278-0.375-1.874-1.505-1.874C224.962,410.547,224.209,411.143,224.209,412.421z"/>
				</g>
			</g>
		</g>
	</g>
</g>
</svg>
