<?xml version="1.0" encoding="UTF-8" standalone="no"?>
<!-- Generator: Adobe Illustrator 15.0.0, SVG Export Plug-In . SVG Version: 6.00 Build 0)  -->

<svg
   xmlns:dc="http://purl.org/dc/elements/1.1/"
   xmlns:cc="http://creativecommons.org/ns#"
   xmlns:rdf="http://www.w3.org/1999/02/22-rdf-syntax-ns#"
   xmlns:svg="http://www.w3.org/2000/svg"
   xmlns="http://www.w3.org/2000/svg"
   xmlns:sodipodi="http://sodipodi.sourceforge.net/DTD/sodipodi-0.dtd"
   xmlns:inkscape="http://www.inkscape.org/namespaces/inkscape"
   version="1.1"
   id="Layer_1"
   x="0px"
   y="0px"
   width="104.836"
   height="152.00101"
   viewBox="0 0 104.836 152.00101"
   enable-background="new 0 0 612 792"
   xml:space="preserve"
   inkscape:version="0.48.3.1 r9886"
   sodipodi:docname="turkey_head_eyes-normal.svg"><metadata
   id="metadata4569"><rdf:RDF><cc:Work
       rdf:about=""><dc:format>image/svg+xml</dc:format><dc:type
         rdf:resource="http://purl.org/dc/dcmitype/StillImage" /></cc:Work></rdf:RDF></metadata><defs
   id="defs4567" /><sodipodi:namedview
   pagecolor="#ffffff"
   bordercolor="#666666"
   borderopacity="1"
   objecttolerance="10"
   gridtolerance="10"
   guidetolerance="10"
   inkscape:pageopacity="0"
   inkscape:pageshadow="2"
   inkscape:window-width="1916"
   inkscape:window-height="1177"
   id="namedview4565"
   showgrid="false"
   fit-margin-top="0"
   fit-margin-left="0"
   fit-margin-right="0"
   fit-margin-bottom="0"
   inkscape:zoom="0.2979798"
   inkscape:cx="136.282"
   inkscape:cy="104.487"
   inkscape:window-x="0"
   inkscape:window-y="19"
   inkscape:window-maximized="0"
   inkscape:current-layer="Layer_1" />
<g
   id="g4300"
   transform="translate(-169.718,-348.486)">
	<g
   id="g4302">
		<path
   d="m 274.554,394.794 c 0,25.577 -23.464,46.307 -52.418,46.307 -28.957,0 -52.418,-20.73 -52.418,-46.307 0,-25.574 23.461,-46.308 52.418,-46.308 28.954,0 52.418,20.735 52.418,46.308 z"
   id="path4304"
   inkscape:connector-curvature="0"
   style="fill:#79291c" />
		
			<radialGradient
   id="SVGID_1_"
   cx="167.3604"
   cy="348.78119"
   r="146.5262"
   gradientTransform="matrix(0.961,0,0,0.6635,11.0332,122.1885)"
   gradientUnits="userSpaceOnUse">
			<stop
   offset="0.1966"
   style="stop-color:#E19C5C"
   id="stop4307" />
			<stop
   offset="1"
   style="stop-color:#9E583F"
   id="stop4309" />
		</radialGradient>
		<path
   d="m 271.161,394.316 c 0,23.92 -21.945,43.309 -49.025,43.309 -27.084,0 -49.026,-19.389 -49.026,-43.309 0,-23.919 21.942,-43.312 49.026,-43.312 27.08,0 49.025,19.393 49.025,43.312 z"
   id="path4311"
   inkscape:connector-curvature="0"
   style="fill:url(#SVGID_1_)" />
	</g>
	<g
   id="g4313">
		<path
   d="m 212.669,441.601 0.413,3.966 c 1.271,12.214 -0.312,25.795 -4.71,40.367 -1.076,3.563 -0.429,7.547 1.688,10.398 1.991,2.679 5.13,4.155 8.84,4.155 1.435,0 2.634,-0.59 3.697,-1.517 1.062,0.927 2.262,1.517 3.696,1.517 3.712,0 6.852,-1.477 8.841,-4.155 2.118,-2.852 2.764,-6.835 1.688,-10.399 -4.397,-14.573 -5.982,-28.155 -4.709,-40.366 l 0.414,-3.966 h -19.858 z"
   id="path4315"
   inkscape:connector-curvature="0"
   style="fill:#79291c" />
		<radialGradient
   id="SVGID_2_"
   cx="221.3564"
   cy="468.0361"
   r="42.339298"
   gradientUnits="userSpaceOnUse">
			<stop
   offset="0.1966"
   style="stop-color:#B80A3C"
   id="stop4318" />
			<stop
   offset="0.6236"
   style="stop-color:#F47B20"
   id="stop4320" />
		</radialGradient>
		<path
   d="m 228.54,445.194 h -11.884 c 1.062,10.202 0.479,24.136 -4.844,41.776 -1.174,3.891 0.472,9.923 7.088,9.923 1.776,0 2.95,-2.229 3.697,-5.646 0.748,3.416 1.921,5.646 3.696,5.646 6.618,0 8.264,-6.032 7.089,-9.923 -5.322,-17.64 -5.905,-31.574 -4.842,-41.776 z"
   id="path4322"
   inkscape:connector-curvature="0"
   style="fill:url(#SVGID_2_)" />
	</g>
	<path
   d="m 212.316,364.326 c -10.579,-2.538 -25.573,2.496 -32.348,15.313 l 0,0 c -6.968,13.18 -5.534,23.613 3.938,28.624 9.888,5.226 22.198,-0.89 28.767,-13.315 5.204,-9.841 8.025,-20.075 5.415,-25.854 -1.14,-2.519 -3.079,-4.123 -5.772,-4.768 z"
   id="path4324"
   inkscape:connector-curvature="0"
   style="fill:#79291c" />
	
		<radialGradient
   id="SVGID_3_"
   cx="202.4404"
   cy="328.41461"
   r="39.933399"
   gradientTransform="matrix(0.9724,0.2332,-0.2332,0.9724,79.9878,5.9336)"
   gradientUnits="userSpaceOnUse">
		<stop
   offset="0.4045"
   style="stop-color:#FFFFFF"
   id="stop4327" />
		<stop
   offset="0.6573"
   style="stop-color:#DDD1C2"
   id="stop4329" />
		<stop
   offset="0.8202"
   style="stop-color:#E8DDD8"
   id="stop4331" />
	</radialGradient>
	<path
   d="m 210.331,367.161 c -9.213,-2.21 -22.27,2.175 -28.169,13.336 l 0,0 c -6.068,11.477 -4.819,20.562 3.429,24.925 8.61,4.551 19.33,-0.775 25.051,-11.594 4.531,-8.57 6.987,-17.482 4.714,-22.514 -0.993,-2.193 -2.682,-3.59 -5.025,-4.153 z"
   id="path4333"
   inkscape:connector-curvature="0"
   style="fill:url(#SVGID_3_)" />
	<g
   id="g4335">
		<path
   d="m 208.756,386.894 c -1.691,7.054 -8.04,11.598 -14.146,10.134 -6.11,-1.465 -9.706,-8.396 -8.015,-15.45 1.692,-7.054 8.041,-11.599 14.15,-10.132 6.107,1.465 9.703,8.394 8.011,15.448 z"
   id="path4337"
   inkscape:connector-curvature="0"
   style="fill:#0092c8" />
		
			<radialGradient
   id="SVGID_4_"
   cx="369.84769"
   cy="340.42041"
   r="11.1025"
   gradientTransform="matrix(-0.9724,-0.2332,-0.2332,0.9724,636.7227,139.4692)"
   gradientUnits="userSpaceOnUse">
			<stop
   offset="0.4494"
   style="stop-color:#B9E5FB"
   id="stop4340" />
			<stop
   offset="0.9944"
   style="stop-color:#00AEEF"
   id="stop4342" />
		</radialGradient>
		<path
   d="m 187.768,381.86 c -1.539,6.416 1.65,12.681 7.124,13.994 5.469,1.312 11.151,-2.826 12.69,-9.241 1.539,-6.416 -1.648,-12.682 -7.118,-13.993 -5.473,-1.313 -11.157,2.825 -12.696,9.24 z"
   id="path4344"
   inkscape:connector-curvature="0"
   style="fill:url(#SVGID_4_)" />
		<circle
   cx="198.20599"
   cy="383.909"
   r="5.3449998"
   id="circle4346"
   sodipodi:cx="198.20599"
   sodipodi:cy="383.909"
   sodipodi:rx="5.3449998"
   sodipodi:ry="5.3449998"
   d="m 203.55099,383.909 c 0,2.95196 -2.39303,5.345 -5.345,5.345 -2.95196,0 -5.345,-2.39304 -5.345,-5.345 0,-2.95197 2.39304,-5.345 5.345,-5.345 2.95197,0 5.345,2.39303 5.345,5.345 z" />
		<circle
   cx="200.299"
   cy="382.73199"
   r="1.697"
   id="circle4348"
   sodipodi:cx="200.299"
   sodipodi:cy="382.73199"
   sodipodi:rx="1.697"
   sodipodi:ry="1.697"
   style="fill:#ffffff"
   d="m 201.996,382.73199 c 0,0.93723 -0.75978,1.697 -1.697,1.697 -0.93723,0 -1.697,-0.75977 -1.697,-1.697 0,-0.93722 0.75977,-1.697 1.697,-1.697 0.93722,0 1.697,0.75978 1.697,1.697 z" />
	</g>
	<path
   d="m 231.991,364.326 c 10.579,-2.538 25.574,2.496 32.348,15.313 l 0,0 c 6.969,13.18 5.534,23.613 -3.938,28.624 -9.888,5.226 -22.198,-0.89 -28.767,-13.315 -5.204,-9.841 -8.025,-20.075 -5.415,-25.854 1.14,-2.519 3.079,-4.123 5.772,-4.768 z"
   id="path4350"
   inkscape:connector-curvature="0"
   style="fill:#79291c" />
	
		<radialGradient
   id="SVGID_5_"
   cx="-199.0215"
   cy="424.70801"
   r="39.933899"
   gradientTransform="matrix(-0.9724,0.2332,0.2332,0.9724,-48.5293,5.9336)"
   gradientUnits="userSpaceOnUse">
		<stop
   offset="0.4045"
   style="stop-color:#FFFFFF"
   id="stop4353" />
		<stop
   offset="0.6573"
   style="stop-color:#DDD1C2"
   id="stop4355" />
		<stop
   offset="0.8202"
   style="stop-color:#E8DDD8"
   id="stop4357" />
	</radialGradient>
	<path
   d="m 233.977,367.161 c 9.213,-2.21 22.27,2.175 28.169,13.336 l 0,0 c 6.068,11.477 4.819,20.562 -3.429,24.925 -8.609,4.551 -19.33,-0.775 -25.051,-11.594 -4.531,-8.57 -6.987,-17.482 -4.714,-22.514 0.992,-2.193 2.681,-3.59 5.025,-4.153 z"
   id="path4359"
   inkscape:connector-curvature="0"
   style="fill:url(#SVGID_5_)" />
	<path
   d="m 235.551,386.894 c 1.691,7.054 8.04,11.598 14.147,10.134 6.11,-1.465 9.706,-8.396 8.015,-15.45 -1.692,-7.054 -8.041,-11.599 -14.151,-10.132 -6.107,1.465 -9.703,8.394 -8.011,15.448 z"
   id="path4361"
   inkscape:connector-curvature="0"
   style="fill:#0092c8" />
	
		<radialGradient
   id="SVGID_6_"
   cx="771.30957"
   cy="436.71289"
   r="11.1023"
   gradientTransform="matrix(0.9724,-0.2332,0.2332,0.9724,-605.2637,139.4692)"
   gradientUnits="userSpaceOnUse">
		<stop
   offset="0.4494"
   style="stop-color:#B9E5FB"
   id="stop4364" />
		<stop
   offset="0.9944"
   style="stop-color:#00AEEF"
   id="stop4366" />
	</radialGradient>
	<path
   d="m 256.539,381.86 c 1.539,6.416 -1.649,12.681 -7.123,13.994 -5.469,1.312 -11.152,-2.826 -12.691,-9.241 -1.539,-6.416 1.648,-12.682 7.118,-13.993 5.473,-1.313 11.158,2.825 12.696,9.24 z"
   id="path4368"
   inkscape:connector-curvature="0"
   style="fill:url(#SVGID_6_)" />
	<circle
   cx="246.101"
   cy="383.909"
   r="5.3449998"
   id="circle4370"
   sodipodi:cx="246.101"
   sodipodi:cy="383.909"
   sodipodi:rx="5.3449998"
   sodipodi:ry="5.3449998"
   d="m 251.446,383.909 c 0,2.95196 -2.39304,5.345 -5.345,5.345 -2.95196,0 -5.345,-2.39304 -5.345,-5.345 0,-2.95197 2.39304,-5.345 5.345,-5.345 2.95196,0 5.345,2.39303 5.345,5.345 z" />
	<circle
   cx="248.01199"
   cy="382.73199"
   r="1.697"
   id="circle4372"
   sodipodi:cx="248.01199"
   sodipodi:cy="382.73199"
   sodipodi:rx="1.697"
   sodipodi:ry="1.697"
   style="fill:#ffffff"
   d="m 249.70899,382.73199 c 0,0.93723 -0.75977,1.697 -1.697,1.697 -0.93722,0 -1.697,-0.75977 -1.697,-1.697 0,-0.93722 0.75978,-1.697 1.697,-1.697 0.93723,0 1.697,0.75978 1.697,1.697 z" />
	<path
   d="m 181.897,431.109 c 0,6.85 7.047,12.421 15.708,12.421 8.661,0 15.708,-5.571 15.708,-12.421 0,-6.848 -7.047,-12.42 -15.708,-12.42 -8.661,0 -15.708,5.573 -15.708,12.42 z"
   id="path4374"
   inkscape:connector-curvature="0"
   style="fill:#79291c" />
	<path
   d="m 183.095,431.109 c 0,6.189 6.509,11.223 14.511,11.223 8.001,0 14.51,-5.033 14.51,-11.223 0,-6.188 -6.509,-11.222 -14.51,-11.222 -8.002,10e-4 -14.511,5.035 -14.511,11.222 z"
   id="path4376"
   inkscape:connector-curvature="0"
   style="fill:#79291c" />
	
		<radialGradient
   id="SVGID_7_"
   cx="184.3364"
   cy="449.6377"
   r="35.813099"
   gradientTransform="matrix(1.0809,0,0,0.6635,-16.4707,122.1885)"
   gradientUnits="userSpaceOnUse">
		<stop
   offset="0.1966"
   style="stop-color:#E19C5C"
   id="stop4379" />
		<stop
   offset="1"
   style="stop-color:#9E583F"
   id="stop4381" />
	</radialGradient>
	<ellipse
   cx="196.59599"
   cy="430.474"
   rx="13.477"
   ry="10.585"
   id="ellipse4383"
   sodipodi:cx="196.59599"
   sodipodi:cy="430.474"
   sodipodi:rx="13.477"
   sodipodi:ry="10.585"
   style="fill:url(#SVGID_7_)"
   d="m 210.07299,430.474 c 0,5.84593 -6.03386,10.585 -13.477,10.585 -7.44314,0 -13.477,-4.73907 -13.477,-10.585 0,-5.84594 6.03386,-10.585 13.477,-10.585 7.44314,0 13.477,4.73906 13.477,10.585 z" />
	<path
   d="m 230.831,431.109 c 0,6.85 7.047,12.421 15.708,12.421 8.662,0 15.708,-5.571 15.708,-12.421 0,-6.848 -7.047,-12.42 -15.708,-12.42 -8.662,0 -15.708,5.573 -15.708,12.42 z"
   id="path4385"
   inkscape:connector-curvature="0"
   style="fill:#79291c" />
	<path
   d="m 232.028,431.109 c 0,6.189 6.51,11.223 14.51,11.223 8,0 14.51,-5.033 14.51,-11.223 0,-6.188 -6.51,-11.222 -14.51,-11.222 -7.999,10e-4 -14.51,5.035 -14.51,11.222 z"
   id="path4387"
   inkscape:connector-curvature="0"
   style="fill:#79291c" />
	
		<radialGradient
   id="SVGID_8_"
   cx="256.04691"
   cy="451.53119"
   r="39.3582"
   gradientTransform="matrix(1.0809,0,0,0.6635,-21.333,122.1885)"
   gradientUnits="userSpaceOnUse">
		<stop
   offset="0.1966"
   style="stop-color:#E19C5C"
   id="stop4390" />
		<stop
   offset="1"
   style="stop-color:#9E583F"
   id="stop4392" />
	</radialGradient>
	<ellipse
   cx="247.548"
   cy="430.474"
   rx="13.478"
   ry="10.585"
   id="ellipse4394"
   sodipodi:cx="247.548"
   sodipodi:cy="430.474"
   sodipodi:rx="13.478"
   sodipodi:ry="10.585"
   style="fill:url(#SVGID_8_)"
   d="m 261.026,430.474 c 0,5.84593 -6.0343,10.585 -13.478,10.585 -7.44369,0 -13.478,-4.73907 -13.478,-10.585 0,-5.84594 6.03431,-10.585 13.478,-10.585 7.4437,0 13.478,4.73906 13.478,10.585 z" />
	<g
   id="g4396">
		<g
   id="g4398">
			<path
   d="m 231.494,422.264 c -0.159,0.092 -3.891,2.236 -8.365,2.236 h -1.062 c -4.476,0 -8.209,-2.146 -8.366,-2.237 l -2.024,-1.21 0,21.477 c -0.003,0.54 0.019,5.497 1.879,9.91 1.826,4.332 4.689,6.53 8.512,6.53 h 1.062 c 3.822,0 6.686,-2.198 8.513,-6.53 1.903,-4.52 1.88,-9.732 1.879,-9.952 v -21.435 c -0.002,0 -2.018,1.205 -2.028,1.211 z"
   id="path4400"
   inkscape:connector-curvature="0"
   style="fill:#79291c" />
			<path
   d="m 231.854,423.455 c -0.04,0.023 -3.971,2.339 -8.726,2.339 h -1.062 c -4.753,0 -8.686,-2.315 -8.725,-2.339 l -0.74,-0.441 0,19.516 c -0.001,0.18 -0.021,5.049 1.751,9.252 1.648,3.913 4.244,5.896 7.714,5.896 h 1.062 c 3.47,0 6.065,-1.983 7.714,-5.896 1.772,-4.203 1.753,-9.072 1.751,-9.277 v -19.49 l -0.739,0.44 z"
   id="path4402"
   inkscape:connector-curvature="0"
   style="fill:#79291c" />
			<path
   d="m 223.128,427.863 h -1.062 c -4.03,0 -7.479,-1.625 -8.576,-2.201 0,1.574 0,16.872 0,16.877 0,0.211 0.021,4.312 1.506,7.817 1.476,3.485 3.855,5.253 7.07,5.253 h 1.062 c 3.216,0 5.594,-1.768 7.069,-5.253 1.486,-3.508 1.507,-7.614 1.507,-7.808 0,-0.004 0,-15.312 0,-16.887 -1.097,0.577 -4.545,2.202 -8.576,2.202 z"
   id="path4404"
   inkscape:connector-curvature="0"
   style="fill:#ffc709" />
			<g
   id="g4406">
				<path
   d="m 217.869,435.1 c 2.034,0 7.424,0 9.457,0 1.811,0 3.243,-0.592 4.379,-1.566 v -7.871 c -1.098,0.576 -4.546,2.201 -8.576,2.201 h -1.062 c -4.03,0 -7.479,-1.625 -8.576,-2.201 v 7.871 c 1.134,0.974 2.568,1.566 4.378,1.566 z"
   id="path4408"
   inkscape:connector-curvature="0"
   style="fill:#ffc709" />
				<path
   d="m 217.869,435.063 c 2.034,0 7.424,0 9.457,0 1.811,0 3.243,-0.592 4.378,-1.566 v -7.835 c -1.098,0.576 -4.546,2.201 -8.576,2.201 h -1.062 c -4.03,0 -7.479,-1.625 -8.576,-2.201 v 7.835 c 1.135,0.975 2.569,1.566 4.379,1.566 z"
   id="path4410"
   inkscape:connector-curvature="0"
   style="fill:#ffc60a" />
				<path
   d="m 217.869,435.028 c 2.034,0 7.424,0 9.457,0 1.811,0 3.243,-0.592 4.379,-1.566 v -7.8 c -1.098,0.576 -4.546,2.201 -8.576,2.201 h -1.062 c -4.03,0 -7.479,-1.625 -8.576,-2.201 v 7.8 c 1.134,0.975 2.568,1.566 4.378,1.566 z"
   id="path4412"
   inkscape:connector-curvature="0"
   style="fill:#ffc50a" />
				<path
   d="m 217.87,434.992 c 2.033,0 7.423,0 9.457,0 1.811,0 3.242,-0.591 4.379,-1.565 v -7.765 c -1.098,0.576 -4.546,2.201 -8.577,2.201 h -1.062 c -4.031,0 -7.479,-1.625 -8.576,-2.201 v 7.765 c 1.134,0.974 2.568,1.565 4.379,1.565 z"
   id="path4414"
   inkscape:connector-curvature="0"
   style="fill:#fec40b" />
				<path
   d="m 217.869,434.957 c 2.033,0 7.424,0 9.456,0 1.812,0 3.243,-0.592 4.379,-1.566 v -7.729 c -1.098,0.576 -4.546,2.201 -8.576,2.201 h -1.062 c -4.03,0 -7.479,-1.625 -8.576,-2.201 v 7.729 c 1.135,0.974 2.569,1.566 4.379,1.566 z"
   id="path4416"
   inkscape:connector-curvature="0"
   style="fill:#fdc30c" />
				<path
   d="m 217.869,434.921 c 2.034,0 7.424,0 9.457,0 1.811,0 3.243,-0.592 4.379,-1.565 v -7.693 c -1.098,0.576 -4.546,2.201 -8.577,2.201 h -1.062 c -4.031,0 -7.479,-1.625 -8.576,-2.201 v 7.693 c 1.135,0.973 2.569,1.565 4.379,1.565 z"
   id="path4418"
   inkscape:connector-curvature="0"
   style="fill:#fdc20c" />
				<path
   d="m 217.869,434.886 c 2.034,0 7.424,0 9.457,0 1.811,0 3.243,-0.592 4.379,-1.566 v -7.657 c -1.098,0.576 -4.546,2.201 -8.576,2.201 h -1.062 c -4.03,0 -7.479,-1.625 -8.576,-2.201 v 7.657 c 1.134,0.974 2.568,1.566 4.378,1.566 z"
   id="path4420"
   inkscape:connector-curvature="0"
   style="fill:#fcc10d" />
				<path
   d="m 217.869,434.851 c 2.034,0 7.424,0 9.457,0 1.811,0 3.242,-0.592 4.378,-1.566 v -7.622 c -1.098,0.576 -4.546,2.201 -8.576,2.201 h -1.062 c -4.03,0 -7.479,-1.625 -8.576,-2.201 v 7.622 c 1.135,0.974 2.569,1.566 4.379,1.566 z"
   id="path4422"
   inkscape:connector-curvature="0"
   style="fill:#fcc00e" />
				<path
   d="m 217.87,434.814 c 2.033,0 7.424,0 9.457,0 1.811,0 3.243,-0.592 4.378,-1.565 v -7.587 c -1.097,0.576 -4.545,2.201 -8.576,2.201 h -1.062 c -4.03,0 -7.479,-1.625 -8.576,-2.201 v 7.587 c 1.135,0.974 2.568,1.565 4.379,1.565 z"
   id="path4424"
   inkscape:connector-curvature="0"
   style="fill:#fbbf0e" />
				<path
   d="m 217.869,434.778 c 2.033,0 7.424,0 9.456,0 1.812,0 3.243,-0.591 4.379,-1.565 v -7.551 c -1.098,0.576 -4.546,2.201 -8.577,2.201 h -1.062 c -4.03,0 -7.479,-1.625 -8.576,-2.201 v 7.551 c 1.136,0.975 2.57,1.565 4.38,1.565 z"
   id="path4426"
   inkscape:connector-curvature="0"
   style="fill:#fbbe0f" />
				<path
   d="m 217.869,434.743 c 2.034,0 7.424,0 9.457,0 1.811,0 3.243,-0.592 4.379,-1.566 v -7.515 c -1.098,0.576 -4.546,2.201 -8.576,2.201 h -1.062 c -4.03,0 -7.479,-1.625 -8.576,-2.201 v 7.515 c 1.134,0.974 2.568,1.566 4.378,1.566 z"
   id="path4428"
   inkscape:connector-curvature="0"
   style="fill:#fbbd0f" />
				<path
   d="m 217.869,434.708 c 2.034,0 7.424,0 9.457,0 1.811,0 3.243,-0.592 4.379,-1.566 v -7.479 c -1.097,0.576 -4.545,2.201 -8.576,2.201 h -1.062 c -4.03,0 -7.479,-1.625 -8.576,-2.201 v 7.479 c 1.135,0.974 2.568,1.566 4.378,1.566 z"
   id="path4430"
   inkscape:connector-curvature="0"
   style="fill:#fabd0f" />
				<path
   d="m 217.869,434.672 c 2.034,0 7.424,0 9.457,0 1.812,0 3.243,-0.592 4.379,-1.566 v -7.443 c -1.098,0.576 -4.546,2.201 -8.576,2.201 h -1.062 c -4.031,0 -7.479,-1.625 -8.576,-2.201 v 7.443 c 1.134,0.974 2.568,1.566 4.378,1.566 z"
   id="path4432"
   inkscape:connector-curvature="0"
   style="fill:#fabc10" />
				<path
   d="m 217.869,434.637 c 2.033,0 7.424,0 9.457,0 1.811,0 3.243,-0.592 4.378,-1.566 v -7.408 c -1.097,0.576 -4.546,2.201 -8.576,2.201 h -1.062 c -4.03,0 -7.479,-1.625 -8.576,-2.201 v 7.408 c 1.135,0.974 2.569,1.566 4.379,1.566 z"
   id="path4434"
   inkscape:connector-curvature="0"
   style="fill:#f9bb10" />
				<path
   d="m 217.869,434.601 c 2.034,0 7.424,0 9.457,0 1.811,0 3.242,-0.592 4.379,-1.566 v -7.372 c -1.098,0.576 -4.546,2.201 -8.576,2.201 h -1.062 c -4.03,0 -7.479,-1.625 -8.576,-2.201 v 7.372 c 1.134,0.974 2.568,1.566 4.378,1.566 z"
   id="path4436"
   inkscape:connector-curvature="0"
   style="fill:#f9ba11" />
				<path
   d="m 217.869,434.565 c 2.034,0 7.424,0 9.457,0 1.811,0 3.243,-0.592 4.379,-1.566 v -7.337 c -1.098,0.576 -4.546,2.201 -8.577,2.201 h -1.062 c -4.03,0 -7.479,-1.625 -8.576,-2.201 v 7.337 c 1.135,0.975 2.569,1.566 4.379,1.566 z"
   id="path4438"
   inkscape:connector-curvature="0"
   style="fill:#f8b911" />
				<path
   d="m 217.869,434.53 c 2.034,0 7.424,0 9.457,0 1.811,0 3.242,-0.593 4.379,-1.566 v -7.302 c -1.098,0.576 -4.546,2.201 -8.576,2.201 h -1.062 c -4.03,0 -7.479,-1.625 -8.576,-2.201 v 7.302 c 1.134,0.974 2.568,1.566 4.378,1.566 z"
   id="path4440"
   inkscape:connector-curvature="0"
   style="fill:#f8b811" />
				<path
   d="m 217.869,434.494 c 2.033,0 7.424,0 9.457,0 1.811,0 3.243,-0.592 4.379,-1.566 v -7.266 c -1.098,0.576 -4.546,2.201 -8.576,2.201 h -1.062 c -4.03,0 -7.479,-1.625 -8.576,-2.201 v 7.266 c 1.134,0.974 2.568,1.566 4.378,1.566 z"
   id="path4442"
   inkscape:connector-curvature="0"
   style="fill:#f8b712" />
				<path
   d="m 217.869,434.458 c 2.033,0 7.423,0 9.456,0 1.812,0 3.243,-0.591 4.379,-1.566 v -7.229 c -1.098,0.576 -4.546,2.201 -8.576,2.201 h -1.062 c -4.03,0 -7.479,-1.625 -8.576,-2.201 v 7.229 c 1.135,0.975 2.569,1.566 4.379,1.566 z"
   id="path4444"
   inkscape:connector-curvature="0"
   style="fill:#f7b612" />
				<path
   d="m 217.869,434.423 c 2.033,0 7.424,0 9.457,0 1.811,0 3.242,-0.592 4.378,-1.566 v -7.194 c -1.098,0.576 -4.546,2.201 -8.576,2.201 h -1.062 c -4.03,0 -7.479,-1.625 -8.576,-2.201 v 7.194 c 1.135,0.974 2.569,1.566 4.379,1.566 z"
   id="path4446"
   inkscape:connector-curvature="0"
   style="fill:#f7b513" />
				<path
   d="m 217.869,434.388 c 2.034,0 7.424,0 9.457,0 1.811,0 3.243,-0.592 4.379,-1.566 v -7.159 c -1.098,0.576 -4.546,2.201 -8.577,2.201 h -1.062 c -4.03,0 -7.479,-1.625 -8.576,-2.201 v 7.159 c 1.136,0.974 2.569,1.566 4.379,1.566 z"
   id="path4448"
   inkscape:connector-curvature="0"
   style="fill:#f7b413" />
				<path
   d="m 217.869,434.352 c 2.033,0 7.424,0 9.456,0 1.812,0 3.243,-0.592 4.379,-1.566 v -7.123 c -1.098,0.576 -4.546,2.201 -8.576,2.201 h -1.062 c -4.03,0 -7.479,-1.625 -8.576,-2.201 v 7.123 c 1.135,0.974 2.569,1.566 4.379,1.566 z"
   id="path4450"
   inkscape:connector-curvature="0"
   style="fill:#f6b413" />
				<path
   d="m 217.869,434.315 c 2.034,0 7.424,0 9.457,0 1.812,0 3.243,-0.591 4.379,-1.565 v -7.088 c -1.097,0.576 -4.545,2.201 -8.576,2.201 h -1.062 c -4.03,0 -7.479,-1.625 -8.576,-2.201 v 7.088 c 1.134,0.975 2.568,1.565 4.378,1.565 z"
   id="path4452"
   inkscape:connector-curvature="0"
   style="fill:#f6b313" />
				<path
   d="m 217.869,434.28 c 2.033,0 7.424,0 9.457,0 1.811,0 3.243,-0.591 4.379,-1.566 v -7.052 c -1.098,0.576 -4.546,2.201 -8.576,2.201 h -1.062 c -4.03,0 -7.479,-1.625 -8.576,-2.201 v 7.052 c 1.134,0.975 2.568,1.566 4.378,1.566 z"
   id="path4454"
   inkscape:connector-curvature="0"
   style="fill:#f6b214" />
				<path
   d="m 217.87,434.245 c 2.033,0 7.423,0 9.457,0 1.811,0 3.242,-0.592 4.378,-1.566 v -7.017 c -1.097,0.576 -4.545,2.201 -8.576,2.201 h -1.062 c -4.03,0 -7.479,-1.625 -8.576,-2.201 v 7.017 c 1.135,0.974 2.568,1.566 4.379,1.566 z"
   id="path4456"
   inkscape:connector-curvature="0"
   style="fill:#f5b114" />
				<path
   d="m 217.869,434.209 c 2.033,0 7.424,0 9.457,0 1.811,0 3.242,-0.592 4.378,-1.566 v -6.98 c -1.097,0.576 -4.545,2.201 -8.576,2.201 h -1.062 c -4.03,0 -7.479,-1.625 -8.576,-2.201 v 6.98 c 1.136,0.974 2.569,1.566 4.379,1.566 z"
   id="path4458"
   inkscape:connector-curvature="0"
   style="fill:#f5b014" />
				<path
   d="m 217.869,434.174 c 2.033,0 7.424,0 9.456,0 1.812,0 3.243,-0.592 4.379,-1.566 v -6.945 c -1.098,0.576 -4.546,2.201 -8.577,2.201 h -1.062 c -4.03,0 -7.479,-1.625 -8.576,-2.201 v 6.945 c 1.136,0.974 2.57,1.566 4.38,1.566 z"
   id="path4460"
   inkscape:connector-curvature="0"
   style="fill:#f4af15" />
				<path
   d="m 217.869,434.138 c 2.034,0 7.424,0 9.456,0 1.812,0 3.243,-0.591 4.379,-1.566 v -6.909 c -1.098,0.576 -4.546,2.201 -8.576,2.201 h -1.062 c -4.03,0 -7.479,-1.625 -8.576,-2.201 v 6.909 c 1.135,0.975 2.569,1.566 4.379,1.566 z"
   id="path4462"
   inkscape:connector-curvature="0"
   style="fill:#f4ae15" />
				<path
   d="m 217.869,434.103 c 2.034,0 7.424,0 9.457,0 1.811,0 3.242,-0.592 4.379,-1.566 v -6.874 c -1.098,0.576 -4.546,2.201 -8.576,2.201 h -1.062 c -4.03,0 -7.479,-1.625 -8.576,-2.201 v 6.874 c 1.135,0.974 2.568,1.566 4.378,1.566 z"
   id="path4464"
   inkscape:connector-curvature="0"
   style="fill:#f4ad15" />
				<path
   d="m 217.869,434.066 c 2.034,0 7.424,0 9.457,0 1.811,0 3.243,-0.592 4.379,-1.565 v -6.839 c -1.097,0.576 -4.546,2.201 -8.576,2.201 h -1.062 c -4.03,0 -7.479,-1.625 -8.576,-2.201 v 6.839 c 1.134,0.974 2.568,1.565 4.378,1.565 z"
   id="path4466"
   inkscape:connector-curvature="0"
   style="fill:#f3ad15" />
				<path
   d="m 217.869,434.03 c 2.034,0 7.424,0 9.456,0 1.812,0 3.243,-0.591 4.379,-1.565 v -6.803 c -1.098,0.576 -4.546,2.201 -8.576,2.201 h -1.062 c -4.031,0 -7.479,-1.625 -8.576,-2.201 v 6.803 c 1.135,0.974 2.569,1.565 4.379,1.565 z"
   id="path4468"
   inkscape:connector-curvature="0"
   style="fill:#f3ac16" />
				<path
   d="m 217.869,433.995 c 2.034,0 7.424,0 9.457,0 1.811,0 3.243,-0.591 4.379,-1.565 v -6.768 c -1.098,0.576 -4.546,2.201 -8.576,2.201 h -1.062 c -4.03,0 -7.479,-1.625 -8.576,-2.201 v 6.768 c 1.134,0.974 2.568,1.565 4.378,1.565 z"
   id="path4470"
   inkscape:connector-curvature="0"
   style="fill:#f3ab16" />
				<path
   d="m 217.869,433.96 c 2.033,0 7.424,0 9.457,0 1.811,0 3.242,-0.592 4.378,-1.566 v -6.731 c -1.097,0.576 -4.545,2.201 -8.576,2.201 h -1.062 c -4.03,0 -7.479,-1.625 -8.576,-2.201 v 6.731 c 1.135,0.974 2.569,1.566 4.379,1.566 z"
   id="path4472"
   inkscape:connector-curvature="0"
   style="fill:#f2aa16" />
				<path
   d="m 217.869,433.924 c 2.033,0 7.424,0 9.457,0 1.811,0 3.243,-0.592 4.379,-1.565 v -6.696 c -1.097,0.576 -4.545,2.201 -8.577,2.201 h -1.062 c -4.03,0 -7.479,-1.625 -8.576,-2.201 v 6.696 c 1.136,0.973 2.569,1.565 4.379,1.565 z"
   id="path4474"
   inkscape:connector-curvature="0"
   style="fill:#f2a916" />
				<path
   d="m 217.869,433.889 c 2.033,0 7.424,0 9.457,0 1.811,0 3.243,-0.592 4.379,-1.566 v -6.66 c -1.098,0.576 -4.546,2.201 -8.576,2.201 h -1.062 c -4.03,0 -7.479,-1.625 -8.576,-2.201 v 6.66 c 1.134,0.974 2.568,1.566 4.378,1.566 z"
   id="path4476"
   inkscape:connector-curvature="0"
   style="fill:#f2a817" />
				<path
   d="m 217.869,433.853 c 2.033,0 7.424,0 9.457,0 1.811,0 3.243,-0.591 4.379,-1.565 v -6.625 c -1.098,0.576 -4.546,2.201 -8.576,2.201 h -1.062 c -4.03,0 -7.479,-1.625 -8.576,-2.201 v 6.625 c 1.134,0.974 2.568,1.565 4.378,1.565 z"
   id="path4478"
   inkscape:connector-curvature="0"
   style="fill:#f1a817" />
				<path
   d="m 217.869,433.817 c 2.033,0 7.424,0 9.456,0 1.812,0 3.243,-0.592 4.38,-1.566 v -6.589 c -1.099,0.576 -4.546,2.201 -8.577,2.201 h -1.062 c -4.03,0 -7.479,-1.625 -8.576,-2.201 v 6.589 c 1.136,0.975 2.569,1.566 4.379,1.566 z"
   id="path4480"
   inkscape:connector-curvature="0"
   style="fill:#f1a717" />
				<path
   d="m 217.869,433.781 c 2.033,0 7.424,0 9.457,0 1.811,0 3.242,-0.592 4.378,-1.565 v -6.554 c -1.097,0.576 -4.546,2.201 -8.575,2.201 h -1.062 c -4.03,0 -7.479,-1.625 -8.576,-2.201 v 6.554 c 1.134,0.973 2.568,1.565 4.378,1.565 z"
   id="path4482"
   inkscape:connector-curvature="0"
   style="fill:#f1a617" />
				<path
   d="m 217.869,433.746 c 2.033,0 7.424,0 9.457,0 1.811,0 3.242,-0.592 4.378,-1.566 v -6.518 c -1.098,0.576 -4.546,2.201 -8.576,2.201 h -1.062 c -4.03,0 -7.479,-1.625 -8.576,-2.201 v 6.518 c 1.135,0.974 2.569,1.566 4.379,1.566 z"
   id="path4484"
   inkscape:connector-curvature="0"
   style="fill:#f0a517" />
				<path
   d="m 217.869,433.71 c 2.033,0 7.424,0 9.457,0 1.811,0 3.243,-0.591 4.379,-1.565 v -6.482 c -1.098,0.576 -4.545,2.201 -8.576,2.201 h -1.062 c -4.03,0 -7.479,-1.625 -8.576,-2.201 v 6.482 c 1.135,0.974 2.568,1.565 4.378,1.565 z"
   id="path4486"
   inkscape:connector-curvature="0"
   style="fill:#f0a418" />
				<path
   d="m 217.869,433.675 c 2.033,0 7.424,0 9.457,0 1.811,0 3.243,-0.592 4.379,-1.565 v -6.447 c -1.097,0.576 -4.546,2.201 -8.576,2.201 h -1.062 c -4.03,0 -7.479,-1.625 -8.576,-2.201 v 6.447 c 1.134,0.973 2.568,1.565 4.378,1.565 z"
   id="path4488"
   inkscape:connector-curvature="0"
   style="fill:#f0a318" />
				<path
   d="m 217.869,433.639 c 2.033,0 7.424,0 9.457,0 1.811,0 3.243,-0.591 4.379,-1.566 v -6.41 c -1.098,0.576 -4.546,2.201 -8.577,2.201 h -1.062 c -4.03,0 -7.479,-1.625 -8.576,-2.201 v 6.41 c 1.135,0.975 2.569,1.566 4.379,1.566 z"
   id="path4490"
   inkscape:connector-curvature="0"
   style="fill:#f0a318" />
				<path
   d="m 217.869,433.604 c 2.033,0 7.424,0 9.456,0 1.812,0 3.243,-0.592 4.38,-1.566 v -6.375 c -1.098,0.576 -4.546,2.201 -8.577,2.201 h -1.062 c -4.03,0 -7.479,-1.625 -8.576,-2.201 v 6.375 c 1.136,0.974 2.569,1.566 4.379,1.566 z"
   id="path4492"
   inkscape:connector-curvature="0"
   style="fill:#efa218" />
				<path
   d="m 217.869,433.568 c 2.033,0 7.424,0 9.457,0 1.811,0 3.242,-0.592 4.378,-1.566 v -6.34 c -1.097,0.576 -4.546,2.201 -8.576,2.201 h -1.062 c -4.03,0 -7.479,-1.625 -8.576,-2.201 v 6.34 c 1.135,0.975 2.569,1.566 4.379,1.566 z"
   id="path4494"
   inkscape:connector-curvature="0"
   style="fill:#efa118" />
				<path
   d="m 217.869,433.532 c 2.034,0 7.424,0 9.457,0 1.811,0 3.243,-0.592 4.379,-1.565 v -6.305 c -1.098,0.576 -4.546,2.201 -8.577,2.201 h -1.062 c -4.03,0 -7.479,-1.625 -8.576,-2.201 v 6.305 c 1.135,0.973 2.569,1.565 4.379,1.565 z"
   id="path4496"
   inkscape:connector-curvature="0"
   style="fill:#efa018" />
				<path
   d="m 217.869,433.496 c 2.034,0 7.424,0 9.457,0 1.811,0 3.243,-0.591 4.379,-1.565 v -6.269 c -1.098,0.576 -4.545,2.201 -8.576,2.201 h -1.062 c -4.03,0 -7.479,-1.625 -8.576,-2.201 v 6.269 c 1.135,0.974 2.568,1.565 4.378,1.565 z"
   id="path4498"
   inkscape:connector-curvature="0"
   style="fill:#ee9f19" />
				<path
   d="m 217.869,433.461 c 2.034,0 7.424,0 9.457,0 1.811,0 3.243,-0.591 4.379,-1.565 v -6.233 c -1.098,0.576 -4.546,2.201 -8.577,2.201 h -1.062 c -4.03,0 -7.479,-1.625 -8.576,-2.201 v 6.233 c 1.135,0.974 2.569,1.565 4.379,1.565 z"
   id="path4500"
   inkscape:connector-curvature="0"
   style="fill:#ee9f19" />
				<path
   d="m 217.869,433.425 c 2.034,0 7.424,0 9.457,0 1.811,0 3.243,-0.591 4.379,-1.565 v -6.197 c -1.098,0.576 -4.546,2.201 -8.576,2.201 h -1.062 c -4.03,0 -7.479,-1.625 -8.576,-2.201 v 6.197 c 1.134,0.974 2.568,1.565 4.378,1.565 z"
   id="path4502"
   inkscape:connector-curvature="0"
   style="fill:#ee9e19" />
				<path
   d="m 217.869,433.39 c 2.034,0 7.424,0 9.456,0 1.812,0 3.243,-0.591 4.379,-1.566 v -6.161 c -1.097,0.576 -4.545,2.201 -8.575,2.201 h -1.062 c -4.03,0 -7.479,-1.625 -8.576,-2.201 v 6.161 c 1.134,0.975 2.568,1.566 4.378,1.566 z"
   id="path4504"
   inkscape:connector-curvature="0"
   style="fill:#ed9d19" />
				<path
   d="m 217.869,433.354 c 2.034,0 7.424,0 9.457,0 1.811,0 3.243,-0.591 4.379,-1.565 v -6.126 c -1.098,0.576 -4.546,2.201 -8.576,2.201 h -1.062 c -4.03,0 -7.479,-1.625 -8.576,-2.201 v 6.126 c 1.134,0.974 2.568,1.565 4.378,1.565 z"
   id="path4506"
   inkscape:connector-curvature="0"
   style="fill:#ed9c19" />
				<path
   d="m 217.869,433.318 c 2.034,0 7.424,0 9.457,0 1.811,0 3.243,-0.591 4.379,-1.565 v -6.091 c -1.098,0.576 -4.546,2.201 -8.576,2.201 h -1.062 c -4.03,0 -7.479,-1.625 -8.576,-2.201 v 6.091 c 1.134,0.975 2.568,1.565 4.378,1.565 z"
   id="path4508"
   inkscape:connector-curvature="0"
   style="fill:#ed9b19" />
				<path
   d="m 217.869,433.282 c 2.034,0 7.424,0 9.457,0 1.811,0 3.243,-0.591 4.379,-1.565 v -6.055 c -1.098,0.576 -4.546,2.201 -8.576,2.201 h -1.062 c -4.03,0 -7.479,-1.625 -8.576,-2.201 v 6.055 c 1.134,0.974 2.568,1.565 4.378,1.565 z"
   id="path4510"
   inkscape:connector-curvature="0"
   style="fill:#ed9b19" />
				<path
   d="m 217.869,433.247 c 2.034,0 7.424,0 9.457,0 1.811,0 3.243,-0.591 4.379,-1.565 v -6.02 c -1.098,0.576 -4.546,2.201 -8.576,2.201 h -1.062 c -4.03,0 -7.479,-1.625 -8.576,-2.201 v 6.02 c 1.134,0.974 2.568,1.565 4.378,1.565 z"
   id="path4512"
   inkscape:connector-curvature="0"
   style="fill:#ec9a19" />
				<path
   d="m 217.869,433.211 c 2.034,0 7.424,0 9.456,0 1.812,0 3.243,-0.591 4.38,-1.565 v -5.983 c -1.098,0.576 -4.546,2.201 -8.577,2.201 h -1.062 c -4.03,0 -7.479,-1.625 -8.576,-2.201 v 5.983 c 1.135,0.974 2.569,1.565 4.379,1.565 z"
   id="path4514"
   inkscape:connector-curvature="0"
   style="fill:#ec991a" />
				<path
   d="m 217.869,433.176 c 2.034,0 7.424,0 9.457,0 1.811,0 3.242,-0.591 4.378,-1.565 v -5.948 c -1.098,0.576 -4.545,2.201 -8.576,2.201 h -1.062 c -4.03,0 -7.479,-1.625 -8.576,-2.201 v 5.948 c 1.135,0.974 2.569,1.565 4.379,1.565 z"
   id="path4516"
   inkscape:connector-curvature="0"
   style="fill:#ec981a" />
				<path
   d="m 217.869,433.14 c 2.034,0 7.424,0 9.457,0 1.811,0 3.243,-0.591 4.379,-1.565 v -5.912 c -1.098,0.576 -4.546,2.201 -8.576,2.201 h -1.062 c -4.03,0 -7.479,-1.625 -8.576,-2.201 v 5.912 c 1.134,0.974 2.568,1.565 4.378,1.565 z"
   id="path4518"
   inkscape:connector-curvature="0"
   style="fill:#eb971a" />
				<path
   d="m 217.869,433.104 c 2.034,0 7.424,0 9.457,0 1.811,0 3.243,-0.591 4.379,-1.565 v -5.877 c -1.098,0.576 -4.546,2.201 -8.576,2.201 h -1.062 c -4.03,0 -7.479,-1.625 -8.576,-2.201 v 5.877 c 1.134,0.975 2.568,1.565 4.378,1.565 z"
   id="path4520"
   inkscape:connector-curvature="0"
   style="fill:#eb971a" />
				<path
   d="m 217.869,433.068 c 2.034,0 7.424,0 9.457,0 1.811,0 3.243,-0.591 4.379,-1.565 v -5.841 c -1.098,0.576 -4.546,2.201 -8.576,2.201 h -1.062 c -4.03,0 -7.479,-1.625 -8.576,-2.201 v 5.841 c 1.134,0.975 2.568,1.565 4.378,1.565 z"
   id="path4522"
   inkscape:connector-curvature="0"
   style="fill:#eb961a" />
				<path
   d="m 217.869,433.033 c 2.034,0 7.424,0 9.457,0 1.811,0 3.243,-0.591 4.379,-1.565 v -5.806 c -1.098,0.576 -4.546,2.201 -8.576,2.201 h -1.062 c -4.03,0 -7.479,-1.625 -8.576,-2.201 v 5.806 c 1.134,0.974 2.568,1.565 4.378,1.565 z"
   id="path4524"
   inkscape:connector-curvature="0"
   style="fill:#ea951a" />
				<path
   d="m 217.869,432.997 c 2.034,0 7.424,0 9.457,0 1.811,0 3.243,-0.591 4.379,-1.565 v -5.77 c -1.098,0.576 -4.546,2.201 -8.577,2.201 h -1.062 c -4.03,0 -7.479,-1.625 -8.576,-2.201 v 5.77 c 1.135,0.974 2.569,1.565 4.379,1.565 z"
   id="path4526"
   inkscape:connector-curvature="0"
   style="fill:#ea941a" />
				<path
   d="m 217.869,432.962 c 2.034,0 7.424,0 9.457,0 1.811,0 3.243,-0.591 4.379,-1.565 v -5.734 c -1.098,0.576 -4.546,2.201 -8.576,2.201 h -1.062 c -4.03,0 -7.479,-1.625 -8.576,-2.201 v 5.734 c 1.134,0.974 2.568,1.565 4.378,1.565 z"
   id="path4528"
   inkscape:connector-curvature="0"
   style="fill:#ea931a" />
				<path
   d="m 217.869,432.926 c 2.034,0 7.424,0 9.457,0 1.811,0 3.243,-0.591 4.379,-1.565 v -5.698 c -1.098,0.576 -4.546,2.201 -8.576,2.201 h -1.062 c -4.03,0 -7.479,-1.625 -8.576,-2.201 v 5.698 c 1.134,0.974 2.568,1.565 4.378,1.565 z"
   id="path4530"
   inkscape:connector-curvature="0"
   style="fill:#ea931a" />
				<path
   d="m 222.066,427.863 c -4.03,0 -7.479,-1.625 -8.576,-2.201 v 5.663 c 1.135,0.975 2.568,1.565 4.379,1.565 2.034,0 7.424,0 9.457,0 1.811,0 3.243,-0.591 4.379,-1.565 v -5.663 c -1.098,0.576 -4.546,2.201 -8.576,2.201 h -1.063 z"
   id="path4532"
   inkscape:connector-curvature="0"
   style="fill:#e9921a" />
			</g>
		</g>
		<g
   id="g4534">
			<path
   d="m 222.009,390.748 c -1.911,0 -15.263,14.633 -15.263,23.87 0,10.359 1.333,15.619 8.617,15.619 h 14.472 c 7.286,0 8.614,-5.26 8.614,-15.619 0,-9.236 -13.351,-23.87 -15.262,-23.87 h -1.178 z"
   id="path4536"
   inkscape:connector-curvature="0"
   style="fill:#79291c" />
			
				<radialGradient
   id="SVGID_9_"
   cx="197.666"
   cy="385.8721"
   r="30.669399"
   gradientTransform="matrix(0.7476,0,0,1.3966,73.4355,-153.1328)"
   gradientUnits="userSpaceOnUse">
				<stop
   offset="0.1348"
   style="stop-color:#FFE079"
   id="stop4539" />
				<stop
   offset="0.2047"
   style="stop-color:#FFDE72"
   id="stop4541" />
				<stop
   offset="0.3167"
   style="stop-color:#FFD85B"
   id="stop4543" />
				<stop
   offset="0.4561"
   style="stop-color:#FFCE30"
   id="stop4545" />
				<stop
   offset="0.5337"
   style="stop-color:#FFC709"
   id="stop4547" />
				<stop
   offset="0.6053"
   style="stop-color:#F5BA0F"
   id="stop4549" />
				<stop
   offset="0.7198"
   style="stop-color:#E19E15"
   id="stop4551" />
				<stop
   offset="0.7247"
   style="stop-color:#E09D15"
   id="stop4553" />
				<stop
   offset="0.9719"
   style="stop-color:#FFC709"
   id="stop4555" />
			</radialGradient>
			<path
   d="m 222.017,393.981 c -1.71,0.229 -13.886,13.407 -13.886,20.269 0,8.628 0.684,12.41 7.232,12.41 h 14.472 c 6.546,0 7.232,-3.782 7.232,-12.41 0,-6.846 -12.18,-20.039 -13.888,-20.27 0,0 -1.147,10e-4 -1.162,10e-4 z"
   id="path4557"
   inkscape:connector-curvature="0"
   style="fill:url(#SVGID_9_)" />
		</g>
		<g
   id="g4559">
			<path
   d="m 216.978,404.421 c 0,0.829 0.651,2.855 1.504,2.855 0.854,0 1.505,-2.026 1.505,-2.855 0,-1.278 -0.375,-1.874 -1.505,-1.874 -0.75,0 -1.504,0.596 -1.504,1.874 z"
   id="path4561"
   inkscape:connector-curvature="0"
   style="fill:#79291c" />
			<path
   d="m 225.208,404.421 c 0,0.829 0.652,2.855 1.504,2.855 0.854,0 1.504,-2.026 1.504,-2.855 0,-1.278 -0.375,-1.874 -1.504,-1.874 -0.75,0 -1.504,0.596 -1.504,1.874 z"
   id="path4563"
   inkscape:connector-curvature="0"
   style="fill:#79291c" />
		</g>
	</g>
</g>
</svg>