<?xml version="1.0" encoding="UTF-8" standalone="no"?>
<!-- Generator: Adobe Illustrator 15.0.0, SVG Export Plug-In . SVG Version: 6.00 Build 0)  -->

<svg
   xmlns:dc="http://purl.org/dc/elements/1.1/"
   xmlns:cc="http://creativecommons.org/ns#"
   xmlns:rdf="http://www.w3.org/1999/02/22-rdf-syntax-ns#"
   xmlns:svg="http://www.w3.org/2000/svg"
   xmlns="http://www.w3.org/2000/svg"
   xmlns:sodipodi="http://sodipodi.sourceforge.net/DTD/sodipodi-0.dtd"
   xmlns:inkscape="http://www.inkscape.org/namespaces/inkscape"
   version="1.1"
   id="Layer_3"
   x="0px"
   y="0px"
   width="93.739738"
   height="83.21553"
   viewBox="0 0 93.739738 83.21553"
   enable-background="new 0 0 612 792"
   xml:space="preserve"
   inkscape:version="0.48.3.1 r9886"
   sodipodi:docname="turkey_wing_right.svg"><metadata
   id="metadata5149"><rdf:RDF><cc:Work
       rdf:about=""><dc:format>image/svg+xml</dc:format><dc:type
         rdf:resource="http://purl.org/dc/dcmitype/StillImage" /></cc:Work></rdf:RDF></metadata><defs
   id="defs5147" /><sodipodi:namedview
   pagecolor="#ffffff"
   bordercolor="#666666"
   borderopacity="1"
   objecttolerance="10"
   gridtolerance="10"
   guidetolerance="10"
   inkscape:pageopacity="0"
   inkscape:pageshadow="2"
   inkscape:window-width="956"
   inkscape:window-height="1177"
   id="namedview5145"
   showgrid="false"
   fit-margin-top="0"
   fit-margin-left="0"
   fit-margin-right="0"
   fit-margin-bottom="0"
   inkscape:zoom="0.2979798"
   inkscape:cx="46.977283"
   inkscape:cy="41.304745"
   inkscape:window-x="0"
   inkscape:window-y="19"
   inkscape:window-maximized="0"
   inkscape:current-layer="Layer_3" />
<g
   id="g5123"
   transform="translate(-259.02272,-354.08922)">
	<path
   d="m 286.808,354.78 c 2.41,1.226 59.104,30.344 65.847,66.822 0.409,2.21 -0.366,4.468 -2.044,5.959 -1.608,1.425 -3.816,1.885 -5.882,1.342 -0.059,0.939 -0.244,1.862 -0.591,2.752 -1.109,2.854 -3.581,4.831 -6.782,5.423 -4.595,0.851 -9.69,-0.836 -13.633,-2.69 -3.294,2.695 -7.98,3.285 -14.002,1.666 -11.57,-3.116 -44.237,-25.452 -47.922,-27.985 -2.529,-1.739 -3.469,-5.032 -2.24,-7.845 l 18.482,-42.292 c 0.704,-1.617 2.045,-2.869 3.704,-3.467 1.659,-0.594 3.49,-0.48 5.063,0.315 z"
   id="path5125"
   inkscape:connector-curvature="0"
   style="fill:#79291b" />
	<g
   id="g5127">
		
			<radialGradient
   id="SVGID_1_"
   cx="347.43851"
   cy="284.93259"
   r="171.70869"
   gradientTransform="matrix(0.9018,-0.4322,0.4322,0.9018,-192.4536,228.8064)"
   gradientUnits="userSpaceOnUse">
			<stop
   offset="0.1966"
   style="stop-color:#CA813F"
   id="stop5130" />
			<stop
   offset="0.6742"
   style="stop-color:#8A5036"
   id="stop5132" />
			<stop
   offset="0.8989"
   style="stop-color:#A76D48"
   id="stop5134" />
		</radialGradient>
		<path
   d="m 309.493,423.369 c -0.512,-0.322 -1.007,-0.652 -1.487,-0.996 7.297,3.96 14.935,3.916 17.57,-0.295 2.42,-3.871 -0.193,-10.004 -5.878,-14.715 -4.018,1.093 -9.89,-0.121 -15.388,-3.559 -0.511,-0.316 -1.008,-0.65 -1.484,-0.989 7.292,3.956 14.935,3.915 17.565,-0.296 2.633,-4.212 -0.674,-11.104 -7.434,-15.924 0.519,0.277 1.035,0.578 1.547,0.898 7.906,4.943 12.034,12.599 9.217,17.103 -0.762,1.221 -1.966,2.072 -3.458,2.586 6.602,2.873 13.068,2.483 15.445,-1.32 0.68,-1.088 0.957,-2.355 0.887,-3.722 -17.87,-23.99 -52.685,-41.645 -52.685,-41.645 l -18.481,42.296 c 0,0 35.112,24.154 45.958,27.074 7.291,1.964 9.181,-0.646 9.638,-2.566 -3.494,-0.158 -7.609,-1.479 -11.532,-3.93 z"
   id="path5136"
   inkscape:connector-curvature="0"
   style="fill:url(#SVGID_1_)" />
		
			<linearGradient
   id="SVGID_2_"
   gradientUnits="userSpaceOnUse"
   x1="389.50201"
   y1="392.2002"
   x2="398.14191"
   y2="410.22989"
   gradientTransform="matrix(0.9018,-0.4322,0.4322,0.9018,-192.4536,228.8064)">
			<stop
   offset="0.1966"
   style="stop-color:#FDCB8A"
   id="stop5139" />
			<stop
   offset="0.6236"
   style="stop-color:#FFFFFF"
   id="stop5141" />
		</linearGradient>
		<path
   d="m 339.038,407.94 c -2.631,4.215 -10.407,4.178 -17.874,0.103 6.931,4.93 10.372,11.9 7.738,16.112 -1.04,1.666 -2.885,2.663 -5.193,3.016 3.142,1.78 8.52,4.34 12.48,3.606 5.927,-1.095 -2.191,-11.855 -2.191,-11.855 l 12.356,3.846 c -1.032,-5.583 -3.434,-11.019 -6.716,-16.207 -0.145,0.481 -0.33,0.949 -0.6,1.379 z"
   id="path5143"
   inkscape:connector-curvature="0"
   style="fill:url(#SVGID_2_)" />
	</g>
</g>
</svg>