<?xml version="1.0" encoding="utf-8"?>
<!-- Generator: Adobe Illustrator 15.0.0, SVG Export Plug-In . SVG Version: 6.00 Build 0)  -->
<!DOCTYPE svg PUBLIC "-//W3C//DTD SVG 1.1//EN" "http://www.w3.org/Graphics/SVG/1.1/DTD/svg11.dtd">
<svg version="1.1" id="Layer_3" xmlns="http://www.w3.org/2000/svg" xmlns:xlink="http://www.w3.org/1999/xlink" x="0px" y="0px"
	 width="612px" height="792px" viewBox="0 0 612 792" enable-background="new 0 0 612 792" xml:space="preserve">
<g>
	<path fill="#79291B" d="M286.808,354.78c2.41,1.226,59.104,30.344,65.847,66.822c0.409,2.21-0.366,4.468-2.044,5.959
		c-1.608,1.425-3.816,1.885-5.882,1.342c-0.059,0.939-0.244,1.862-0.591,2.752c-1.109,2.854-3.581,4.831-6.782,5.423
		c-4.595,0.851-9.69-0.836-13.633-2.69c-3.294,2.695-7.98,3.285-14.002,1.666c-11.57-3.116-44.237-25.452-47.922-27.985
		c-2.529-1.739-3.469-5.032-2.24-7.845l18.482-42.292c0.704-1.617,2.045-2.869,3.704-3.467
		C283.404,353.871,285.235,353.985,286.808,354.78z"/>
	<g>
		
			<radialGradient id="SVGID_1_" cx="347.4385" cy="284.9326" r="171.7087" gradientTransform="matrix(0.9018 -0.4322 0.4322 0.9018 -192.4536 228.8064)" gradientUnits="userSpaceOnUse">
			<stop  offset="0.1966" style="stop-color:#CA813F"/>
			<stop  offset="0.6742" style="stop-color:#8A5036"/>
			<stop  offset="0.8989" style="stop-color:#A76D48"/>
		</radialGradient>
		<path fill="url(#SVGID_1_)" d="M309.493,423.369c-0.512-0.322-1.007-0.652-1.487-0.996c7.297,3.96,14.935,3.916,17.57-0.295
			c2.42-3.871-0.193-10.004-5.878-14.715c-4.018,1.093-9.89-0.121-15.388-3.559c-0.511-0.316-1.008-0.65-1.484-0.989
			c7.292,3.956,14.935,3.915,17.565-0.296c2.633-4.212-0.674-11.104-7.434-15.924c0.519,0.277,1.035,0.578,1.547,0.898
			c7.906,4.943,12.034,12.599,9.217,17.103c-0.762,1.221-1.966,2.072-3.458,2.586c6.602,2.873,13.068,2.483,15.445-1.32
			c0.68-1.088,0.957-2.355,0.887-3.722c-17.87-23.99-52.685-41.645-52.685-41.645l-18.481,42.296c0,0,35.112,24.154,45.958,27.074
			c7.291,1.964,9.181-0.646,9.638-2.566C317.531,427.141,313.416,425.82,309.493,423.369z"/>
		
			<linearGradient id="SVGID_2_" gradientUnits="userSpaceOnUse" x1="389.502" y1="392.2002" x2="398.1419" y2="410.2299" gradientTransform="matrix(0.9018 -0.4322 0.4322 0.9018 -192.4536 228.8064)">
			<stop  offset="0.1966" style="stop-color:#FDCB8A"/>
			<stop  offset="0.6236" style="stop-color:#FFFFFF"/>
		</linearGradient>
		<path fill="url(#SVGID_2_)" d="M339.038,407.94c-2.631,4.215-10.407,4.178-17.874,0.103c6.931,4.93,10.372,11.9,7.738,16.112
			c-1.04,1.666-2.885,2.663-5.193,3.016c3.142,1.78,8.52,4.34,12.48,3.606c5.927-1.095-2.191-11.855-2.191-11.855l12.356,3.846
			c-1.032-5.583-3.434-11.019-6.716-16.207C339.493,407.042,339.308,407.51,339.038,407.94z"/>
	</g>
</g>
</svg>
