<?xml version="1.0" encoding="UTF-8" standalone="no"?>
<!-- Generator: Adobe Illustrator 15.0.0, SVG Export Plug-In . SVG Version: 6.00 Build 0)  -->

<svg
   xmlns:dc="http://purl.org/dc/elements/1.1/"
   xmlns:cc="http://creativecommons.org/ns#"
   xmlns:rdf="http://www.w3.org/1999/02/22-rdf-syntax-ns#"
   xmlns:svg="http://www.w3.org/2000/svg"
   xmlns="http://www.w3.org/2000/svg"
   xmlns:sodipodi="http://sodipodi.sourceforge.net/DTD/sodipodi-0.dtd"
   xmlns:inkscape="http://www.inkscape.org/namespaces/inkscape"
   version="1.1"
   id="Layer_3"
   x="0px"
   y="0px"
   width="347.08234"
   height="190.39792"
   viewBox="0 0 347.08234 190.39792"
   enable-background="new 0 0 612 792"
   xml:space="preserve"
   inkscape:version="0.48.3.1 r9886"
   sodipodi:docname="turkey_cooked.svg"><metadata
   id="metadata3215"><rdf:RDF><cc:Work
       rdf:about=""><dc:format>image/svg+xml</dc:format><dc:type
         rdf:resource="http://purl.org/dc/dcmitype/StillImage" /></cc:Work></rdf:RDF></metadata><defs
   id="defs3213" /><sodipodi:namedview
   pagecolor="#ffffff"
   bordercolor="#666666"
   borderopacity="1"
   objecttolerance="10"
   gridtolerance="10"
   guidetolerance="10"
   inkscape:pageopacity="0"
   inkscape:pageshadow="2"
   inkscape:window-width="1916"
   inkscape:window-height="1177"
   id="namedview3211"
   showgrid="false"
   fit-margin-top="0"
   fit-margin-left="0"
   fit-margin-right="0"
   fit-margin-bottom="0"
   inkscape:zoom="1.260101"
   inkscape:cx="281.48815"
   inkscape:cy="-106.86031"
   inkscape:window-x="0"
   inkscape:window-y="19"
   inkscape:window-maximized="0"
   inkscape:current-layer="Layer_3" />
<g
   id="g3169"
   transform="translate(-24.511853,-98.741773)">
	<path
   clip-rule="evenodd"
   d="m 303.212,134.837 c 7.469,2.209 17.751,-1.011 20.435,5.34 9.502,0.662 16.86,0.817 23.412,-1.921 2.854,-1.19 3.725,-4.037 6.277,-7.321 5.693,-7.324 18.313,-2.359 18.258,4.794 -0.046,5.79 -1.293,8.136 -2.997,10.728 -2.723,4.15 2.007,6.195 1.236,13.224 -0.771,7.029 -6.163,13.563 -14.518,9.945 -5.769,-3.979 -3.74,-4.907 -7.79,-7.461 -3.554,-2.24 -18.624,-2.03 -31.777,-0.384 -0.027,3.004 -4.553,8.542 -8.963,8.979 13.127,6.233 20.324,27.246 11.406,34.332 -7.145,7.156 -5.391,9.87 -10.064,19.062 -7.777,15.298 -22.747,40.362 -43.914,54.27 -27.177,16.732 -82.692,11.164 -121.015,1.595 -29.679,6.916 -62.723,14.743 -97.042,-3 -33.026,-3.055 -19.503,-47.328 -15.487,-61.96 5.21,-18.988 12.679,-35.775 21.512,-51.514 24.587,-43.814 66.939,-60.001 113.856,-58.705 16.969,0.47 33.41,2.464 49.91,6.388 26.003,-13.922 56.309,4.442 82.515,3.946 4.27,-0.082 26.25,-2.868 30.237,-5.8 2.062,-1.312 2.799,-3.714 3.95,-6.429 3.082,-7.241 16.765,-4.115 18.272,1.763 1.222,4.76 -1.147,8.113 -1.979,10.608 -1.335,3.992 1.299,7.329 2.191,13.264 1.346,8.944 -8.187,9.966 -14.093,6.87 -2.775,-1.455 -4.244,-2.086 -7.149,-2.998 -4.457,-1.397 -16.231,0.897 -26.679,2.385 l 0,0 z"
   id="path3171"
   inkscape:connector-curvature="0"
   style="fill:#79291b;fill-rule:evenodd" />
	<path
   clip-rule="evenodd"
   d="m 349.701,143.076 c 4.551,-1.331 5.152,-6.56 8.003,-8.094 4.549,-2.452 9.582,1.146 7.008,5.858 -1.801,3.301 -1.952,4.996 -2.378,7.495 -0.793,2.934 2.132,8.008 1.645,11.28 -0.671,4.477 -4.218,5.786 -8.079,3.363 -3.864,-2.423 -5.552,-6.584 -9.881,-7.601 -4.959,-1.164 -18.471,-0.585 -27.678,1.299 -2.297,-9.002 8.064,-3.618 4.589,-12.354 12.245,0.816 20.473,1.033 26.771,-1.246 l 0,0 z"
   id="path3173"
   inkscape:connector-curvature="0"
   style="fill:#efc196;fill-rule:evenodd" />
	<path
   clip-rule="evenodd"
   d="m 309.614,163.647 c 6.777,-2.27 -2.784,-15.83 8.772,-18.941 3.595,-0.971 -0.03,-3.961 -3.64,-4.221 -15.41,-1.121 -28.29,-4.571 -40.695,-7.711 7.192,4.11 13.552,8.69 18.193,13.168 -6.339,-4.07 -20.183,-11.554 -35.415,-17.088 -1.228,-0.223 -2.465,-0.429 -3.705,-0.631 -43.284,-7.051 -97.869,9.673 -108.002,62.336 -3.486,-43.861 48.756,-68.812 73.912,-69.967 -15.496,-9.582 -39.197,-9.15 -53.979,-8.669 -41.385,1.344 -71.851,26.07 -94.335,51.187 14.816,-23.053 36.61,-41.738 61.313,-49.631 -24.676,1.655 -53.266,20.834 -70.94,47.5 -12.661,19.093 -46.366,91.114 -20.758,110.082 -20.641,-20.895 31.657,-75.766 45.053,-89.341 6.704,-7.458 22.381,-17.858 23.01,-14.328 1.76,8.667 -1.262,24.513 -6.555,36.957 -6.594,15.501 -15.527,27.391 -18.622,31.537 15.312,-2.102 82.805,-11.356 83.09,19.446 -1.174,-6.645 -6.112,-10.772 -13.08,-13.711 -21.298,-8.98 -64.892,0.805 -79.669,2.562 0.279,-6.742 15.435,-26.857 23.389,-42.869 2.604,-5.238 5.477,-14.94 6.794,-19.489 2.373,-8.176 -1.103,-7.192 -5.269,-4.105 -5.06,3.756 -9.028,8.517 -13.285,13.099 -2.962,3.183 -6.452,6.966 -9.339,10.359 -10.037,11.8 -23.507,28.554 -30.031,42.414 -4.189,8.9 -6.081,16.557 -2.58,21.749 3.086,4.575 12.287,7.784 17.418,9.715 18.468,6.955 29.138,7.96 50.018,4.805 9.778,-1.479 31.022,-6.954 36.725,-13.949 -0.227,1.705 -0.799,6.493 -1.876,7.844 23.43,6.502 90.005,13.881 109.061,2.365 21.949,-11.347 41.686,-41.598 51.324,-66.315 1.547,-3.97 7.843,-7.132 8.236,-9.941 2.303,-16.38 -6.121,-19.482 -12.097,-26.031 -31.137,2.677 -29.535,38.445 -72.519,40.423 23.172,-8.048 30.393,-17.362 43.658,-32.723 7.718,-8.931 24.41,-13.851 36.425,-17.887 l 0,0 z"
   id="path3175"
   inkscape:connector-curvature="0"
   style="fill:#d57632;fill-rule:evenodd" />
	<path
   clip-rule="evenodd"
   d="m 244.314,211.882 c 4.975,0.221 11.949,-1.052 21.167,-6.34 2.62,-1.504 13.164,-5.444 16.619,-8.897 7.079,-7.068 12.082,-2.967 17.515,-4.734 7.045,-2.3 7.092,-8.481 12.6,-7.137 -2.558,-4.591 -6.757,-7.204 -10.162,-10.94 -27.051,2.325 -29.4,29.627 -57.739,38.048 l 0,0 z"
   id="path3177"
   inkscape:connector-curvature="0"
   style="fill:#ce7634;fill-rule:evenodd" />
	<path
   clip-rule="evenodd"
   d="m 331.936,114.132 c 4.162,-1.845 3.378,-7.461 5.896,-9.284 4.016,-2.899 10.41,-0.695 8.557,4.108 -1.293,3.366 -2.174,6.365 -2.264,8.792 -0.384,2.892 2.89,6.453 2.836,9.628 -0.073,4.34 -2.982,5.768 -6.962,3.956 -3.979,-1.819 -6.249,-3.958 -10.493,-4.378 -4.864,-0.48 -19.46,0.869 -27.977,3.826 -0.943,-4.991 10.281,-6.925 6.434,-11.907 7.169,-1.031 17.996,-2.967 23.973,-4.741 l 0,0 z"
   id="path3179"
   inkscape:connector-curvature="0"
   style="fill:#efc196;fill-rule:evenodd" />
	<path
   clip-rule="evenodd"
   d="m 229.495,121.01 c 33.471,1.189 48.032,8.148 66.394,11.654 1.005,-2.032 1.745,-5.029 2.466,-6.408 1.486,-2.847 4.818,-2.9 5.999,-5.312 1.061,-2.163 -3.86,-0.718 -5.039,-0.598 -22.519,2.309 -53.035,-15.772 -79.403,-5.676 5.108,1.415 6.752,3.535 9.583,6.34 l 0,0 z"
   id="path3181"
   inkscape:connector-curvature="0"
   style="fill:#d57632;fill-rule:evenodd" />
	<path
   clip-rule="evenodd"
   d="m 324.92,117.15 c 2.202,-0.302 6.705,-1.268 8.21,-2.151 1.509,-0.89 3.434,-5.906 4.284,-6.967 0.845,-1.066 1.975,-3.295 4.372,-3.252 2.401,0.043 2.523,1.16 2.523,1.16 -1.188,-0.022 -2.852,-0.028 -3.385,0.253 -1.632,0.85 -0.072,3.104 -1.702,5.601 -4.166,6.371 -6.758,5.671 -14.302,5.356 l 0,0 z"
   id="path3183"
   inkscape:connector-curvature="0"
   style="fill:#f1ddc6;fill-rule:evenodd" />
	<path
   clip-rule="evenodd"
   d="m 342.325,145.146 c 1.381,0.223 6.413,0.2 8.021,-0.423 1.61,-0.628 4.487,-5.8 5.429,-6.813 0.941,-1.012 2.24,-3.31 4.713,-2.603 2.47,0.708 2.952,2.525 2.952,2.525 -1.224,-0.346 -2.949,-0.691 -3.577,-0.682 -1.914,0.035 -0.84,1.837 -2.675,4.307 -4.695,6.31 -8.432,6.863 -14.863,3.689 l 0,0 z"
   id="path3185"
   inkscape:connector-curvature="0"
   style="fill:#f1ddc6;fill-rule:evenodd" />
	<path
   clip-rule="evenodd"
   d="m 284.396,141.342 c -5.449,-1.629 -12.766,-4.56 -18.603,-1.528 -5.67,2.942 -10.479,9.722 -12.381,10.771 -5.369,3.101 -6.098,7.952 -8.527,12.224 -2.121,3.731 -8.76,3.534 -10.738,6.964 -1.981,3.428 -4.629,7.638 -6.961,10.058 -9.856,9.679 -13.527,12.045 -26.312,13.227 -6.32,0.579 -13.492,1.506 -21.241,1.307 -3.032,-0.076 -5.72,0.271 -8.914,-0.237 0.338,14.359 6.298,18.578 15.198,23.673 -7.783,-1.897 -14.711,-4.248 -19.98,-8.855 -7.108,-6.221 -10.659,-11.37 -11.962,-17.559 -4.829,-22.915 14.066,-37.033 34.012,-43.297 7.817,-2.452 14.33,-1.836 19.748,-2.563 -6.843,-5.497 -23.013,-5.164 -32.969,-1.472 22.089,-15.686 52.276,-20.077 78.361,-15.828 1.24,0.202 2.478,0.408 3.705,0.631 10.522,3.821 20.381,8.568 27.564,12.484 l 0,0 z"
   id="path3187"
   inkscape:connector-curvature="0"
   style="fill:#e68739;fill-rule:evenodd" />
	<path
   clip-rule="evenodd"
   d="m 198.09,212.887 c 6.909,4.389 17.866,3.312 31.444,1.369 23.172,-8.048 30.393,-17.362 43.658,-32.723 7.715,-8.931 24.406,-13.851 36.422,-17.886 2.842,-0.948 2.81,-3.882 2.669,-7.201 -10.944,0.505 -28.356,0.525 -33.206,1.552 -13.977,2.946 -20.507,9.294 -28.199,30.616 0.438,-13.925 5.418,-26.771 11.845,-35.046 -8.712,4.991 -11.907,16.748 -18.73,25.373 -4.822,6.093 -10.471,10.974 -18.229,14.231 -4.983,2.091 -6.347,13.317 -27.674,19.715 l 0,0 z"
   id="path3189"
   inkscape:connector-curvature="0"
   style="fill:#ca6830;fill-rule:evenodd" />
	<path
   clip-rule="evenodd"
   d="m 164.873,223.163 c 6.204,7.621 23.112,17.699 36.587,22.785 17.564,6.626 48.176,4.764 66.273,-2.564 14.611,-5.919 22.297,-16.431 10.169,-14.574 -16.379,2.506 -15.29,-0.391 -15.29,-0.391 -3.92,-6.044 -11.935,-0.78 -18.836,0.71 -4.683,1.014 -25.788,6.438 -28.336,3.657 -4.37,-4.78 -19.544,0 -50.567,-9.623 l 0,0 z"
   id="path3191"
   inkscape:connector-curvature="0"
   style="fill:#e68739;fill-rule:evenodd" />
	<path
   clip-rule="evenodd"
   d="m 65.528,246.626 c 17.464,-1.006 87.561,-18.071 92.175,5.827 0.637,3.301 -6.76,1.705 -9.665,3.814 -1.987,1.443 -4.798,3.638 -5.103,4.262 -0.464,0.951 -7.045,3.944 -12.729,8.846 -7.456,6.428 -11.66,4.018 -20.018,6.796 -11.837,3.936 -30.609,1.648 -45.138,0.473 15.894,5.503 26.458,6.114 45.628,3.218 9.778,-1.479 31.022,-6.954 36.725,-13.949 -0.227,1.705 -0.799,6.493 -1.876,7.844 23.43,6.502 90.005,13.881 109.061,2.365 21.949,-11.347 41.686,-41.598 51.324,-66.315 0.841,-2.157 3.085,-4.073 5.021,-5.828 -2.979,0.819 -5.726,2.748 -7.736,5.335 -2.49,3.2 -7.491,3.701 -8.191,6.555 -1.495,6.081 -4.339,13.018 -6.218,18.859 -4.939,15.364 -15.742,21.715 -30.243,22.215 -25.534,0.88 -41.637,8.698 -56.462,-1.068 -14.825,-9.769 -39.468,-21.771 -42.215,-22.571 8.183,7.199 19.264,15.609 16.912,21.275 -0.541,-2.129 -17.415,-19.458 -27.738,-21.387 -10.322,-1.931 -38.079,-4.484 -47.677,-3.391 -1.134,-10.144 17.575,-36.504 7.527,-57.438 0.177,8.963 -2.65,21.65 -7.048,31.987 -6.594,15.501 -15.527,27.391 -18.622,31.537 15.312,-2.102 82.805,-11.356 83.09,19.446 -1.174,-6.645 -6.112,-10.772 -13.08,-13.711 -21.298,-8.98 -64.892,0.805 -79.669,2.562 0.279,-6.742 15.435,-26.857 23.389,-42.869 2.604,-5.238 5.477,-14.94 6.794,-19.489 0.611,-2.104 0.831,-3.6 0.756,-4.61 -4.493,11.009 -3.729,23.737 -38.974,69.41 l 0,0 z"
   id="path3193"
   inkscape:connector-curvature="0"
   style="fill:#ca6830;fill-rule:evenodd" />
	<path
   clip-rule="evenodd"
   d="m 31.341,240.066 c 2.642,0.405 5.497,-1.507 7.366,-4.742 C 50.318,215.235 69.436,192.412 78.691,188.676 59.966,208.594 22.297,252.801 40.337,271.062 32.151,265 30.03,253.509 31.341,240.066 l 0,0 z"
   id="path3195"
   inkscape:connector-curvature="0"
   style="fill:#ce7634;fill-rule:evenodd" />
	<path
   clip-rule="evenodd"
   d="m 124.534,250.021 c 0,0 -13.211,3.373 -21.116,3.755 -4.435,0.212 -13.692,-0.327 -16.97,0.59 -6.239,1.748 -2.791,4.828 -9.103,5.953 -7.063,1.262 -13.109,1.671 -15.747,0.192 -2.079,-1.167 -6.741,-2.69 -8.702,-2.71 -5.994,-0.057 -9.188,1.589 -8.641,-4.048 0.722,-7.479 12.878,-27.987 20.349,-35.717 7.471,-7.731 22.517,-29.553 23.885,-27.918 1.367,1.629 -3.15,4.923 -6.469,10.575 -2.75,4.684 -17.824,23.317 -22.946,32.18 -3.899,6.746 -9.816,13.515 2.353,16.411 1.15,0.273 19.519,-4.335 26.977,-4.061 5.785,0.212 15.327,-0.848 19.321,0.431 6.626,1.801 15.208,2.113 16.809,4.367 l 0,0 z"
   id="path3197"
   inkscape:connector-curvature="0"
   style="fill:#e68739;fill-rule:evenodd" />
	<path
   clip-rule="evenodd"
   d="m 148.166,209.227 c -4.219,2.718 -26.081,2.15 -38.609,-1.7 5.465,-0.598 19.921,-0.411 24.537,-8.155 4.336,-7.274 -1.091,-22.339 1.684,-27.778 0.941,-1.851 4.961,-11.642 1.804,-13.082 -4.298,-1.966 -19.208,-0.84 -36.455,2.376 6.519,-3.831 21.013,-7.403 33.859,-12.164 10.646,-3.94 20.125,-9.053 23.307,-12.672 2.983,-3.396 11.449,-15.746 4.447,-24.023 0.767,-0.039 1.539,-0.081 2.315,-0.104 14.782,-0.481 38.483,-0.913 53.979,8.669 -25.156,1.154 -77.398,26.105 -73.912,69.967 0.186,-0.96 0.389,-1.906 0.605,-2.843 -0.001,0.957 0.016,1.916 0.074,2.89 0.111,4.456 -0.877,13.191 2.365,18.619 l 0,0 z"
   id="path3199"
   inkscape:connector-curvature="0"
   style="fill:#ca6830;fill-rule:evenodd" />
	<path
   clip-rule="evenodd"
   d="m 106.586,207.207 c 9.968,0.396 24.737,-5.655 33.979,-11.752 -3.138,6.712 -19.686,14.614 -33.979,11.752 l 0,0 z"
   id="path3201"
   inkscape:connector-curvature="0"
   style="fill:#79291b;fill-rule:evenodd" />
	<path
   clip-rule="evenodd"
   d="m 33.578,234.483 c 6.573,-8.418 11.259,-14.607 12.434,-21.209 1.174,-6.605 17.288,-29.137 19.298,-33.184 2.01,-4.046 9.53,-2.566 17.762,-9.457 8.232,-6.887 6.184,-3.156 17.027,-11.497 2.671,-2.057 4.813,-5.574 7.355,-7.26 7.771,-5.166 15.565,-3.274 20.155,-7.437 9.752,-8.838 13.479,-18.013 11.383,-21.476 -2.377,-3.926 -11.923,-1.271 -22.918,3.723 -7.982,3.625 -14.602,9.23 -20.548,14.235 -12.617,10.62 -21.123,21.579 -25.581,26.503 -2.598,2.868 -1.722,-0.674 0.038,-4.921 9.6,-19.947 21.167,-24.319 38.209,-41.317 -31.103,14.118 -50.558,43.085 -59.69,72.729 -3.241,10.912 -9.946,29.968 -14.924,40.568 l 0,0 z"
   id="path3203"
   inkscape:connector-curvature="0"
   style="fill:#e68739;fill-rule:evenodd" />
	<path
   clip-rule="evenodd"
   d="m 294.97,120.549 c -18.433,6.308 -44.513,-4.447 -65.012,0.479 l -0.463,-0.018 c -2.831,-2.805 -4.476,-4.925 -9.584,-6.34 24.708,-9.458 53.061,5.817 75.059,5.879 l 0,0 z"
   id="path3205"
   inkscape:connector-curvature="0"
   style="fill:#e68739;fill-rule:evenodd" />
	<path
   clip-rule="evenodd"
   d="m 297.613,128.087 c -2.894,-0.317 -6.121,-0.586 -9.5,-0.694 -3.553,-0.109 -7.529,0.126 -11.626,0.576 6.681,1.729 12.793,3.435 19.401,4.695 0.669,-1.354 1.222,-3.129 1.725,-4.577 l 0,0 z"
   id="path3207"
   inkscape:connector-curvature="0"
   style="fill:#ca6830;fill-rule:evenodd" />
	<path
   clip-rule="evenodd"
   d="m 215.033,194.233 c 7.142,1.622 20.124,-0.796 27.241,-9.777 6.424,-8.091 13.459,-25.658 16.197,-27.277 -5.647,3.054 -7.441,12.699 -16.337,21.885 -7.137,7.372 -16.234,13.396 -27.101,15.169 l 0,0 z"
   id="path3209"
   inkscape:connector-curvature="0"
   style="fill:#79291b;fill-rule:evenodd" />
</g>
</svg>