<?xml version="1.0" encoding="utf-8"?>
<!-- Generator: Adobe Illustrator 15.0.0, SVG Export Plug-In . SVG Version: 6.00 Build 0)  -->
<!DOCTYPE svg PUBLIC "-//W3C//DTD SVG 1.1//EN" "http://www.w3.org/Graphics/SVG/1.1/DTD/svg11.dtd">
<svg version="1.1" id="Layer_3" xmlns="http://www.w3.org/2000/svg" xmlns:xlink="http://www.w3.org/1999/xlink" x="0px" y="0px"
	 width="612px" height="792px" viewBox="0 0 612 792" enable-background="new 0 0 612 792" xml:space="preserve">
<g>
	<path fill="#79291B" d="M178.179,163.879l0.241,0.012c8.264,0.449,19.58,1.062,20.352,1.072c1.287,0.016,2.534,0.555,3.419,1.48
		c0.863,0.902,1.339,2.08,1.339,3.314c0,0.027-0.001,0.131-0.003,0.156c-0.132,3.959-0.986,12.713-1.453,17.301
		c2.318,0.908,4.85,2.801,6.518,6.674c1.242,2.879,1.871,6.59,1.871,11.025c0,2.455-0.199,4.357-0.262,4.881
		c-0.58,4.037-1.975,7.076-4.27,9.355c-9.041,8.969-25.583,0.354-30.438-2.502c-1.458-0.855-2.363-2.439-2.363-4.131v-43.855
		c0-1.309,0.545-2.576,1.495-3.477C175.576,164.283,176.871,163.809,178.179,163.879z"/>
	
		<linearGradient id="SVGID_1_" gradientUnits="userSpaceOnUse" x1="444.959" y1="226.3271" x2="444.959" y2="159.5111" gradientTransform="matrix(-1 0 0 1 636.7559 0)">
		<stop  offset="0.1348" style="stop-color:#FFE079"/>
		<stop  offset="0.1965" style="stop-color:#FFDE70"/>
		<stop  offset="0.2954" style="stop-color:#FFD959"/>
		<stop  offset="0.4185" style="stop-color:#FFD033"/>
		<stop  offset="0.5337" style="stop-color:#FFC609"/>
		<stop  offset="0.594" style="stop-color:#F8BD0B"/>
		<stop  offset="0.6903" style="stop-color:#E7A612"/>
		<stop  offset="0.7247" style="stop-color:#DF9C15"/>
		<stop  offset="0.9719" style="stop-color:#FFC609"/>
	</linearGradient>
	<path fill="url(#SVGID_1_)" d="M177.921,168.662c10.184,0.553,20.146,1.094,20.816,1.094c-0.174,5.207-1.723,19.793-1.734,19.896
		l-0.186,1.533h0.857c3.008,0,5.201,1.549,6.517,4.6c1.195,2.775,1.479,6.355,1.479,9.129c0,2.473-0.227,4.301-0.23,4.34
		c-0.41,2.844-1.355,4.979-2.886,6.498c-6.906,6.85-22.709-2.102-24.633-3.234v-7.213v-33.059V168.662z"/>
	<path fill="#79291B" d="M193.603,218.768c0,0,3.379-0.496,3.726-7.922c0.347-7.432-0.866-10.896-0.866-10.896
		s2.858,3.961,2.167,12.627c-0.694,8.668-2.514,7.926-2.514,7.926L193.603,218.768z"/>
</g>
</svg>
