<?xml version="1.0" encoding="utf-8"?>
<!-- Generator: Adobe Illustrator 15.0.0, SVG Export Plug-In . SVG Version: 6.00 Build 0)  -->
<!DOCTYPE svg PUBLIC "-//W3C//DTD SVG 1.1//EN" "http://www.w3.org/Graphics/SVG/1.1/DTD/svg11.dtd">
<svg version="1.1" id="Layer_3" xmlns="http://www.w3.org/2000/svg" xmlns:xlink="http://www.w3.org/1999/xlink" x="0px" y="0px"
	 width="612px" height="792px" viewBox="0 0 612 792" enable-background="new 0 0 612 792" xml:space="preserve">
<g>
	<path fill-rule="evenodd" clip-rule="evenodd" fill="#79291B" d="M303.212,134.837c7.469,2.209,17.751-1.011,20.435,5.34
		c9.502,0.662,16.86,0.817,23.412-1.921c2.854-1.19,3.725-4.037,6.277-7.321c5.693-7.324,18.313-2.359,18.258,4.794
		c-0.046,5.79-1.293,8.136-2.997,10.728c-2.723,4.15,2.007,6.195,1.236,13.224c-0.771,7.029-6.163,13.563-14.518,9.945
		c-5.769-3.979-3.74-4.907-7.79-7.461c-3.554-2.24-18.624-2.03-31.777-0.384c-0.027,3.004-4.553,8.542-8.963,8.979
		c13.127,6.233,20.324,27.246,11.406,34.332c-7.145,7.156-5.391,9.87-10.064,19.062c-7.777,15.298-22.747,40.362-43.914,54.27
		c-27.177,16.732-82.692,11.164-121.015,1.595c-29.679,6.916-62.723,14.743-97.042-3c-33.026-3.055-19.503-47.328-15.487-61.96
		c5.21-18.988,12.679-35.775,21.512-51.514c24.587-43.814,66.939-60.001,113.856-58.705c16.969,0.47,33.41,2.464,49.91,6.388
		c26.003-13.922,56.309,4.442,82.515,3.946c4.27-0.082,26.25-2.868,30.237-5.8c2.062-1.312,2.799-3.714,3.95-6.429
		c3.082-7.241,16.765-4.115,18.272,1.763c1.222,4.76-1.147,8.113-1.979,10.608c-1.335,3.992,1.299,7.329,2.191,13.264
		c1.346,8.944-8.187,9.966-14.093,6.87c-2.775-1.455-4.244-2.086-7.149-2.998C325.434,131.055,313.66,133.349,303.212,134.837
		L303.212,134.837z"/>
	<path fill-rule="evenodd" clip-rule="evenodd" fill="#EFC196" d="M349.701,143.076c4.551-1.331,5.152-6.56,8.003-8.094
		c4.549-2.452,9.582,1.146,7.008,5.858c-1.801,3.301-1.952,4.996-2.378,7.495c-0.793,2.934,2.132,8.008,1.645,11.28
		c-0.671,4.477-4.218,5.786-8.079,3.363c-3.864-2.423-5.552-6.584-9.881-7.601c-4.959-1.164-18.471-0.585-27.678,1.299
		c-2.297-9.002,8.064-3.618,4.589-12.354C335.175,145.138,343.403,145.355,349.701,143.076L349.701,143.076z"/>
	<path fill-rule="evenodd" clip-rule="evenodd" fill="#D57632" d="M309.614,163.647c6.777-2.27-2.784-15.83,8.772-18.941
		c3.595-0.971-0.03-3.961-3.64-4.221c-15.41-1.121-28.29-4.571-40.695-7.711c7.192,4.11,13.552,8.69,18.193,13.168
		c-6.339-4.07-20.183-11.554-35.415-17.088c-1.228-0.223-2.465-0.429-3.705-0.631c-43.284-7.051-97.869,9.673-108.002,62.336
		c-3.486-43.861,48.756-68.812,73.912-69.967c-15.496-9.582-39.197-9.15-53.979-8.669c-41.385,1.344-71.851,26.07-94.335,51.187
		c14.816-23.053,36.61-41.738,61.313-49.631c-24.676,1.655-53.266,20.834-70.94,47.5c-12.661,19.093-46.366,91.114-20.758,110.082
		c-20.641-20.895,31.657-75.766,45.053-89.341c6.704-7.458,22.381-17.858,23.01-14.328c1.76,8.667-1.262,24.513-6.555,36.957
		c-6.594,15.501-15.527,27.391-18.622,31.537c15.312-2.102,82.805-11.356,83.09,19.446c-1.174-6.645-6.112-10.772-13.08-13.711
		c-21.298-8.98-64.892,0.805-79.669,2.562c0.279-6.742,15.435-26.857,23.389-42.869c2.604-5.238,5.477-14.94,6.794-19.489
		c2.373-8.176-1.103-7.192-5.269-4.105c-5.06,3.756-9.028,8.517-13.285,13.099c-2.962,3.183-6.452,6.966-9.339,10.359
		c-10.037,11.8-23.507,28.554-30.031,42.414c-4.189,8.9-6.081,16.557-2.58,21.749c3.086,4.575,12.287,7.784,17.418,9.715
		c18.468,6.955,29.138,7.96,50.018,4.805c9.778-1.479,31.022-6.954,36.725-13.949c-0.227,1.705-0.799,6.493-1.876,7.844
		c23.43,6.502,90.005,13.881,109.061,2.365c21.949-11.347,41.686-41.598,51.324-66.315c1.547-3.97,7.843-7.132,8.236-9.941
		c2.303-16.38-6.121-19.482-12.097-26.031c-31.137,2.677-29.535,38.445-72.519,40.423c23.172-8.048,30.393-17.362,43.658-32.723
		C280.907,172.603,297.599,167.683,309.614,163.647L309.614,163.647z"/>
	<path fill-rule="evenodd" clip-rule="evenodd" fill="#CE7634" d="M244.314,211.882c4.975,0.221,11.949-1.052,21.167-6.34
		c2.62-1.504,13.164-5.444,16.619-8.897c7.079-7.068,12.082-2.967,17.515-4.734c7.045-2.3,7.092-8.481,12.6-7.137
		c-2.558-4.591-6.757-7.204-10.162-10.94C275.002,176.159,272.653,203.461,244.314,211.882L244.314,211.882z"/>
	<path fill-rule="evenodd" clip-rule="evenodd" fill="#EFC196" d="M331.936,114.132c4.162-1.845,3.378-7.461,5.896-9.284
		c4.016-2.899,10.41-0.695,8.557,4.108c-1.293,3.366-2.174,6.365-2.264,8.792c-0.384,2.892,2.89,6.453,2.836,9.628
		c-0.073,4.34-2.982,5.768-6.962,3.956c-3.979-1.819-6.249-3.958-10.493-4.378c-4.864-0.48-19.46,0.869-27.977,3.826
		c-0.943-4.991,10.281-6.925,6.434-11.907C315.132,117.842,325.959,115.906,331.936,114.132L331.936,114.132z"/>
	<path fill-rule="evenodd" clip-rule="evenodd" fill="#D57632" d="M229.495,121.01c33.471,1.189,48.032,8.148,66.394,11.654
		c1.005-2.032,1.745-5.029,2.466-6.408c1.486-2.847,4.818-2.9,5.999-5.312c1.061-2.163-3.86-0.718-5.039-0.598
		c-22.519,2.309-53.035-15.772-79.403-5.676C225.02,116.085,226.664,118.205,229.495,121.01L229.495,121.01z"/>
	<path fill-rule="evenodd" clip-rule="evenodd" fill="#F1DDC6" d="M324.92,117.15c2.202-0.302,6.705-1.268,8.21-2.151
		c1.509-0.89,3.434-5.906,4.284-6.967c0.845-1.066,1.975-3.295,4.372-3.252c2.401,0.043,2.523,1.16,2.523,1.16
		c-1.188-0.022-2.852-0.028-3.385,0.253c-1.632,0.85-0.072,3.104-1.702,5.601C335.056,118.165,332.464,117.465,324.92,117.15
		L324.92,117.15z"/>
	<path fill-rule="evenodd" clip-rule="evenodd" fill="#F1DDC6" d="M342.325,145.146c1.381,0.223,6.413,0.2,8.021-0.423
		c1.61-0.628,4.487-5.8,5.429-6.813c0.941-1.012,2.24-3.31,4.713-2.603c2.47,0.708,2.952,2.525,2.952,2.525
		c-1.224-0.346-2.949-0.691-3.577-0.682c-1.914,0.035-0.84,1.837-2.675,4.307C352.493,147.767,348.756,148.32,342.325,145.146
		L342.325,145.146z"/>
	<path fill-rule="evenodd" clip-rule="evenodd" fill="#E68739" d="M284.396,141.342c-5.449-1.629-12.766-4.56-18.603-1.528
		c-5.67,2.942-10.479,9.722-12.381,10.771c-5.369,3.101-6.098,7.952-8.527,12.224c-2.121,3.731-8.76,3.534-10.738,6.964
		c-1.981,3.428-4.629,7.638-6.961,10.058c-9.856,9.679-13.527,12.045-26.312,13.227c-6.32,0.579-13.492,1.506-21.241,1.307
		c-3.032-0.076-5.72,0.271-8.914-0.237c0.338,14.359,6.298,18.578,15.198,23.673c-7.783-1.897-14.711-4.248-19.98-8.855
		c-7.108-6.221-10.659-11.37-11.962-17.559c-4.829-22.915,14.066-37.033,34.012-43.297c7.817-2.452,14.33-1.836,19.748-2.563
		c-6.843-5.497-23.013-5.164-32.969-1.472c22.089-15.686,52.276-20.077,78.361-15.828c1.24,0.202,2.478,0.408,3.705,0.631
		C267.354,132.679,277.213,137.426,284.396,141.342L284.396,141.342z"/>
	<path fill-rule="evenodd" clip-rule="evenodd" fill="#CA6830" d="M198.09,212.887c6.909,4.389,17.866,3.312,31.444,1.369
		c23.172-8.048,30.393-17.362,43.658-32.723c7.715-8.931,24.406-13.851,36.422-17.886c2.842-0.948,2.81-3.882,2.669-7.201
		c-10.944,0.505-28.356,0.525-33.206,1.552c-13.977,2.946-20.507,9.294-28.199,30.616c0.438-13.925,5.418-26.771,11.845-35.046
		c-8.712,4.991-11.907,16.748-18.73,25.373c-4.822,6.093-10.471,10.974-18.229,14.231
		C220.781,195.263,219.417,206.489,198.09,212.887L198.09,212.887z"/>
	<path fill-rule="evenodd" clip-rule="evenodd" fill="#E68739" d="M164.873,223.163c6.204,7.621,23.112,17.699,36.587,22.785
		c17.564,6.626,48.176,4.764,66.273-2.564c14.611-5.919,22.297-16.431,10.169-14.574c-16.379,2.506-15.29-0.391-15.29-0.391
		c-3.92-6.044-11.935-0.78-18.836,0.71c-4.683,1.014-25.788,6.438-28.336,3.657C211.07,228.006,195.896,232.786,164.873,223.163
		L164.873,223.163z"/>
	<path fill-rule="evenodd" clip-rule="evenodd" fill="#CA6830" d="M65.528,246.626c17.464-1.006,87.561-18.071,92.175,5.827
		c0.637,3.301-6.76,1.705-9.665,3.814c-1.987,1.443-4.798,3.638-5.103,4.262c-0.464,0.951-7.045,3.944-12.729,8.846
		c-7.456,6.428-11.66,4.018-20.018,6.796c-11.837,3.936-30.609,1.648-45.138,0.473c15.894,5.503,26.458,6.114,45.628,3.218
		c9.778-1.479,31.022-6.954,36.725-13.949c-0.227,1.705-0.799,6.493-1.876,7.844c23.43,6.502,90.005,13.881,109.061,2.365
		c21.949-11.347,41.686-41.598,51.324-66.315c0.841-2.157,3.085-4.073,5.021-5.828c-2.979,0.819-5.726,2.748-7.736,5.335
		c-2.49,3.2-7.491,3.701-8.191,6.555c-1.495,6.081-4.339,13.018-6.218,18.859c-4.939,15.364-15.742,21.715-30.243,22.215
		c-25.534,0.88-41.637,8.698-56.462-1.068c-14.825-9.769-39.468-21.771-42.215-22.571c8.183,7.199,19.264,15.609,16.912,21.275
		c-0.541-2.129-17.415-19.458-27.738-21.387c-10.322-1.931-38.079-4.484-47.677-3.391c-1.134-10.144,17.575-36.504,7.527-57.438
		c0.177,8.963-2.65,21.65-7.048,31.987c-6.594,15.501-15.527,27.391-18.622,31.537c15.312-2.102,82.805-11.356,83.09,19.446
		c-1.174-6.645-6.112-10.772-13.08-13.711c-21.298-8.98-64.892,0.805-79.669,2.562c0.279-6.742,15.435-26.857,23.389-42.869
		c2.604-5.238,5.477-14.94,6.794-19.489c0.611-2.104,0.831-3.6,0.756-4.61C100.009,188.225,100.773,200.953,65.528,246.626
		L65.528,246.626z"/>
	<path fill-rule="evenodd" clip-rule="evenodd" fill="#CE7634" d="M31.341,240.066c2.642,0.405,5.497-1.507,7.366-4.742
		c11.611-20.089,30.729-42.912,39.984-46.648c-18.725,19.918-56.394,64.125-38.354,82.386C32.151,265,30.03,253.509,31.341,240.066
		L31.341,240.066z"/>
	<path fill-rule="evenodd" clip-rule="evenodd" fill="#E68739" d="M124.534,250.021c0,0-13.211,3.373-21.116,3.755
		c-4.435,0.212-13.692-0.327-16.97,0.59c-6.239,1.748-2.791,4.828-9.103,5.953c-7.063,1.262-13.109,1.671-15.747,0.192
		c-2.079-1.167-6.741-2.69-8.702-2.71c-5.994-0.057-9.188,1.589-8.641-4.048c0.722-7.479,12.878-27.987,20.349-35.717
		c7.471-7.731,22.517-29.553,23.885-27.918c1.367,1.629-3.15,4.923-6.469,10.575c-2.75,4.684-17.824,23.317-22.946,32.18
		c-3.899,6.746-9.816,13.515,2.353,16.411c1.15,0.273,19.519-4.335,26.977-4.061c5.785,0.212,15.327-0.848,19.321,0.431
		C114.351,247.455,122.933,247.767,124.534,250.021L124.534,250.021z"/>
	<path fill-rule="evenodd" clip-rule="evenodd" fill="#CA6830" d="M148.166,209.227c-4.219,2.718-26.081,2.15-38.609-1.7
		c5.465-0.598,19.921-0.411,24.537-8.155c4.336-7.274-1.091-22.339,1.684-27.778c0.941-1.851,4.961-11.642,1.804-13.082
		c-4.298-1.966-19.208-0.84-36.455,2.376c6.519-3.831,21.013-7.403,33.859-12.164c10.646-3.94,20.125-9.053,23.307-12.672
		c2.983-3.396,11.449-15.746,4.447-24.023c0.767-0.039,1.539-0.081,2.315-0.104c14.782-0.481,38.483-0.913,53.979,8.669
		c-25.156,1.154-77.398,26.105-73.912,69.967c0.186-0.96,0.389-1.906,0.605-2.843c-0.001,0.957,0.016,1.916,0.074,2.89
		C145.912,195.064,144.924,203.799,148.166,209.227L148.166,209.227z"/>
	<path fill-rule="evenodd" clip-rule="evenodd" fill="#79291B" d="M106.586,207.207c9.968,0.396,24.737-5.655,33.979-11.752
		C137.427,202.167,120.879,210.069,106.586,207.207L106.586,207.207z"/>
	<path fill-rule="evenodd" clip-rule="evenodd" fill="#E68739" d="M33.578,234.483c6.573-8.418,11.259-14.607,12.434-21.209
		c1.174-6.605,17.288-29.137,19.298-33.184c2.01-4.046,9.53-2.566,17.762-9.457c8.232-6.887,6.184-3.156,17.027-11.497
		c2.671-2.057,4.813-5.574,7.355-7.26c7.771-5.166,15.565-3.274,20.155-7.437c9.752-8.838,13.479-18.013,11.383-21.476
		c-2.377-3.926-11.923-1.271-22.918,3.723c-7.982,3.625-14.602,9.23-20.548,14.235c-12.617,10.62-21.123,21.579-25.581,26.503
		c-2.598,2.868-1.722-0.674,0.038-4.921c9.6-19.947,21.167-24.319,38.209-41.317c-31.103,14.118-50.558,43.085-59.69,72.729
		C45.261,204.827,38.556,223.883,33.578,234.483L33.578,234.483z"/>
	<path fill-rule="evenodd" clip-rule="evenodd" fill="#E68739" d="M294.97,120.549c-18.433,6.308-44.513-4.447-65.012,0.479
		l-0.463-0.018c-2.831-2.805-4.476-4.925-9.584-6.34C244.619,105.212,272.972,120.487,294.97,120.549L294.97,120.549z"/>
	<path fill-rule="evenodd" clip-rule="evenodd" fill="#CA6830" d="M297.613,128.087c-2.894-0.317-6.121-0.586-9.5-0.694
		c-3.553-0.109-7.529,0.126-11.626,0.576c6.681,1.729,12.793,3.435,19.401,4.695C296.557,131.31,297.11,129.535,297.613,128.087
		L297.613,128.087z"/>
	<path fill-rule="evenodd" clip-rule="evenodd" fill="#79291B" d="M215.033,194.233c7.142,1.622,20.124-0.796,27.241-9.777
		c6.424-8.091,13.459-25.658,16.197-27.277c-5.647,3.054-7.441,12.699-16.337,21.885C234.997,186.436,225.9,192.46,215.033,194.233
		L215.033,194.233z"/>
</g>
</svg>
